<svg width="88" height="64" viewBox="0 0 88 64" fill="none" xmlns="http://www.w3.org/2000/svg">
<path d="M31.9633 5.40605C33.2588 5.86731 34.7179 6.45865 36.221 6.90005C36.8106 7.06815 37.36 7.35383 37.8362 7.73989C38.3125 8.12595 38.7056 8.60441 38.992 9.14644C39.9121 10.7715 40.0383 10.8457 41.8954 10.5084C42.3119 10.417 42.7359 10.3639 43.162 10.3498C43.2927 10.3319 43.4257 10.3429 43.5517 10.3819C43.6777 10.4208 43.7937 10.4869 43.8915 10.5754C43.9893 10.6639 44.0666 10.7727 44.1179 10.8942C44.1692 11.0157 44.1934 11.1469 44.1887 11.2788C44.5049 14.4159 45.0845 17.5446 45.1363 20.6834C45.1666 22.5137 46.2038 22.7206 47.4006 23.2111C50.5776 24.3411 53.8338 25.2353 57.1424 25.8863C61.6103 26.9901 66.042 28.2422 70.4797 29.4652C74.0259 30.4425 77.5635 31.4503 81.0926 32.4888C82.7242 32.9715 84.3295 33.5501 85.9273 34.1378C86.2535 34.2535 86.5535 34.4325 86.8103 34.6644C87.0671 34.8964 87.2756 35.1768 87.4238 35.4895C87.5719 35.8022 87.6569 36.1411 87.6738 36.4868C87.6906 36.8324 87.6391 37.178 87.522 37.5036C87.4825 37.7568 87.4962 38.0154 87.5625 38.2629C87.6632 38.6738 87.7384 39.0906 87.7877 39.5109C87.8247 40.8669 87.8406 42.2245 87.8186 43.5808C87.7603 46.1398 87.1838 48.6604 86.1239 50.9903C85.9327 51.4177 85.6532 51.7999 85.3037 52.1117C84.9543 52.4235 84.5429 52.6578 84.0965 52.7994C81.0616 53.8197 78.0529 54.9289 74.9843 55.8351C71.8456 56.762 68.6564 57.5243 65.4736 58.2934C63.17 58.8501 60.8521 59.3466 58.52 59.783C56.8755 60.093 55.1983 60.226 53.5473 60.5062C50.9641 60.9445 48.3939 61.4585 45.8121 61.9053C44.239 62.1776 42.6545 62.3842 41.0751 62.6195C40.9262 62.6084 40.7767 62.631 40.6377 62.6855C40.2637 62.9433 39.8198 63.0804 39.3657 63.0784C38.9115 63.0764 38.4688 62.9354 38.0972 62.6744C36.1841 61.8112 34.3113 60.8448 32.4817 59.8144C30.1033 58.4748 27.7421 57.0957 25.4472 55.6191C22.751 53.8844 20.1485 52.0046 17.4772 50.2301C15.644 49.0125 13.7555 47.8786 11.9064 46.6845C11.1084 46.169 10.3661 45.567 9.56568 45.0555C8.21635 44.1933 6.85768 43.3428 5.47124 42.5423C4.34814 41.8939 3.17618 41.3304 2.03008 40.7214C0.959526 40.1525 0.880946 39.0754 0.772696 38.0709C0.531176 35.8296 0.351466 33.5813 0.176636 31.3335C0.187588 30.9093 0.226593 30.4863 0.293396 30.0672C0.352316 29.052 0.388636 28.0354 0.445396 27.02C0.540396 25.3213 0.687976 23.6243 0.733326 21.9244C0.788206 19.8677 0.682786 17.8045 0.793976 15.7521C0.870256 14.344 0.602486 12.8645 1.33719 11.5455C1.41306 11.422 1.51302 11.315 1.6311 11.231C1.74919 11.1469 1.88298 11.0875 2.02452 11.0562C3.08967 10.9079 4.16733 10.8523 5.23578 10.7242C5.71078 10.6562 6.16732 10.4937 6.57839 10.2461C6.98947 9.99863 7.34672 9.67118 7.62903 9.28317C8.58619 8.03237 9.78688 6.9885 11.1586 6.21457C12.5304 5.44064 14.0447 4.95271 15.6103 4.78022C16.7625 4.6863 17.9199 4.67191 19.0742 4.73715C19.4701 4.75614 19.8638 4.66798 20.2137 4.48194C20.5637 4.29591 20.857 4.0189 21.0627 3.68011C21.6526 3.00104 22.3752 2.44975 23.1859 2.06011C23.9641 1.65261 24.7828 1.32762 25.6287 1.09042C26.6701 0.808527 27.7763 0.888737 28.7662 1.3179C29.756 1.74707 30.5707 2.49974 31.0768 3.45256C31.3878 4.07011 31.6502 4.71219 31.9633 5.40605ZM40.1085 48.4121C40.2663 48.71 40.5245 48.9424 40.8374 49.068C41.1503 49.1936 41.4976 49.2042 41.8176 49.098C42.3126 49.0225 42.8135 48.9798 43.3041 48.8832C44.7773 48.593 46.2405 48.2484 47.719 47.9893C50.2089 47.553 52.7321 47.2775 55.1966 46.7323C58.7583 45.9443 62.276 44.9593 65.8202 44.0899C68.5622 43.4173 71.3336 42.8585 74.0592 42.127C76.3532 41.5113 78.5969 40.7096 80.8688 40.0094C82.6637 39.4563 84.4681 38.934 86.2664 38.3916C86.4053 38.368 86.5316 38.2962 86.623 38.1889C87.2648 36.7832 86.9611 35.1594 85.5052 34.6579C83.7746 34.0618 82.0565 33.4207 80.3015 32.9062C77.1044 31.9688 73.8807 31.1226 70.6745 30.2158C67.4926 29.3159 64.3317 28.3378 61.1339 27.4998C59.9977 27.0652 58.7578 26.9794 57.5727 27.2534C55.4049 27.927 53.1337 28.2592 50.9332 28.8382C48.5624 29.4622 46.2235 30.2069 43.8696 30.8951C41.3955 31.6184 38.9146 32.3185 36.4466 33.0621C32.9184 34.1253 29.3989 35.2171 25.8767 36.3001C24.4457 36.7401 23.0116 37.1714 21.5903 37.6412C20.8815 37.8755 20.1986 38.1879 19.3454 38.5281C19.5412 38.6917 19.7474 38.8424 19.9626 38.9794C20.9499 39.4671 21.9455 39.9378 22.9325 40.4258C25.98 41.9324 29.0202 43.4539 32.0724 44.951C34.4074 46.0964 36.7514 47.2231 39.1044 48.3313C39.4334 48.4066 39.7716 48.4338 40.1085 48.412V48.4121ZM3.01659 27.5721C3.01659 27.2628 3.02132 26.9901 3.01583 26.7176C2.97994 24.9351 2.87043 23.1506 2.92231 21.3707C2.98867 19.0939 3.15331 16.8183 3.3388 14.5473C3.4218 13.5315 3.68472 12.9691 4.83016 12.8569C5.64867 12.7767 6.45643 12.5908 7.27092 12.4645C7.81407 12.3802 8.36492 12.3409 8.90479 12.2411C10.4283 11.9596 11.8987 11.6236 12.6776 10.0139C12.9972 9.36252 13.4354 8.77634 13.9696 8.28534C15.6569 6.74452 17.704 6.63985 19.8376 6.96819C20.4033 7.06813 20.978 7.10795 21.5521 7.087C21.697 7.06869 21.8353 7.01556 21.9551 6.93214C22.075 6.84872 22.1728 6.7375 22.2403 6.608C22.539 5.11352 23.6616 4.48449 24.8998 3.99445C27.4118 3.00037 29.495 4.07166 30.2223 6.67572C30.2513 6.77273 30.302 6.86186 30.3706 6.93633C30.4392 7.01081 30.5239 7.06867 30.6182 7.10554C33.2241 7.44633 34.9775 9.08754 36.6163 10.9403C36.9423 11.3516 37.3748 11.6657 37.8667 11.8486C38.8914 12.1268 39.9617 12.2374 41.0141 12.4128C41.3818 12.4533 41.747 12.5146 42.1077 12.5966C42.1693 12.6474 42.2184 12.7117 42.2512 12.7845C42.284 12.8573 42.2996 12.9367 42.2969 13.0165C42.2599 13.0745 42.2095 13.1229 42.1499 13.1574C42.0904 13.192 42.0234 13.2118 41.9546 13.2152C40.7818 13.1877 39.6133 13.0615 38.4616 12.8381C37.4153 12.6267 36.4876 12.0273 35.8649 11.1604C34.9147 9.7383 33.3858 8.98869 31.973 8.1385C31.5022 7.91017 30.9826 7.80093 30.4598 7.82035C30.3478 7.84737 30.231 7.84759 30.1189 7.82102C30.0068 7.79444 29.9026 7.74181 29.8146 7.66739C29.7267 7.59298 29.6576 7.49887 29.6128 7.39272C29.5681 7.28657 29.549 7.17136 29.5571 7.05645C29.5075 6.5756 29.3438 6.11355 29.0795 5.70881C28.8152 5.30407 28.4579 4.96837 28.0376 4.7297C27.6172 4.49102 27.1459 4.35627 26.6629 4.33668C26.1799 4.3171 25.6992 4.41325 25.2609 4.61711C24.6643 4.77206 24.1187 5.08051 23.6784 5.51179C23.2381 5.94307 22.9184 6.48213 22.7511 7.07534C22.6954 7.23958 22.6011 7.38805 22.4761 7.50825C22.3511 7.62845 22.199 7.71687 22.0327 7.76607C21.3102 7.82651 20.583 7.79375 19.8689 7.66858C18.5076 7.43936 17.1112 7.53914 15.7963 7.95958C15.1926 8.14926 14.6381 8.46969 14.1723 8.89807C13.7064 9.32645 13.3408 9.85225 13.1013 10.438C12.7948 11.0897 12.3296 11.654 11.7484 12.0791C11.1671 12.5043 10.4884 12.7767 9.7745 12.8713C8.11162 13.2184 6.4154 13.4034 4.74324 13.7109C4.60637 13.755 4.48237 13.8319 4.38206 13.9349C4.28176 14.038 4.2082 14.164 4.1678 14.302C3.98058 16.3459 3.82228 18.3936 3.7208 20.4434C3.68916 21.0824 3.94351 21.7351 3.9147 22.3747C3.84148 23.9994 3.67452 25.6197 3.56182 27.2429C3.52733 27.7395 3.70182 27.9641 4.27839 27.8214C5.3853 27.5476 6.50876 27.3375 7.63076 27.1303C7.87511 27.1198 8.11973 27.1434 8.3576 27.2003C8.22225 27.434 8.04288 27.6392 7.82944 27.8046C7.49815 27.9183 7.155 27.9939 6.80662 28.0299C5.91326 28.2223 5.0209 28.4192 4.12813 28.6143L4.03572 28.8601C4.64198 29.358 5.23983 29.8665 5.8563 30.3514C7.01636 31.2639 8.1623 32.1975 9.36192 33.0553C10.2141 33.6647 11.141 34.1705 12.0418 34.7106C12.668 35.0861 13.2934 35.602 14.0055 34.8415C14.0897 34.7879 14.1867 34.7576 14.2865 34.7538C15.4357 34.5184 16.594 34.3207 17.7332 34.0439C19.9649 33.5017 22.1793 32.8876 24.4133 32.3556C26.7991 31.7876 29.2165 31.3459 31.5888 30.7285C34.2282 30.0416 36.8282 29.2045 39.4528 28.4588C42.7493 27.5222 46.0545 26.6157 49.3532 25.6867C49.8319 25.5518 50.2957 25.3642 50.9149 25.1496C48.9148 24.4424 47.0929 23.8184 45.2921 23.1386C45.1496 23.0707 45.0241 22.9718 44.9247 22.8491C44.8254 22.7264 44.7548 22.583 44.7181 22.4295C44.491 20.6176 44.3289 18.7977 44.1428 16.9806C43.9772 15.3634 43.7867 13.7484 43.6469 12.129C43.5502 11.0081 43.544 11.016 42.3886 11.2038C41.5463 11.3262 40.6967 11.3909 39.8456 11.3975C39.6246 11.4055 39.4088 11.3294 39.2418 11.1845C39.0748 11.0397 38.9689 10.8368 38.9457 10.617C38.7667 9.91962 38.4197 9.27672 37.9349 8.74444C37.4501 8.21216 36.8424 7.8067 36.1648 7.56347C34.6835 7.04747 33.1737 6.60609 31.6579 6.20094C31.4611 6.1789 31.2804 6.08205 31.1531 5.93043C31.0258 5.77881 30.9617 5.58404 30.9741 5.38646C30.9233 3.7487 29.882 2.8258 28.5985 2.07371C27.1238 1.20953 25.6817 1.67354 24.2673 2.22262C23.1199 2.54509 22.1179 3.25162 21.4289 4.2241C21.1372 4.68038 20.7211 5.04376 20.2297 5.27143C19.7384 5.4991 19.1922 5.58157 18.6555 5.50911C17.6666 5.51233 16.6709 5.45011 15.69 5.54201C14.2844 5.62592 12.9121 6.00426 11.6621 6.65251C10.412 7.30076 9.31219 8.20445 8.4338 9.30501C7.7543 10.2547 6.76939 10.9424 5.64372 11.253C4.57072 11.472 3.48525 11.6246 2.39348 11.71C1.9886 11.7516 1.74848 11.8009 1.7167 12.2844C1.6627 13.1056 1.4835 13.9201 1.45164 14.741C1.37076 16.8249 1.36274 18.9115 1.28706 20.9956C1.21619 22.9472 1.08768 24.8966 1.00157 26.8476C0.964559 26.9866 0.966301 27.133 1.0066 27.2711C1.04691 27.4091 1.12423 27.5335 1.23019 27.6307C1.33615 27.7279 1.46671 27.7943 1.60771 27.8226C1.7487 27.8509 1.89475 27.8401 2.03003 27.7913C2.32551 27.747 2.61497 27.6628 3.01659 27.5721ZM87.2288 40.7519C86.5847 41.2033 85.8995 41.5933 85.1825 41.9168C82.017 43.0201 78.8552 44.1524 75.6354 45.0768C70.7995 46.4651 65.9224 47.7117 61.051 48.9732C57.6611 49.8511 54.2684 50.7315 50.8457 51.4651C47.8141 52.1148 44.7416 52.5769 41.6813 53.0867C41.583 53.0775 41.4838 53.0899 41.3907 53.1229C41.2976 53.1559 41.2129 53.2089 41.1423 53.278C41.0718 53.3471 41.0171 53.4308 40.9822 53.5232C40.9473 53.6156 40.933 53.7145 40.9402 53.8131C40.938 54.1627 40.8523 54.5121 40.8539 54.8614C40.86 56.2403 40.8904 57.6191 40.9027 58.998C40.9111 59.9465 40.9043 60.8952 40.9043 61.9122C41.1992 61.9678 41.4994 61.9894 41.7993 61.9767C43.1324 61.7635 44.4609 61.5203 45.7894 61.2784C48.4684 60.7904 51.1431 60.2776 53.8258 59.8111C55.776 59.472 57.7448 59.2367 59.6892 58.8693C61.3368 58.558 62.9672 58.148 64.5946 57.7392C68.5057 56.7567 72.43 55.8181 76.3105 54.7253C78.5716 54.0886 80.7319 53.0972 82.9882 52.4393C83.6711 52.2846 84.3017 51.9544 84.8178 51.4813C85.3339 51.0082 85.7176 50.4086 85.9309 49.7418C87.0084 46.8742 87.4513 43.8071 87.2288 40.7519V40.7519ZM1.19859 28.5739C1.13389 28.883 1.07437 29.1516 1.02171 29.4216C0.784226 30.6392 0.859956 31.6522 2.15138 32.3771C3.67703 33.2336 5.06404 34.3331 6.55082 35.2638C8.24741 36.326 9.98153 37.3289 11.7135 38.3332C12.1269 38.5729 12.3247 38.8093 11.9471 39.4632C8.28811 37.0939 4.66989 34.7509 0.823576 32.2603C1.08799 34.4569 1.35413 36.4406 1.55464 38.4308C1.59491 38.8543 1.75376 39.258 2.01297 39.5953C2.27218 39.9327 2.62125 40.1902 3.02013 40.3382C4.4515 41.0529 5.86353 41.8149 7.23582 42.637C8.54755 43.4227 9.7881 44.3263 11.0783 45.1493C13.0446 46.4038 15.1226 47.5065 16.977 48.9069C19.0927 50.5588 21.2976 52.0932 23.5816 53.5033C25.9494 54.9139 28.2217 56.4842 30.5797 57.9121C32.1202 58.8449 33.7247 59.6763 35.3271 60.5014C36.5259 61.1186 37.747 61.7032 38.9966 62.2069C39.8072 62.5336 40.1829 62.1845 40.1813 61.3008C40.1782 59.575 40.1828 57.8493 40.1837 56.1235C40.1843 55.1855 40.1838 54.2475 40.1838 53.2557C38.3821 53.3666 36.5879 52.9416 35.0274 52.0344C33.514 51.1158 31.8512 50.4469 30.2799 49.6192C26.8613 47.8183 23.4853 45.9345 20.04 44.1869C18.0806 43.193 16.0203 42.398 14.0027 41.5197C13.649 41.4219 13.3291 41.2284 13.0783 40.9606C12.8275 40.6928 12.6554 40.361 12.581 40.0017C12.4477 38.8336 12.4118 37.6565 12.4736 36.4825C12.5174 36.2681 12.488 36.0454 12.3903 35.8497C12.2925 35.654 12.132 35.4968 11.9344 35.403C10.8817 34.7719 9.82415 34.142 8.82008 33.438C7.47037 32.4917 6.16324 31.4841 4.8506 30.486C4.4068 30.2072 4.0141 29.8544 3.6896 29.4429C3.45735 29.0136 3.07319 28.6866 2.6124 28.5259C2.15161 28.3651 1.64741 28.3823 1.19859 28.5739ZM41.1344 52.4273C41.4844 52.4038 41.8326 52.406 42.1722 52.3528C43.2377 52.186 44.2998 51.998 45.3632 51.8186C50.241 51.0582 55.0693 50.0086 59.8226 48.6755C63.5451 47.5818 67.3107 46.6346 71.0604 45.6343C73.2144 45.0598 75.4022 44.5963 77.5252 43.9257C80.1505 43.0965 82.7366 42.1369 85.3119 41.1604C85.6828 41.0729 86.0203 40.8797 86.2837 40.6043C86.547 40.3288 86.7249 39.983 86.7958 39.6086C86.8511 39.1549 86.7156 38.8993 86.2172 39.0468C84.2005 39.6436 82.1821 40.2354 80.1731 40.8574C78.0979 41.5 76.0549 42.2583 73.9578 42.8151C71.4928 43.4695 68.9757 43.925 66.4975 44.5332C63.4156 45.2896 60.3731 46.2208 57.2721 46.8819C53.43 47.701 49.5445 48.3165 45.6794 49.0284C44.1846 49.3037 42.6942 49.6021 41.1344 49.903V52.4273L41.1344 52.4273ZM13.9053 35.5821L13.9045 35.8089C15.1298 36.4356 16.3747 37.0274 17.573 37.702C18.2871 38.1041 18.9258 38.601 19.5864 37.6646C19.6476 37.6207 19.7191 37.5932 19.794 37.5848C21.1465 37.138 22.4913 36.6662 23.8537 36.252C25.2893 35.8155 26.7487 35.4573 28.1854 35.024C31.2045 34.1133 34.2145 33.1722 37.2303 32.2502C40.1217 31.3662 43.0025 30.4437 45.9119 29.6228C49.6559 28.5665 53.4238 27.5946 57.2203 26.5759C55.8406 26.255 54.4615 25.931 53.0799 25.618C52.9318 25.5882 52.7789 25.5913 52.6322 25.6271C50.9312 26.0258 49.2216 26.3935 47.5349 26.8465C44.6071 27.6328 41.6949 28.477 38.7742 29.2901C35.566 30.1833 32.3642 31.1013 29.143 31.9455C27.1574 32.4659 25.1377 32.855 23.1392 33.3283C21.0935 33.8127 19.0553 34.3291 17.0132 34.8292C15.9779 35.0828 14.9413 35.3313 13.9053 35.5821ZM19.1864 39.3533C19.1864 40.4811 19.146 41.4696 19.2123 42.4508C19.2432 42.612 19.308 42.7648 19.4025 42.899C19.4971 43.0332 19.6191 43.1458 19.7605 43.2291C22.5815 44.7561 25.4144 46.2611 28.2593 47.7439C30.8523 49.1001 33.4733 50.4035 36.0532 51.7837C37.1989 52.3475 38.4667 52.6176 39.7426 52.57C39.8415 52.5925 39.9445 52.5898 40.042 52.5622C40.1396 52.5346 40.2287 52.4829 40.3011 52.4119C40.3735 52.3409 40.4269 52.2528 40.4564 52.1558C40.486 52.0588 40.4906 51.9559 40.47 51.8566C40.4494 51.2538 40.4902 50.6482 40.4499 50.0474C40.4361 49.945 40.3998 49.8469 40.3434 49.7604C40.287 49.6738 40.212 49.6008 40.1239 49.5469C38.6704 48.8883 37.1763 48.3152 35.7441 47.6147C32.8422 46.1954 29.9762 44.7029 27.0867 43.2579C24.5118 41.9702 21.9253 40.7058 19.1864 39.3534V39.3533ZM13.0683 36.1126C13.1006 36.8282 13.0967 37.5449 13.0565 38.2601C12.971 38.595 12.9573 38.9442 13.0165 39.2848C13.0757 39.6253 13.2065 39.9494 13.4001 40.2358C13.5937 40.5221 13.8458 40.7641 14.1397 40.946C14.4337 41.1278 14.7629 41.2452 15.1055 41.2905C15.1744 41.3197 15.241 41.354 15.3048 41.393C16.3073 41.7969 17.3106 42.1988 18.3531 42.617C18.429 41.4745 18.5146 40.433 18.5518 39.3897C18.5441 39.2838 18.5126 39.181 18.4595 39.089C18.4064 38.9971 18.3332 38.9183 18.2453 38.8588C16.5806 37.9544 14.9005 37.0787 13.0683 36.1127V36.1126Z" fill="#565656"/>
<path d="M25.6201 27.2416C25.6201 27.5431 25.6264 27.8448 25.619 28.1462C25.6565 28.3739 25.6474 28.6069 25.5922 28.8311C25.537 29.0553 25.437 29.2659 25.2981 29.4503C25.1592 29.6347 24.9844 29.789 24.7842 29.9039C24.584 30.0188 24.3625 30.0919 24.1333 30.1188C20.9065 31.0418 17.5972 31.6472 14.2525 31.9263C13.2807 31.9696 12.3079 32.0243 11.3358 32.0206C10.7593 31.9446 10.2247 31.6782 9.81686 31.2637C9.40906 30.8492 9.15145 30.3103 9.08493 29.7327C8.89936 28.4223 8.84893 27.0919 8.7625 25.7687C8.73083 25.465 8.8176 25.1607 9.00471 24.9194C9.19183 24.6781 9.46485 24.5183 9.76688 24.4733C10.7106 24.2453 11.6759 24.1079 12.6293 23.9188C15.9931 23.145 19.4201 22.6774 22.8683 22.5216C24.2425 22.5005 25.1019 23.0729 25.2749 24.1057C25.4486 25.142 25.5526 26.19 25.6871 27.2328L25.6201 27.2416ZM9.56021 28.3L9.54721 28.2876C9.54735 28.539 9.5663 28.7901 9.60391 29.0388C9.9803 30.7215 10.5065 31.3709 12.06 31.2782C12.936 31.2259 13.812 31.143 14.6885 31.1358C17.9808 31.1089 21.096 30.1112 24.2677 29.4226C24.362 29.4182 24.4544 29.3949 24.5396 29.3543C24.6248 29.3136 24.7009 29.2564 24.7637 29.1858C24.8264 29.1153 24.8744 29.0329 24.9048 28.9436C24.9352 28.8543 24.9475 28.7597 24.9408 28.6656C24.9357 28.2453 25.0643 27.8203 25.0361 27.404C24.9805 26.5812 24.8477 25.764 24.7646 24.9427C24.7669 24.7165 24.7244 24.492 24.6395 24.2822C24.5546 24.0725 24.429 23.8817 24.2699 23.7207C24.1109 23.5598 23.9215 23.4319 23.7128 23.3445C23.5041 23.2571 23.2801 23.2119 23.0539 23.2115C22.6292 23.1582 22.1999 23.1537 21.7742 23.1979C19.0942 23.5643 16.4164 23.9469 13.7408 24.3457C12.5065 24.5313 11.2754 24.7509 10.0569 25.0192C9.9087 25.06 9.77249 25.1358 9.65976 25.2403C9.54704 25.3448 9.46111 25.4749 9.40925 25.6196C9.39302 26.5118 9.49893 27.4063 9.56021 28.3Z" fill="#565656"/>
<path d="M31.4021 27.6422C30.6205 27.7879 29.8335 27.9092 29.0586 28.0845C27.6094 28.4122 26.7229 27.7692 26.7341 26.3027C26.7439 25.0259 26.8196 23.7494 26.8895 22.474C26.9004 22.2801 26.9875 22.0984 27.1318 21.9684C28.2415 21.215 29.4967 20.7025 30.8166 20.4638C32.1363 20.1893 33.4344 19.7928 34.7632 19.5854C36.6624 19.2891 38.5762 19.0509 40.4927 18.9124C40.7674 18.8487 41.0529 18.8479 41.3279 18.9099C41.603 18.972 41.8605 19.0953 42.0813 19.2707C42.302 19.4462 42.4803 19.6692 42.6028 19.9232C42.7254 20.1771 42.789 20.4555 42.7889 20.7374C42.9218 21.8856 42.9844 23.0408 42.9764 24.1966C43.0112 25.2078 42.3953 25.6163 41.4359 25.8551C39.1818 26.4162 36.9027 26.8807 34.6251 27.3419C33.572 27.5551 32.4989 27.6693 31.4349 27.8284L31.4021 27.6422ZM42.4568 22.894L42.4331 22.8863C42.4331 22.56 42.4449 22.2333 42.4311 21.9076C42.3635 20.3088 41.7096 19.5393 40.4013 19.5868C36.5178 19.7807 32.6779 20.495 28.9844 21.7105C28.5038 21.8485 28.0852 22.1472 27.7983 22.5568C27.5115 22.9663 27.3739 23.4619 27.4085 23.9607C27.3958 24.4865 27.3552 25.0113 27.2869 25.5328C27.1144 26.9438 27.646 27.6011 28.9776 27.4868C30.4516 27.3915 31.9198 27.2204 33.3762 26.9744C36.1218 26.45 38.8491 25.8269 41.5734 25.1987C41.7311 25.1426 41.8744 25.0523 41.9932 24.9344C42.112 24.8165 42.2033 24.6739 42.2607 24.5166C42.3749 23.9828 42.4405 23.4397 42.4568 22.894H42.4568Z" fill="#565656"/>
<path d="M38.3132 16.4231L38.9518 15.5772C39.2649 15.9218 39.4843 16.3411 39.5889 16.7949C39.6935 17.2486 39.6797 17.7216 39.549 18.1686C39.061 18.0258 38.5213 17.6934 38.1314 18.346C38.0224 18.3624 37.9112 18.3376 37.8194 18.2766C37.7982 18.2088 37.7915 18.1372 37.7998 18.0665C37.8081 17.9959 37.8313 17.9278 37.8677 17.8667C38.4439 17.4047 38.0207 17.0504 37.7702 16.6702C37.5969 16.3517 37.3955 16.0493 37.1686 15.7665C36.9466 15.5873 36.6966 15.4458 36.4287 15.3475C36.3095 15.3285 36.1943 15.2897 36.0879 15.2325C35.7426 14.7532 35.4227 14.2554 35.1091 13.7859L37.4183 13.6191C37.4136 14.1556 37.4621 14.6912 37.5628 15.2182C37.7579 15.6516 38.0103 16.0568 38.3132 16.4231V16.4231Z" fill="#565656"/>
<path d="M43.9954 22.6471C43.806 22.5314 43.6452 22.3744 43.525 22.1879C43.2666 21.4592 43.0895 20.7042 42.9968 19.9366C42.858 17.6578 42.8103 15.3733 42.7377 13.0906C42.7506 12.8816 42.7838 12.6744 42.8369 12.4719L43.0993 12.4158C43.243 12.6827 43.3469 12.9692 43.4078 13.2661C43.5307 15.5963 43.5917 17.9301 43.739 20.2585C43.8367 21.0174 43.9877 21.7684 44.1911 22.5061L43.9954 22.6471Z" fill="#565656"/>
<path d="M7.57238 17.842C7.11104 17.6869 6.63246 17.5889 6.1473 17.5501C5.74769 17.5674 5.6833 18.4276 5.0573 18.152L5.47357 15.928C5.19803 15.7106 4.93715 15.4753 4.69265 15.2235C4.66391 15.1498 4.65229 15.0705 4.65869 14.9917C4.66509 14.9129 4.68933 14.8365 4.72957 14.7685C4.85627 14.7196 4.99661 14.7194 5.1234 14.7681C5.24046 14.814 5.34545 14.8861 5.43032 14.9788C6.03832 15.556 6.60554 15.7389 7.14323 14.8783C7.29759 14.8005 7.46991 14.7651 7.64246 14.7759C7.68992 14.8998 7.70613 15.0334 7.68967 15.165C6.69966 15.9886 7.22697 16.8829 7.57238 17.842Z" fill="#565656"/>
<path d="M19.5501 10.2563L20.7184 11.3295L21.6962 10.4489L21.8631 10.5081L21.4604 12.6968L21.7425 13.4333C21.508 13.446 21.2728 13.4326 21.0413 13.3933C20.831 13.2655 20.5861 13.2065 20.3407 13.2246C20.0953 13.2426 19.8617 13.3368 19.6723 13.4939C19.5198 13.5353 19.359 13.5353 19.2065 13.4938C19.1876 13.337 19.2105 13.1779 19.273 13.0327C19.4432 12.9227 19.5875 12.7772 19.6962 12.6061C19.8048 12.435 19.8751 12.2425 19.9023 12.0416C19.9294 11.8408 19.9128 11.6365 19.8535 11.4427C19.7942 11.2489 19.6936 11.0703 19.5587 10.919C19.518 10.7002 19.5151 10.4761 19.5501 10.2563V10.2563Z" fill="#565656"/>
<path d="M14.565 10.7473C14.7022 10.876 14.8355 11.0093 14.9776 11.1325C15.0362 11.2053 15.1095 11.2649 15.1927 11.3075C15.2758 11.3501 15.3671 11.3748 15.4604 11.3798C15.5537 11.3848 15.647 11.3702 15.7343 11.3368C15.8216 11.3033 15.9009 11.2519 15.967 11.1859C16.0912 11.1414 16.2246 11.1289 16.355 11.1495C16.3871 11.2557 16.3925 11.3683 16.3707 11.4771C15.6527 11.9946 16.3883 12.8033 15.9779 13.3898C15.899 13.5911 15.8619 13.8064 15.8689 14.0225C15.6559 13.8956 15.4402 13.7728 15.2312 13.6398C15.156 13.5847 15.0854 13.5239 15.0199 13.4577L13.8427 13.8931L13.6459 13.6718C14.6201 12.8858 14.5315 11.8535 14.3421 10.7978L14.565 10.7473Z" fill="#565656"/>
<path d="M10.5834 17.7779C10.6352 17.6185 10.7045 17.4654 10.7902 17.3214C10.9469 17.0412 11.0231 16.7231 11.0105 16.4023C10.9978 16.0815 10.8968 15.7705 10.7186 15.5035C10.6153 15.2085 10.4923 14.9203 10.3783 14.629L10.548 14.5432C10.9155 14.9108 11.3525 15.2016 11.8334 15.3988C12.334 15.3337 12.8305 15.24 13.3204 15.1183C13.2518 15.2611 13.168 15.3962 13.0704 15.5211C12.9688 15.6173 12.888 15.7333 12.8328 15.8619C12.7776 15.9905 12.7493 16.1291 12.7495 16.269C12.7498 16.409 12.7786 16.5474 12.8342 16.6758C12.8898 16.8042 12.971 16.9199 13.0729 17.0159C13.176 17.1679 13.2566 17.3341 13.312 17.5093C13.1326 17.5461 12.9466 17.5351 12.7728 17.4774C12.1653 16.6399 11.737 17.2835 11.2614 17.6227C11.0943 17.7419 10.9064 17.8318 10.7279 17.9351L10.5834 17.7779Z" fill="#565656"/>
<path d="M8.39249 20.3384V23.3104C8.26335 23.2929 8.04508 23.2662 7.8278 23.2331C7.4728 23.1789 7.10187 22.9921 6.8598 23.4802C6.70048 23.552 6.52539 23.5816 6.35132 23.5663C6.31349 23.4188 6.31426 23.2641 6.35355 23.1171C6.5076 22.881 6.58331 22.6024 6.5699 22.3208C6.5565 22.0392 6.45467 21.7691 6.27889 21.5487C6.22181 21.3655 6.18739 21.176 6.17639 20.9845C6.35731 20.9819 6.53645 21.0205 6.7003 21.0973C7.13346 21.484 7.3973 21.2826 7.68176 20.9126C7.89988 20.699 8.13787 20.5068 8.39249 20.3384V20.3384Z" fill="#565656"/>
<path d="M16.478 14.4695C16.6914 14.5833 16.8871 14.7275 17.059 14.8976C17.1329 15.031 17.2381 15.1444 17.3656 15.2279C17.4931 15.3115 17.6391 15.3628 17.7908 15.3773C17.9426 15.3919 18.0956 15.3692 18.2367 15.3114C18.3777 15.2535 18.5026 15.1622 18.6004 15.0453C18.835 14.8733 19.0794 14.715 19.3324 14.5713C19.2597 15.1444 19.1536 15.7128 19.0146 16.2736C18.9749 16.4007 18.9063 16.5168 18.8143 16.6131C18.7224 16.7094 18.6094 16.7831 18.4843 16.8287C18.1346 16.8438 17.7966 16.9588 17.5102 17.1601C17.2239 17.3615 17.0013 17.6407 16.8688 17.9647L16.6082 17.8641C16.5891 17.6243 16.6312 17.3836 16.7307 17.1646C16.8693 17.0625 16.9807 16.9279 17.0551 16.7726C17.1296 16.6173 17.1647 16.4462 17.1575 16.2742C17.1502 16.1021 17.1008 15.9345 17.0136 15.7861C16.9264 15.6376 16.8041 15.5128 16.6574 15.4227C16.4911 15.1934 16.3582 14.9417 16.2627 14.675L16.478 14.4695Z" fill="#565656"/>
<path d="M29.1618 13.7439C29.8168 15.0751 30.6454 14.4602 31.4906 13.9807C31.3031 14.428 31.2475 14.9196 31.3303 15.3974C31.4132 15.8753 31.631 16.3195 31.958 16.6776L31.8586 16.8467C31.6423 16.8064 31.4369 16.7213 31.2555 16.5967C31.1677 16.4756 31.0524 16.377 30.9191 16.309C30.7858 16.241 30.6382 16.2056 30.4886 16.2057C30.339 16.2057 30.1915 16.2413 30.0582 16.3094C29.925 16.3775 29.8098 16.4762 29.7221 16.5974C29.5481 16.6811 29.3586 16.7279 29.1657 16.7349C29.1733 16.5359 29.2202 16.3404 29.3036 16.1596C29.4079 16.0614 29.4898 15.9418 29.5434 15.809C29.5971 15.6762 29.6214 15.5334 29.6146 15.3903C29.6077 15.2472 29.5699 15.1073 29.5039 14.9803C29.4378 14.8532 29.3449 14.7419 29.2317 14.6542C29.1158 14.458 29.0365 14.2423 28.9979 14.0176L29.1618 13.7439Z" fill="#565656"/>
<path d="M16.8767 19.2681C17.7153 20.1447 18.5419 19.4497 19.3389 19.3723L18.505 21.3956C17.9925 21.6527 17.5611 21.8805 17.1184 22.0837C17.0587 22.1156 16.9929 22.1346 16.9254 22.1394C16.8578 22.1442 16.7901 22.1346 16.7265 22.1114C16.6807 22.0616 16.6472 22.0018 16.6286 21.9368C16.6099 21.8718 16.6067 21.8034 16.6191 21.7369C17.3523 21.1003 16.9981 20.3999 16.776 19.699C16.7848 19.5507 16.8188 19.4049 16.8767 19.2681V19.2681Z" fill="#565656"/>
<path d="M23.6195 7.83283L24.4107 7.21411C24.4579 7.89834 24.4964 8.43211 24.5287 8.96623C24.5314 9.01108 24.47 9.06259 24.4775 9.10395C24.5977 9.76937 24.7546 10.4503 23.7283 9.68907C23.5085 9.77343 23.3019 9.88901 23.115 10.0322C22.9445 10.0911 22.7686 10.1333 22.59 10.1582C22.5554 9.99554 22.5398 9.82942 22.5435 9.66318C22.6095 9.17556 22.7078 8.69243 22.7843 8.20609C22.8223 7.96465 22.8401 7.72004 22.867 7.47685L23.6195 7.83283Z" fill="#565656"/>
<path d="M28.2278 7.4967L28.4948 10.0486L28.1638 10.2639C28.1301 10.0712 28.0453 9.89118 27.9182 9.74254C27.7066 9.69582 27.4857 9.71834 27.2879 9.80675C27.0595 9.89564 26.8378 10.0009 26.6246 10.1216C26.6236 9.91154 26.6223 9.70145 26.6218 9.49136C26.6206 8.98481 26.6196 8.47826 26.6188 7.9717C26.609 7.74656 26.6381 7.52142 26.7047 7.30615C26.7796 7.43435 26.883 7.54357 27.0069 7.62534C27.1308 7.70711 27.2719 7.75923 27.4192 7.77766C27.5665 7.79609 27.7161 7.78033 27.8563 7.7316C27.9965 7.68288 28.1236 7.6025 28.2278 7.4967V7.4967Z" fill="#565656"/>
<path d="M30.4747 17.4757C31.284 18.1351 32.0001 17.4483 32.7006 17.2551L32.5252 19.4828C32.1228 19.4401 31.7181 19.4244 31.3136 19.4357C31.0589 19.5056 30.812 19.6014 30.5769 19.7217C30.4444 19.7524 30.3059 19.7435 30.1785 19.6962C30.1532 19.66 30.136 19.6188 30.1281 19.5753C30.1202 19.5318 30.1218 19.4871 30.1328 19.4443C30.8522 18.9269 30.5528 18.2799 30.3814 17.6454C30.4 17.5828 30.4318 17.5249 30.4747 17.4757V17.4757Z" fill="#565656"/>
<path d="M31.131 12.9108C31.2806 12.7804 31.4019 12.6207 31.4871 12.4415C31.5724 12.2623 31.6199 12.0675 31.6267 11.8691C31.6335 11.6708 31.5994 11.4732 31.5265 11.2886C31.4537 11.104 31.3436 10.9364 31.2032 10.7961C31.4114 10.7607 31.6253 10.78 31.8238 10.8521C31.8878 10.9372 31.9709 11.006 32.0665 11.0529C32.1621 11.0998 32.2675 11.1234 32.3739 11.1218C32.4804 11.1202 32.585 11.0935 32.6791 11.0438C32.7733 10.9942 32.8544 10.9229 32.9158 10.8359C33.0288 10.7721 33.157 10.7402 33.2868 10.7434L33.7108 13.1084C33.3083 12.8939 32.8741 12.7452 32.4247 12.6678C32.0191 12.7454 31.6304 12.8941 31.2765 13.1069L31.131 12.9108Z" fill="#565656"/>
<path d="M13.5787 19.8108C13.3372 20.858 13.1432 21.6998 12.919 22.6721C12.6209 22.666 11.9987 22.1562 11.6826 23.0053L11.496 22.9263V20.2777C12.2542 21.1519 12.8517 20.3984 13.5787 19.8108Z" fill="#565656"/>
<path d="M26.9348 17.0938C25.7007 16.4925 24.4619 15.9769 24.3151 14.1389C25.2114 15.2129 25.9496 14.7224 26.7647 14.2128C26.5493 14.6688 26.452 15.1716 26.4818 15.6751C26.5115 16.1785 26.6673 16.6663 26.9348 17.0938V17.0938Z" fill="#565656"/>
<path d="M26.9615 10.9652C26.9861 11.3638 26.9805 11.7637 26.9447 12.1615C26.9265 12.2825 26.8839 12.3984 26.8193 12.5023C26.7548 12.6062 26.6698 12.6958 26.5695 12.7658C25.9748 13.0661 25.3413 13.2896 24.7228 13.5428L24.5522 13.3671C24.8748 13.033 25.1308 12.6407 25.3067 12.2109C25.275 11.7381 25.1492 11.2763 24.9365 10.8528C25.6575 10.9533 26.3383 11.8881 26.9615 10.9652Z" fill="#565656"/>
<path d="M26.2704 20.2733L26.6861 20.7776C25.7466 21.0821 24.6793 20.152 24.0762 18.578C24.1052 18.5413 24.1388 18.5083 24.1761 18.48C24.4591 18.6875 24.8006 18.7999 25.1516 18.8011C25.5025 18.8023 25.8448 18.6921 26.1292 18.4865C26.1849 18.4931 26.2384 18.512 26.2859 18.5419C26.3333 18.5718 26.3735 18.6118 26.4035 18.6592C26.4266 19.1934 26.4165 19.729 26.4165 20.2641L26.2704 20.2733Z" fill="#565656"/>
<path d="M19.6745 17.9148L18.8237 16.8453L19.0444 16.6655C19.2792 16.7355 19.4875 16.8748 19.6419 17.0651C19.7963 17.2554 19.8896 17.4879 19.9097 17.7321L19.6745 17.9148Z" fill="#565656"/>
<path d="M9.56016 28.3C9.64516 27.8693 9.72209 27.437 9.8173 27.0086C9.85881 26.5913 9.96929 26.1837 10.1442 25.8025C10.4248 25.4739 10.7514 25.1877 11.114 24.9527C11.2291 25.1184 11.2977 25.312 11.3124 25.5132C11.0924 25.8773 10.8537 26.2297 10.5975 26.5692C10.3264 26.962 10.1343 27.4038 10.0316 27.8698L12.8469 24.8274L13.0639 25.0265L11.1481 27.9001L11.2719 28.0186L11.8587 27.623L12.0246 27.792L10.966 28.8635L10.6963 28.7395L10.8609 27.7883L9.54712 28.2876L9.56016 28.3Z" fill="#565656"/>
<path d="M13.5203 29.5761C13.5118 29.374 13.5348 29.1718 13.5886 28.9769C13.7716 28.5677 14.0515 28.199 14.2113 27.783C14.3569 27.404 15.0476 27.1498 14.5318 26.5871C14.5516 26.5176 14.5902 26.455 14.6434 26.4061C15.2463 25.8256 15.8512 25.2472 16.4582 24.6709L16.6324 24.8178C15.613 26.3763 14.5936 27.935 13.5203 29.5761Z" fill="#565656"/>
<path d="M20.4934 24.343C19.7723 25.371 19.1295 26.2829 18.4926 27.1988C18.3222 27.4153 18.1778 27.651 18.0624 27.9012C17.9708 28.1375 17.5132 28.3852 18.0101 28.6701L17.4783 29.2624C17.3694 28.0378 19.3987 24.7982 20.4934 24.343Z" fill="#565656"/>
<path d="M13.8318 26.0591L12.5139 28.5121L12.5818 28.5653L13.2218 27.9994L13.3913 28.1659L12.1707 29.4512L11.8328 29.2151C12.417 28.1201 13.0012 27.0251 13.5854 25.9302L13.8318 26.0591Z" fill="#565656"/>
<path d="M21.5265 24.6687L19.3409 28.2842L19.0927 28.1363L21.2654 24.4963L21.5265 24.6687Z" fill="#565656"/>
<path d="M16.093 27.6797L17.8471 25.106L18.0956 25.2697L16.3409 27.8451L16.093 27.6797Z" fill="#565656"/>
<path d="M37.7848 21.5318C37.2832 22.1199 36.767 22.6964 36.2851 23.3002C35.9765 23.6922 35.6949 24.1047 35.4423 24.5349C35.3756 24.7094 35.3473 24.8962 35.3594 25.0826C35.373 25.2272 35.3715 25.3728 35.3549 25.5171C35.3063 25.5464 35.2516 25.5643 35.1951 25.5693C35.1385 25.5743 35.0816 25.5663 35.0286 25.546C34.8922 25.4423 34.8018 25.2893 34.7766 25.1198C34.7944 24.8705 34.879 24.6306 35.0216 24.4254C35.743 23.4737 36.4876 22.5394 37.239 21.6112C37.3609 21.5126 37.5001 21.4377 37.6496 21.3904L37.7848 21.5318Z" fill="#565656"/>
<path d="M39.5304 21.5457C39.0913 22.083 38.7147 22.5414 38.3409 23.0021C37.921 23.5196 37.4961 24.0334 37.0879 24.56C36.8304 24.8922 36.8106 25.1674 37.5659 25.1449L37.3781 25.3356C37.2151 25.4468 37.0272 25.5162 36.831 25.5375C36.754 25.4857 36.6895 25.4173 36.6425 25.3373C36.5954 25.2572 36.567 25.1676 36.5592 25.0751C36.4757 24.3533 38.4322 21.6501 39.5304 21.5457Z" fill="#565656"/>
<path d="M32.7433 25.8682C32.2939 24.9151 34.3797 21.8387 36.0284 21.5505C35.315 22.1744 34.6462 22.8473 34.0267 23.5645C33.5435 24.3002 33.1146 25.0701 32.7433 25.8682V25.8682Z" fill="#565656"/>
<path d="M32.3272 21.8027C31.4006 23.1567 30.3088 24.4086 30.1145 26.3602C29.9511 26.171 29.8324 25.9475 29.7673 25.7061C30.1201 24.1381 31.0297 22.7512 32.3272 21.8027V21.8027Z" fill="#565656"/>
<path d="M28.2475 25.5556C27.6773 24.8916 28.3253 23.1944 29.6829 22.1934C29.2075 23.3069 28.7321 24.4205 28.2475 25.5556Z" fill="#565656"/>
<path d="M31.3283 25.9317C31.2091 24.8236 32.5293 22.688 34.0628 21.7202C34.0089 21.9114 33.9297 22.0944 33.8272 22.2645C33.3597 22.8476 32.82 23.378 32.3978 23.9905C32.0079 24.6186 31.6509 25.2665 31.3283 25.9317V25.9317Z" fill="#565656"/>
<path d="M40.5913 22.7272C40.4559 22.9059 40.311 23.0781 40.1872 23.2645C39.8949 23.7043 39.6373 24.1698 39.3157 24.5864C39.1274 24.7943 38.8705 24.9274 38.592 24.9615C38.7166 24.4607 38.9395 23.9896 39.2477 23.5756C39.5559 23.1616 39.9433 22.813 40.3874 22.55L40.5913 22.7272Z" fill="#565656"/>
<path d="M30.4525 23.5688C30.3359 23.824 30.1977 24.0719 30.1071 24.336C29.9181 24.8869 29.766 25.4505 29.5719 25.9994C29.4929 26.1332 29.3907 26.2519 29.27 26.3498C29.1823 26.2262 29.1287 26.0817 29.1144 25.9307C29.431 25.0897 29.7814 24.2614 30.1215 23.4292L30.4525 23.5688Z" fill="#565656"/>
</svg>
