<svg width="94" height="70" viewBox="0 0 94 70" fill="none" xmlns="http://www.w3.org/2000/svg">
<path d="M93.3419 56.7992C93.2136 55.163 92.9337 53.5315 92.6544 51.907C92.5792 51.7765 92.4727 51.6668 92.3445 51.5877C92.2164 51.5086 92.0706 51.4626 91.9202 51.4538C91.8019 51.5052 91.672 51.5242 91.5439 51.5089C91.4158 51.4935 91.2941 51.4444 91.1912 51.3665C91.0883 51.2886 91.008 51.1848 90.9585 51.0656C90.909 50.9465 90.8921 50.8163 90.9095 50.6884C90.8836 50.3574 90.8088 50.032 90.6875 49.7229C89.8696 47.9242 88.8572 46.2205 87.6686 44.6421C86.4173 42.814 85.2239 40.9461 83.9297 39.1483C82.8072 37.5099 81.5823 35.944 80.2623 34.46C79.6479 33.9174 79.1502 33.2556 78.7993 32.5149C78.4484 31.7742 78.2517 30.9699 78.2209 30.1508C78.2233 27.4667 78.0214 24.7748 77.8835 22.0866C77.8447 21.3283 77.6853 20.5716 77.6535 19.8137C77.6049 18.6502 77.6273 17.4864 77.6042 16.3225C77.5739 14.8027 77.5098 13.2821 77.4959 11.7628C77.4851 10.5711 77.5929 9.37959 77.5309 8.19002C77.4564 6.75783 77.1442 6.55031 75.7184 6.55165C74.4985 6.57877 73.278 6.54272 72.0618 6.44365C70.1651 6.24822 68.2785 5.91417 66.3835 5.68535C64.3225 5.44291 62.3069 4.9057 60.3985 4.0902C58.4209 3.24059 56.5039 2.23949 54.5228 1.39965C51.9059 0.435597 49.1011 0.091585 46.3288 0.394648C44.4939 0.533053 42.6761 0.843292 40.8991 1.32129C38.2228 1.98572 35.5656 2.73779 32.9495 3.59046C31.0774 4.20057 29.2872 5.03919 27.4584 5.77094C23.9776 7.09066 20.3245 7.90101 16.6121 8.17694C14.6315 8.36279 14.622 8.32849 14.599 10.3763C14.5845 11.6673 14.6049 12.9601 14.5792 14.2504C14.55 15.7143 14.4712 17.1754 14.4426 18.6394C14.4048 20.5899 14.3828 22.5413 14.3768 24.4935C14.3732 26.6741 14.4067 28.856 14.4053 31.0366C14.4145 31.3004 14.3473 31.5613 14.2119 31.788C13.3794 32.8367 12.6025 33.9283 11.8843 35.0584C10.6746 37.0133 9.36664 38.9058 7.96544 40.7284C6.8488 42.3144 5.68244 43.8676 4.63481 45.4993C3.73448 46.9016 2.8192 48.3376 3.39592 50.2147C3.56743 50.7729 3.12492 50.8449 2.70403 50.7483C2.47148 50.6439 2.25425 50.5084 2.05834 50.3454C1.70495 50.8836 1.39849 51.4512 1.14234 52.042C0.533916 54.1121 0.329867 56.2801 0.541337 58.4275C0.828211 60.8752 0.852171 63.3466 0.612807 65.7995C0.488177 66.5945 0.506427 67.4164 0.452527 68.2253C0.43383 68.3395 0.443079 68.4566 0.479484 68.5665C0.515889 68.6764 0.578367 68.7758 0.661574 68.8563C0.744782 68.9368 0.846244 68.996 0.957286 69.0287C1.06833 69.0614 1.18564 69.0668 1.29921 69.0443C1.97627 69.0464 2.65102 68.9593 3.32771 68.9723C3.95871 68.9844 4.11165 68.7427 4.13008 68.1116C4.1772 66.4985 4.32698 64.8908 4.48842 63.288C4.53413 63.1688 4.61072 63.064 4.71033 62.9842C4.80994 62.9044 4.92899 62.8526 5.05525 62.834C6.36847 62.9435 7.68862 62.7321 8.90199 62.218C10.3649 61.62 11.8778 61.1527 13.4231 60.8216C15.4953 60.4969 17.5915 60.3499 19.6888 60.3823C21.419 60.3315 23.1454 60.5706 24.7966 61.0898C26.5769 61.7659 28.4074 62.3015 30.2714 62.6916C33.608 63.3641 36.9985 63.7342 40.4017 63.7971C42.4141 63.7925 44.3963 63.3068 46.1828 62.3804C46.4776 62.2145 46.809 62.1244 47.1473 62.1183C47.4855 62.1121 47.82 62.1901 48.1206 62.3452C48.945 62.7438 49.8266 63.0114 50.7334 63.1383C52.3641 63.3417 54.0097 63.3787 55.649 63.4884C58.5245 63.5835 61.399 63.2706 64.1867 62.5589C66.9369 61.9608 69.6017 61.0025 72.3669 60.4888C75.5017 59.9064 78.6805 59.4442 81.8674 60.8886C84.0301 61.8687 86.3349 62.4614 88.3939 63.7673C88.7386 63.9339 89.0214 64.2057 89.2014 64.5435C89.3815 64.8813 89.4494 65.2676 89.3955 65.6466C89.3542 66.7605 89.3963 67.8801 89.3745 68.9956C89.3657 69.4442 89.523 69.7014 89.9833 69.6668C90.6007 69.6205 91.2115 69.5137 91.8291 69.4704C92.9356 69.3928 93.16 69.1812 93.1538 68.1245C93.0493 66.0381 93.1352 63.9466 93.4106 61.8758C93.5973 60.1872 93.5743 58.482 93.3419 56.7992V56.7992ZM76.8199 19.809C76.9792 21.9991 77.1384 24.1892 77.2977 26.3793L77.1575 26.3804L76.6798 19.8116L76.8199 19.809ZM76.6548 8.97657L76.6702 11.8559L76.5658 11.8568L76.3566 8.97874L76.6548 8.97657ZM14.5862 32.4526C14.81 32.2338 14.976 31.963 15.0694 31.6643C15.1627 31.3656 15.1805 31.0484 15.121 30.7412C14.9111 29.7413 14.9909 28.7023 15.351 27.7461C15.3185 27.3795 15.2354 27.0191 15.1041 26.6753C15.0632 25.102 15.0497 23.5289 15.0636 21.9561C15.0763 20.2572 15.1284 18.56 15.16 16.8619C15.2019 14.6118 15.2516 12.3621 15.2747 10.1112C15.25 9.95934 15.262 9.80377 15.3097 9.65749C15.3574 9.51121 15.4393 9.37845 15.5487 9.2703C15.6582 9.16214 15.7919 9.08172 15.9387 9.03575C16.0855 8.98978 16.2412 8.97959 16.3928 9.00604C17.5712 8.90318 18.7414 8.72074 19.8952 8.45997C21.6893 8.10664 23.4916 7.77033 25.2532 7.30213C26.3616 6.99445 27.4354 6.57341 28.4575 6.04566C29.4468 5.41378 30.5823 5.04768 31.7544 4.98273C32.0379 4.90326 32.3031 4.76884 32.5349 4.5871C34.9044 3.57204 37.3676 2.79123 39.8892 2.2558C42.543 1.50328 45.2873 1.11739 48.0458 1.10889C50.1917 1.06372 52.327 1.4229 54.34 2.16767C55.8267 2.79822 57.3035 3.46583 58.7409 4.20618C61.1107 5.37126 63.6669 6.11052 66.2927 6.39018C67.955 6.60557 69.6039 6.9597 71.2657 7.18388C72.0455 7.28904 72.8417 7.21751 73.6298 7.25938C74.0195 7.29868 74.4069 7.35842 74.7904 7.43838L74.7562 7.6437C73.5909 7.63088 72.4241 7.59023 71.2606 7.61086C68.548 7.61682 65.8506 7.20789 63.2617 6.39827C61.6797 5.93214 60.1852 5.14427 58.626 4.5771C55.4874 3.26109 52.1996 2.33355 48.8359 1.8151C47.7441 1.73549 46.647 1.76594 45.5613 1.90598C42.8746 2.11899 40.2311 2.70786 37.708 3.65537C35.1287 4.67801 32.6641 5.96756 30.1058 7.04325C28.2695 7.81534 26.3549 8.41172 24.4873 9.116C22.5647 9.73445 20.5515 10.0245 18.5325 9.97409C18.0046 9.97469 17.4772 10.0086 16.9536 10.0756C16.861 10.0768 16.7697 10.0964 16.6848 10.1333C16.5999 10.1701 16.5232 10.2234 16.4591 10.2902C16.395 10.357 16.3449 10.4358 16.3116 10.5222C16.2783 10.6085 16.2625 10.7006 16.2651 10.7931C16.2221 12.4608 16.0683 14.1253 16.1 15.7933C16.1636 19.14 16.3325 22.4883 16.4285 25.8358C16.4419 26.3057 16.2208 26.7732 16.2268 27.2443C16.2389 28.1922 16.3217 29.1425 16.4108 30.0898C16.4561 30.1543 16.5146 30.2084 16.5823 30.2486C16.65 30.2888 16.7255 30.3142 16.8038 30.323C16.9778 30.2095 17.1025 30.0345 17.1529 29.8329C17.1998 29.2012 17.2095 28.5672 17.1822 27.9344C17.0889 25.751 16.9336 23.5673 16.8845 21.3847C16.8596 20.2749 17.0375 19.1689 17.0723 18.0578C17.0903 17.4853 16.9591 16.904 16.9594 16.3289C16.9601 14.9147 16.9943 13.5017 17.0232 12.0887C17.0299 11.7624 17.0695 11.438 17.0978 11.0616C17.8914 10.8432 18.704 10.7009 19.5246 10.6368C21.4853 10.5634 23.4256 10.2108 25.2867 9.58965C27.3572 8.93617 29.3762 8.1297 31.3271 7.17691C34.9021 5.58823 38.3997 3.7728 42.3363 3.06003C44.9184 2.50674 47.5833 2.45847 50.1837 2.91788C53.2684 3.66322 56.3026 4.60378 59.268 5.73388C61.615 6.52966 64.016 7.14947 66.3663 7.93554C68.904 8.78423 71.4677 8.39263 74.0202 8.49798C75.2563 8.54907 75.533 8.73333 75.5962 9.93835C75.8458 14.6905 76.1151 19.4426 76.3105 24.1952C76.3866 26.0472 76.2807 27.9 76.2712 29.753C76.2691 30.1512 76.3247 30.5519 76.3622 31.0668C74.9876 31.1656 73.6293 31.2789 72.267 31.342C72.1529 31.328 72.044 31.2864 71.9497 31.2206C71.8555 31.1548 71.7788 31.0669 71.7264 30.9647C71.5287 30.0742 71.3907 29.1715 71.3134 28.2627C71.2382 27.1216 71.277 25.9771 71.2617 24.8341C71.2403 23.2333 71.2023 21.6321 71.1938 20.0317C71.1863 18.598 70.9125 18.2574 69.4842 18.1763C68.7223 18.133 67.9585 18.221 67.1947 18.2111C63.7919 18.1673 60.3884 18.0997 56.9857 18.0619C55.7221 18.0479 54.4604 18.1099 53.1969 18.1043C51.5492 18.0969 49.901 18.0702 48.2522 18.0242C48.0862 17.9853 47.9135 17.9848 47.7473 18.0229C47.5811 18.061 47.4258 18.1366 47.2933 18.2439C47.1608 18.3513 47.0545 18.4875 46.9828 18.6421C46.911 18.7968 46.8755 18.9658 46.8791 19.1363C46.8629 20.4279 46.9551 21.7255 47.0253 23.02C47.3169 25.8742 47.2688 28.7529 46.8822 31.5957C46.856 31.7497 46.7786 31.8903 46.6625 31.9947C45.1436 27.2063 45.4347 22.4692 46.5376 17.6183C45.7439 17.6483 44.9274 17.6911 44.1095 17.7083C38.266 17.8308 32.423 17.9632 26.578 18.0568C25.0596 18.0811 23.5342 17.9573 22.0131 17.9434C21.2155 17.9362 21.1299 18.2209 21.3397 18.989C21.5818 19.8994 21.7483 20.8282 21.8375 21.766C22.1014 24.369 22.319 26.9753 22.5381 29.5811C22.5764 29.932 22.5485 30.2869 22.4561 30.6276C22.4167 30.7405 22.3501 30.8421 22.2622 30.9233C22.1744 31.0044 22.0679 31.0628 21.9522 31.0932C20.4088 31.0495 18.8651 30.9479 17.3214 30.8719C17.1006 30.8456 16.8768 30.8636 16.6631 30.9248C16.6002 30.9715 16.5485 31.0315 16.5116 31.1005C16.4747 31.1695 16.4535 31.2459 16.4496 31.324C16.4878 31.3797 16.5371 31.4268 16.5943 31.4626C16.6516 31.4983 16.7156 31.5218 16.7823 31.5317C18.9353 31.6671 21.089 31.777 23.2418 31.9158C24.3791 31.9891 25.5145 32.1248 26.6518 32.1992C27.5133 32.2555 28.3765 32.2605 29.2389 32.2859C32.7674 32.39 36.2958 32.4935 39.8243 32.5965C41.6514 32.6497 43.4786 32.6968 45.3057 32.7532C47.6155 32.8244 49.9272 32.9577 52.2347 32.9603C54.1618 32.9623 56.0837 32.8115 58.0084 32.7342C60.1604 32.6479 62.3158 32.5993 64.4648 32.4789C68.3081 32.2634 72.1478 32.0084 75.9886 31.7654C76.8803 31.709 77.0551 31.47 77.0516 30.3496C77.051 30.1495 77.0245 29.9485 77.0135 29.7982C77.5071 31.141 78.0166 32.5272 78.5474 33.9712C77.9635 34.0803 77.3732 34.1517 76.7801 34.1852C74.0101 34.1926 71.2363 34.1143 68.468 34.153C65.3724 34.1963 62.2817 34.3366 59.1882 34.4264C56.4998 34.5044 53.8114 34.5843 51.1216 34.6384C48.3827 34.6936 45.6428 34.7315 42.9021 34.7522C40.2086 34.7708 37.5143 34.7914 34.8192 34.7452C30.7825 34.6762 26.7447 34.5659 22.7073 34.4422C19.5891 34.3467 16.4706 34.2039 13.2253 34.0771C13.7076 33.4945 14.1109 32.9383 14.5862 32.4526L14.5862 32.4526ZM47.682 22.4335C47.5952 21.2272 47.5854 20.018 47.5385 18.7526C49.3272 18.7963 50.9385 18.8252 52.5499 18.8788C53.5379 18.9117 54.5278 19.0306 55.5135 19.0267C58.0052 19.0167 60.4943 18.9383 62.986 18.9267C65.1626 18.9165 67.3414 18.9636 69.519 18.9771C69.6505 18.9467 69.7874 18.949 69.9177 18.9839C70.0481 19.0188 70.1679 19.0852 70.2666 19.1772C70.3653 19.2692 70.4399 19.384 70.4838 19.5116C70.5277 19.6392 70.5397 19.7756 70.5185 19.9089C70.5057 22.6506 70.5097 25.3935 70.5567 28.1367C70.5831 29.0019 70.6838 29.8631 70.8576 30.711C70.9676 31.2829 70.9213 31.5554 70.26 31.5859C67.1448 31.7296 64.034 31.9298 60.9186 32.0705C57.779 32.2122 54.6363 32.3187 51.4933 32.4164C50.5051 32.4471 49.5116 32.4217 48.5207 32.3808C47.6967 32.3468 47.4019 32.0479 47.5962 31.284C48.3398 28.3588 47.8951 25.395 47.682 22.4335V22.4335ZM21.9985 18.6473C22.1442 18.6418 22.2786 18.636 22.4188 18.6303C22.4969 18.5959 22.5814 18.5787 22.6668 18.5798C22.7235 18.5827 22.7795 18.5941 22.8328 18.6136C23.6809 18.5777 24.4419 18.5431 25.2028 18.5297C26.9984 18.498 28.7954 18.4912 30.5916 18.4692C34.6046 18.4198 38.6173 18.3629 42.6306 18.3208C43.3568 18.3132 44.0856 18.3638 44.8132 18.3828C45.3421 18.3966 45.4989 18.614 45.4337 19.1637C45.208 21.0648 44.9802 22.9694 44.8707 24.8834C44.7408 27.1258 45.0034 29.3737 45.6466 31.5258C45.6875 31.7096 45.7158 31.8959 45.7314 32.0835C43.9848 32.0143 42.2439 31.9453 40.5087 31.8763C39.4962 31.8355 38.4835 31.7776 37.4711 31.7508C34.1741 31.6636 30.8772 31.6072 27.5803 31.4964C26.2648 31.4523 24.9477 31.3154 23.6354 31.1687C23.5257 31.1171 23.4301 31.0399 23.3566 30.9435C23.2831 30.8472 23.2339 30.7346 23.2131 30.6152C23.1456 29.4244 23.1916 28.2297 23.0925 27.0414C22.9543 25.3825 22.7091 23.729 22.5351 22.0714C22.4533 21.2921 22.4089 20.4984 22.3518 19.6528C22.2855 19.6032 22.2299 19.5407 22.1882 19.4692C22.1465 19.3977 22.1195 19.3186 22.1088 19.2365C22.0981 19.1545 22.1039 19.0711 22.1259 18.9913C22.1479 18.9115 22.1856 18.8369 22.2369 18.7718L21.9985 18.6473ZM4.42346 47.2958C5.63092 45.4585 6.87182 43.6436 8.10083 41.8208C8.83953 40.7252 9.58036 39.631 10.3233 38.5382C11.0547 37.4662 11.7496 36.364 12.5568 35.3529C12.8882 35.0591 13.3217 34.9072 13.764 34.9301C15.9934 34.9411 18.2248 35.0231 20.4554 35.0711C23.6254 35.1392 26.7961 35.2273 29.9652 35.2555C34.3859 35.2949 38.8049 35.2733 43.2254 35.3053C45.1509 35.3192 47.079 35.4251 49.0048 35.4446C50.2983 35.4577 51.5896 35.3884 52.8823 35.3634C54.611 35.3299 56.3438 35.348 58.0677 35.2606C59.5243 35.1866 60.9658 34.9272 62.4228 34.8709C64.1423 34.8045 65.8714 34.8755 67.5959 34.8737C69.2348 34.872 70.8727 34.8421 72.5118 34.8463C73.4488 34.8488 74.3895 34.9311 75.3247 34.9108C76.3337 34.8889 77.3397 34.8008 78.3444 34.7199C78.7678 34.7322 79.1828 34.8406 79.5581 35.0369C79.9333 35.2332 80.2591 35.5124 80.5105 35.8532C80.5889 35.9549 80.6613 36.0609 80.7275 36.1709C82.6544 38.5515 84.4253 41.0541 86.0292 43.6632C86.9638 45.1722 88.0927 46.5657 89.0196 48.0787C89.4963 48.9492 89.8853 49.8649 90.1809 50.8123C90.3494 51.2752 90.1569 51.5537 89.5924 51.5863C88.5313 51.6477 87.4774 51.7865 86.4204 51.8931L86.4125 51.8304C84.6742 51.9785 82.9409 52.2279 81.1965 52.2519C78.3284 52.2914 75.4531 52.1841 72.5809 52.1399C69.8577 52.098 67.1334 52.0236 64.4118 52.0241C59.4829 52.0251 54.5563 52.0876 49.6276 52.092C46.4996 52.0948 43.3695 52.104 40.2404 51.9939C35.5916 51.8304 30.943 51.5534 26.2941 51.3463C24.5659 51.2693 22.8371 51.2684 21.1086 51.2048C19.3818 51.1412 17.6551 51.0204 15.9285 50.9668C14.6074 50.9257 13.2868 50.9696 11.9655 50.9412C9.5823 50.8899 7.19857 50.8287 4.81564 50.7207C4.67009 50.6769 4.53643 50.6006 4.42481 50.4975C4.31319 50.3943 4.22655 50.2671 4.17147 50.1255C3.98866 49.6671 3.91621 49.1721 3.95999 48.6806C4.00376 48.189 4.16253 47.7147 4.42346 47.2958ZM3.32989 67.9739C2.65089 68.0459 2.06089 68.1085 1.30218 68.1891C1.3767 66.7812 1.44805 65.4314 1.52018 64.0817C1.52555 63.9804 1.53977 63.88 1.54508 63.7788C1.60874 62.5668 1.60972 62.5981 2.8389 62.5945C3.40518 62.5927 3.62357 62.7631 3.58719 63.3317C3.48779 64.8869 3.41296 66.4444 3.32989 67.9739ZM41.32 63.1056C38.9112 63.091 36.5061 62.9173 34.1202 62.5857C32.0985 62.3049 30.0945 61.9088 28.118 61.3994C26.9044 61.0407 25.7102 60.6188 24.5406 60.1355C22.029 59.5915 19.4514 59.4179 16.8895 59.6201C14.3937 59.7951 11.9294 60.2802 9.55346 61.0641C10.5893 60.1221 11.9465 60.0211 13.2096 59.6835C16.4927 58.8756 19.9232 58.8797 23.2044 59.6956C23.6468 59.7933 24.0858 59.9096 24.5264 60.0173C26.3861 60.3815 28.2434 60.7619 30.1062 61.1058C32.4145 61.5318 34.7281 61.9225 37.038 62.3378C39.1503 62.6719 41.3086 62.5713 43.3808 62.0424C44.4597 61.7969 45.5416 61.563 46.6223 61.3241C45.1108 62.5073 43.2392 63.1361 41.32 63.1056H41.32ZM49.922 62.208C49.2537 61.9666 48.6012 61.6834 47.9684 61.3603C47.7878 61.2073 47.5616 61.1184 47.3252 61.1074C47.0888 61.0963 46.8554 61.1638 46.6613 61.2992C46.6845 61.1947 46.7321 61.0972 46.8002 61.0147C46.8682 60.9322 46.9549 60.8669 47.053 60.8242C47.1511 60.7815 47.2579 60.7627 47.3647 60.7691C47.4715 60.7756 47.5752 60.8073 47.6675 60.8615C48.4602 61.2125 49.2346 61.6035 49.9877 62.033L49.922 62.208ZM87.9908 62.6186C87.2747 62.1207 86.4851 61.738 85.6507 61.4842C83.8548 60.8069 82.0489 60.1521 80.2239 59.5687C79.5584 59.3988 78.8738 59.3153 78.1869 59.3206C75.024 59.2609 71.8712 59.6961 68.8427 60.6104C66.5153 61.2332 64.185 61.8883 61.8076 62.2911C59.1644 62.7857 56.4713 62.9604 53.7864 62.8115C53.5137 62.7705 53.2436 62.7131 52.9778 62.6397C54.2536 62.4952 55.3942 62.3888 56.5263 62.2327C58.6716 61.9371 60.8288 61.6875 62.9495 61.2793C64.9988 60.8848 66.9885 60.2229 69.0407 59.8458C71.4435 59.2693 73.8994 58.9425 76.3693 58.8706C79.836 58.9626 83.3465 59.413 86.4447 61.4466C87.0232 61.8263 87.688 62.0678 88.2812 62.4275C88.5772 62.6169 88.9103 62.7408 89.2582 62.791C89.6061 62.8412 89.9606 62.8165 90.2982 62.7185C89.9633 62.9761 89.5484 63.1073 89.1263 63.089C88.7042 63.0708 88.3021 62.9042 87.9908 62.6186V62.6186ZM92.4022 64.5709C92.362 65.7281 92.2892 66.8831 92.2544 68.0406C92.2226 69.0971 91.3846 68.7271 90.842 68.7821C90.1832 68.8489 90.3603 68.2502 90.2939 67.8991C90.2616 67.5964 90.2566 67.2914 90.2791 66.9878L90.2562 66.9879C90.1937 66.1283 90.1443 65.268 90.0635 64.4096C90.0178 63.924 90.1128 63.6095 90.6868 63.6472C90.8377 63.6382 90.987 63.6108 91.1313 63.5656C92.3567 63.3357 92.4429 63.3976 92.4022 64.5709ZM90.3749 62.7003C90.9695 62.5314 91.5641 62.3626 92.1587 62.1938L92.2401 62.6297C91.6183 62.6532 90.9966 62.6767 90.3749 62.7003V62.7003ZM92.6417 60.2313C92.5606 61.3945 92.5154 61.2008 91.4216 61.6023C89.578 62.2793 88.1613 61.442 86.6564 60.5959C84.0572 59.2575 81.2187 58.4469 78.3047 58.2109C74.8429 57.7802 71.6111 58.5481 68.3457 59.2795C65.1775 59.9892 62.037 60.8481 58.8281 61.3435C56.4377 61.6439 54.0267 61.7466 51.6194 61.6505C50.3273 61.6338 49.2479 60.747 48.2014 60.0018C47.3264 59.3786 47.3605 59.447 46.5544 60.0661C45.8716 60.6081 45.0677 60.977 44.2115 61.1413C42.2463 61.4755 40.2588 61.6613 38.2657 61.697C36.9202 61.6026 35.5872 61.3762 34.2861 61.0211C30.0826 60.1859 25.8905 59.2741 21.6753 58.522C20.1643 58.3289 18.6403 58.2576 17.1179 58.3087C14.2853 58.3032 11.4953 58.9975 8.9956 60.3298C6.8096 61.4387 4.51165 61.0229 2.22967 60.5484C2.04481 60.4629 1.88212 60.336 1.75419 60.1775C1.62626 60.0191 1.53652 59.8333 1.49194 59.6346C1.14792 57.2708 1.23779 54.8641 1.75714 52.5325C1.75846 52.3641 1.79694 52.198 1.86981 52.0461C1.94268 51.8942 2.04816 51.7603 2.17873 51.6538C2.3093 51.5474 2.46174 51.4711 2.62519 51.4303C2.78864 51.3895 2.95906 51.3853 3.12433 51.418C5.25079 51.5745 7.38123 51.6557 9.50983 51.722C10.903 51.7653 12.2956 51.706 13.689 51.7363C14.6705 51.7576 15.6528 51.8658 16.6351 51.9103C17.5704 51.9527 18.506 51.964 19.4414 51.9869C21.9271 52.0477 24.4127 52.0919 26.8984 52.171C30.3507 52.2809 33.8031 52.4312 37.2554 52.5371C40.9026 52.6489 44.5496 52.7359 48.1965 52.8174C49.0583 52.725 49.9274 52.7232 50.7895 52.8117C52.5489 53.2409 54.2057 52.5252 55.9292 52.7312C57.0451 52.8645 58.1683 52.9679 59.2874 52.9965C61.874 53.0625 64.4618 53.1148 67.046 53.0985C70.0025 53.0799 72.9552 52.9699 75.9108 52.9232C76.8994 52.9076 77.8918 52.9645 78.8824 52.9883L78.8829 52.9466C82.0047 52.9065 85.1279 52.8899 88.2472 52.8094C89.0241 52.7603 89.7938 52.6301 90.5436 52.4209C91.4956 52.1917 91.8651 52.3402 92.0871 53.3279C92.6076 55.5897 92.7945 57.9155 92.6417 60.2313H92.6417Z" fill="#565656"/>
</svg>
