<svg width="97" height="80" viewBox="0 0 97 80" fill="none" xmlns="http://www.w3.org/2000/svg">
<path d="M94.0859 32.1405C95.1353 31.9889 96.3713 31.3119 96.82 32.7229C97.0424 33.4221 96.5863 34.3264 96.437 35.138L95.0251 34.6661C94.1567 36.3305 92.3086 35.9257 90.7762 36.0679C91.1609 37.1431 91.4944 38.0752 91.8278 39.0074L89.0267 39.7178C89.2213 40.5955 90.1444 41.4426 89.2673 42.6581C88.7363 43.3939 88.9314 44.6596 88.7714 45.9134C89.9906 47.3283 90.0102 48.8034 88.8958 50.7014C88.2897 51.8605 87.7597 53.058 87.3094 54.286C88.048 55.5807 88.6347 56.7676 89.3844 57.8423C89.6702 58.252 90.379 58.3429 90.8084 58.6878C91.6523 59.2017 92.3811 59.8841 92.9493 60.6925C93.8963 62.6577 93.4901 63.3205 91.5257 64.0139C91.547 66.1309 91.9025 68.2709 91.4898 70.2368C91.2179 71.1232 90.7634 71.9429 90.1555 72.643C89.5476 73.343 88.7997 73.908 87.9602 74.3014C84.5294 76.1252 80.7777 77.2666 76.9125 77.6626C73.3038 78.1515 69.6874 78.6181 66.0574 78.9302C62.4722 79.2385 58.8689 79.4896 55.2679 79.5031C47.6697 79.5316 40.0649 79.2829 32.4682 79.3503C26.7072 79.4015 21.1048 78.2991 15.4574 77.3672C12.5952 76.8949 10.8089 74.8507 8.63836 73.3307C7.8923 72.8316 7.26591 72.1737 6.8041 71.404C6.34229 70.6344 6.0565 69.772 5.96723 68.8789C5.7848 68.0801 5.86852 67.2435 6.20564 66.4967C6.54276 65.7498 7.1148 65.1337 7.83458 64.7421C8.00361 64.6363 8.14642 64.4936 8.25223 64.3246C8.35804 64.1555 8.42408 63.9647 8.44539 63.7665C8.41874 63.4222 8.0372 63.0452 7.72639 62.7825C6.87893 62.0658 5.71979 61.5559 5.19808 60.668C4.98961 60.2412 4.88291 59.7719 4.88638 59.2969C4.88985 58.822 5.00338 58.3543 5.21806 57.9306C5.54168 57.3718 6.03736 56.9328 6.63107 56.6789C7.22478 56.4251 7.88468 56.3701 8.5122 56.5223C9.99361 56.9933 10.6584 56.0197 11.4847 55.2728C11.5662 55.1538 11.6178 55.017 11.6351 54.8738C11.6523 54.7307 11.6347 54.5855 11.5837 54.4506C11.1896 53.5974 10.7057 52.785 10.2711 51.9493C9.48606 50.4399 8.02287 50.3429 6.62839 50.2144C5.07817 50.0715 4.88391 49.7795 5.69532 48.4355C5.98379 47.9577 6.46249 47.5374 6.57221 47.0256C6.63254 46.4385 6.56815 45.8453 6.38327 45.2848C5.98304 44.2708 5.71535 43.2094 5.58684 42.1269C5.65717 40.4909 5.55884 40.2113 3.90129 40.3656C3.25557 40.4258 2.60822 40.4712 1.96162 40.5233C2.23821 39.8961 2.51149 39.2673 2.79301 38.6424C2.90717 38.3891 3.03938 38.1441 3.20363 37.8146C1.64787 36.9583 0.471399 35.9105 1.0711 33.9196C1.80929 31.4689 3.76969 30.6682 5.8835 30.2054C6.52482 27.4522 6.75412 24.5422 7.86993 22.0398C10.9393 14.7533 16.5569 8.83373 23.6729 5.38742C28.8614 2.87826 34.4504 1.30004 40.185 0.724719C44.4527 0.407788 48.7393 0.447459 53.0004 0.843319C56.2452 1.04425 59.4696 1.49541 62.6449 2.19277C66.7076 3.00006 70.6338 4.3846 74.3042 6.30429C79.4695 9.1847 83.9967 13.0833 87.6115 17.7642C90.3218 21.1582 92.8413 24.7817 93.4383 29.2876C93.4982 29.7397 93.8201 30.1561 93.9301 30.6096C94.0159 31.1159 94.0679 31.6273 94.0859 32.1405V32.1405ZM84.7713 73.8576L84.7503 73.8673C84.9839 73.0596 85.2095 72.2494 85.4547 71.4455C85.5697 71.0686 85.6109 70.5341 85.8769 70.3615C87.4332 69.352 87.8961 67.7295 88.5224 65.6391C88.9792 67.3207 89.334 68.6265 89.7366 70.1087C91.3653 67.8913 90.8485 64.9262 89.2034 63.8969C88.4953 64.3605 87.7108 64.6951 86.886 64.8851C85.0963 64.8544 83.3101 64.713 81.5379 64.4617C80.5561 64.3405 79.9985 64.4322 80.0691 65.6305C80.0848 65.8988 79.4067 66.4719 79.1009 66.4324C77.2301 66.1908 75.381 65.7615 73.5118 65.4996C72.3407 65.3355 70.9783 64.9637 69.9981 65.3722C67.8843 66.2531 65.949 67.3733 63.4943 66.5637C62.5367 66.3285 61.5562 66.1991 60.5704 66.1779C59.7978 66.1039 59.3905 66.3845 59.6534 67.2512C60.0293 68.4905 59.4607 69.083 58.2661 68.991C57.6372 68.9232 57.033 68.7091 56.5017 68.3658C54.5856 67.1584 53.0778 64.9503 50.2933 66.0589C49.5434 66.3574 48.9971 66.6236 48.7676 67.4645C48.6537 67.8816 48.2514 68.4765 47.9095 68.5217C46.379 68.7903 44.8033 68.4826 43.4862 67.658C42.4861 67.0423 41.3588 66.6625 40.19 66.5476C39.0211 66.4326 37.8415 66.5856 36.7406 66.9947C35.597 67.3748 34.361 67.3741 33.2178 66.993C30.947 65.9808 28.9264 65.7159 26.9382 67.3537C26.7609 67.4997 26.5259 67.6907 26.3282 67.6761C25.7333 67.6321 24.9783 67.6955 24.5801 67.3628C22.7312 65.8176 22.3269 65.7719 20.3499 67.1658C18.9911 68.1236 17.5058 67.7628 16.0633 67.312C14.8439 66.9309 14.8857 65.8921 14.8258 64.8721C14.7637 63.8138 14.1109 63.6059 13.1833 64.0858C12.2239 64.6053 11.2019 64.9998 10.1422 65.2596C8.22621 65.6857 7.10196 66.6584 7.36721 67.9327C7.76519 68.1113 8.0944 68.4143 8.3053 68.7962C8.86566 69.973 9.3603 71.1803 9.88023 72.3758L10.2427 72.2204C10.2098 71.8016 10.1768 71.3828 10.1439 70.9641L10.4554 70.8097C10.771 71.1472 11.05 71.5171 11.2879 71.9132C12.0705 73.5781 12.5546 73.8004 14.3749 73.2785C14.4879 73.2633 14.6028 73.2717 14.7124 73.3032C14.8219 73.3347 14.9238 73.3885 15.0115 73.4614C15.9217 74.2346 16.8059 75.0386 17.6417 75.7814L16.4416 75.9289L16.4213 76.2337L18.4722 76.9443C18.2735 75.8274 18.1104 74.9104 17.9472 73.9935L18.4518 73.8355C18.7626 74.5681 19.0983 75.2917 19.3786 76.0354C19.8611 77.3151 20.6084 77.6262 21.8112 77.045C21.7362 76.3007 21.663 75.5735 21.5897 74.8463L22.0293 74.587C22.5994 76.7468 23.9292 77.3119 25.6796 76.8239C25.8906 76.2583 26.0566 75.8134 26.2074 75.4089C26.7487 75.9836 27.2547 76.5906 27.7224 77.2266C28.3334 78.1884 28.2946 78.2126 29.163 78.1021L29.044 76.3359L29.5129 76.3194C29.6622 76.8151 29.8797 77.2875 30.1592 77.7232C30.4603 78.0951 30.8896 78.341 31.3627 78.4124C34.2233 78.4924 37.0847 78.4869 39.9459 78.5085C41.5634 78.5208 43.1809 78.5327 44.7984 78.5443L44.892 77.8191C44.3962 77.6327 43.884 77.4933 43.3622 77.4028C42.771 77.3915 42.1798 77.4261 41.5939 77.5061L41.5711 76.9672C45.8597 76.2879 50.1967 76.9821 54.5032 76.8108L54.5469 77.3418L50.0196 77.3085C50.7155 78.7264 56.0217 79.0382 59.1289 78.1549C59.0457 77.4635 58.9626 76.7721 58.8794 76.0807L59.3435 76.0235C59.4563 76.4654 59.6301 76.8894 59.8598 77.2835C60.1471 77.6536 60.6108 78.1375 60.9945 78.1413C62.7272 78.1746 64.4604 78.1018 66.1842 77.9232C68.9697 77.6085 71.7253 76.9233 74.5162 76.8258C77.7785 76.6663 80.9929 75.9759 84.0328 74.7816C84.3522 74.6627 84.5286 74.1744 84.7713 73.8576ZM11.3481 17.885C12.9817 18.0779 14.1525 17.6666 14.1711 15.7471C12.7381 15.4946 12.2629 15.868 11.3921 17.9273C8.77334 20.9299 7.97946 24.6055 7.49219 28.4827L10.6332 28.988L10.5829 29.4532L7.33717 29.4293L7.22969 29.7996C7.56212 30.0294 7.92195 30.2169 8.30082 30.3576C10.1277 30.7885 11.9922 31.0734 13.7893 31.6036C14.7895 32.0276 15.7598 32.5186 16.6939 33.0732C18.4869 33.8877 20.139 34.4745 21.9841 32.8597C22.6066 32.3104 23.3801 31.9614 24.2039 31.858C25.0276 31.7546 25.8634 31.9018 26.6024 32.2803C28.7948 33.4369 31.0913 34.3845 33.4614 35.1106C35.9469 35.7522 38.4778 35.9139 40.543 33.5629C41.2196 32.7907 42.1358 32.2679 43.1447 32.0782C44.1537 31.8885 45.1972 32.0428 46.108 32.5165C47.3108 33.0586 48.4137 33.8463 49.6376 34.3185C51.0519 35.0149 52.5824 35.4451 54.1524 35.5875C57.0156 35.5011 59.7612 34.4286 61.9247 32.5513C63.888 30.9386 64.6066 31.0095 66.7997 32.4048C67.3581 32.76 67.9373 33.0816 68.504 33.4236C69.8825 34.2554 70.2968 34.1257 70.9369 32.6556C71.8466 30.5664 72.9272 30.2993 74.8599 31.6675C75.8049 32.3837 76.7861 33.0508 77.7997 33.6661C78.0674 33.8369 78.3683 33.9488 78.6826 33.9944C78.9968 34.0401 79.3171 34.0184 79.6224 33.9309C79.9276 33.8433 80.2107 33.6919 80.453 33.4866C80.6952 33.2813 80.8911 33.0269 81.0275 32.7402C81.2644 32.3509 81.867 31.8889 82.2438 31.9412C83.4267 32.105 84.5871 32.4028 85.7027 32.8289C86.697 33.2111 87.5294 33.7372 87.9469 32.2029C88.1943 31.2936 88.9168 31.3542 89.6637 31.6626C90.5921 32.0459 91.5307 32.4039 92.7288 32.8771C92.6776 32.1619 92.577 31.451 92.4277 30.7497C92.1847 29.9413 91.5233 29.147 91.5627 28.3826C91.684 26.0276 90.6219 24.097 89.5189 22.1952C88.7391 21.0119 87.8845 19.8795 86.9604 18.8051L86.6834 18.997C86.8267 19.5017 86.9701 20.0064 87.0438 20.266L85.2574 20.8236C85.3169 17.636 85.2339 17.5019 83.4004 17.8287C83.3095 17.0169 83.2186 16.205 83.1262 15.3795L83.7773 15.2305C82.2332 13.037 80.2213 11.2137 77.8869 9.89224C76.9644 10.7089 76.2321 11.3572 75.4428 12.0558C75.6049 11.6442 75.7147 11.2138 75.7694 10.7747C75.709 10.4017 75.5866 10.0415 75.4072 9.70892C74.0389 10.1949 73.5653 8.72648 72.5725 8.36855C70.0207 7.44855 67.4895 6.46879 64.8834 5.48779C65.6466 3.42679 63.9921 3.54297 63.0673 3.39384C58.801 2.70573 54.5148 2.15294 50.2318 1.5855C49.8867 1.61623 49.5509 1.71378 49.243 1.87271L49.2955 2.24309L51.5189 2.79135L51.4573 3.22059C49.3871 2.50429 47.3866 3.51597 45.2401 3.02068C43.9704 2.72768 42.2874 2.20726 41.1216 3.7673C40.9651 3.45602 40.7831 3.26213 40.8222 3.14654C41.3971 1.44954 40.3102 1.55223 39.2632 1.73466C37.4218 2.05546 35.5895 2.42722 33.7639 2.8229C33.6222 2.86775 33.4913 2.94148 33.3795 3.03943C33.2677 3.13739 33.1774 3.25744 33.1143 3.39203C32.8936 3.99742 32.7073 4.61481 32.5563 5.24123C31.4112 4.23271 30.5887 4.69379 29.7755 5.29316C29.496 5.51916 29.1901 5.71033 28.8644 5.86245C27.9318 6.08678 27.0372 6.44652 26.2089 6.93022C25.1543 7.82674 24.5264 7.73585 23.937 6.46837C21.4548 7.79883 18.9519 8.96361 17.2107 11.217L19.9372 9.59699L20.4639 10.2202L18.1587 11.5682L18.5119 12.1057L21.1183 12.1248L21.129 12.4856C20.1855 12.6626 19.2299 12.768 18.2705 12.8011C17.7736 12.7736 17.283 12.9226 16.8854 13.2218C16.4878 13.5211 16.2087 13.9513 16.0976 14.4364L17.1134 15.353C14.7054 15.7088 13.8043 16.9629 14.7659 18.361L13.5388 19.429C13.1392 19.2333 12.7507 19.0156 12.3752 18.7767C12.0171 18.4982 11.6742 18.2005 11.3481 17.885V17.885ZM51.1851 38.7413L51.0834 38.4948C50.8277 38.5348 50.5669 38.5286 50.3135 38.4765C48.8099 37.8445 47.271 37.2708 45.8409 36.4947C44.3391 35.6797 43.5186 35.8188 42.5046 37.1613C42.3112 37.3835 42.0751 37.5645 41.8102 37.6936C41.5454 37.8227 41.2573 37.8971 40.9631 37.9125C39.1568 37.9267 37.3467 37.7618 35.5374 37.7052C35.1853 37.6836 34.8359 37.7784 34.5429 37.9749C33.2722 39.0066 31.9285 38.7139 30.6007 38.1486C29.3841 37.6306 28.2354 36.9432 27.0097 36.4531C26.4403 36.265 25.8338 36.2179 25.2422 36.3158C24.0668 36.4634 22.9149 36.776 21.7394 36.9226C20.8562 37.0327 19.9309 36.8836 19.0598 37.0352C16.5401 37.618 13.9018 37.4063 11.5074 36.4291C8.72115 35.165 6.70722 37.1686 4.428 37.9971C4.13923 38.1021 4.06178 38.7651 3.85779 39.2356C7.4003 39.6189 10.7614 39.9559 14.1165 40.3528C17.8383 40.793 21.5818 41.1242 25.2663 41.8003C29.8761 42.6461 34.4319 43.8124 39.0219 44.7848C39.5317 44.8415 40.0458 44.7261 40.4824 44.4569C42.5619 43.2687 44.5718 41.9587 46.673 40.8111C48.1207 40.0203 49.6772 39.4244 51.1851 38.7413ZM87.9968 59.9372L88.0729 60.0594C86.0892 60.0949 84.1116 60.2896 82.1591 60.6417C77.9544 61.7264 73.7802 62.4793 69.3846 61.764C67.8111 61.508 66.0721 61.2215 64.8714 62.8675C64.6479 63.1739 64.0408 63.2586 63.5906 63.3271C60.7529 63.6025 57.8897 63.4335 55.1041 62.8263C52.2994 62.2279 49.3771 62.536 46.7588 63.7063C45.0566 64.6105 43.0902 64.8862 41.2048 64.4851C38.3061 63.9738 35.3417 63.9573 32.4375 64.4363C31.5557 64.5462 30.6628 64.5308 29.7853 64.3905C27.7853 64.0785 25.8116 63.5252 23.8059 63.3187C21.4757 63.0788 19.1227 63.0984 16.7794 63.0214C16.3414 63.007 15.9021 63.0681 15.547 63.0894C15.6035 63.8807 15.7105 64.6677 15.8675 65.4453C15.9814 65.8869 16.2484 66.2736 16.621 66.5366C17.2491 66.8503 17.9575 66.9665 18.6529 66.87C19.3484 66.7734 19.9983 66.4687 20.5173 65.9957C21.0649 65.5157 21.7733 65.2597 22.5013 65.2787C23.2293 65.2976 23.9234 65.5902 24.4453 66.0981C25.7075 67.2814 26.6947 67.1743 27.6843 65.7789C27.8798 65.5033 28.2117 65.0709 28.426 65.1044C29.9004 65.2589 31.3551 65.5643 32.7671 66.0159C33.9113 66.5505 35.2131 66.6414 36.4205 66.2711C37.596 65.8037 38.8631 65.6128 40.1242 65.713C41.3852 65.8131 42.6063 66.2018 43.6933 66.8489C44.6402 67.3551 45.6883 67.6433 46.7609 67.6924C47.0508 67.6515 47.3251 67.5358 47.5567 67.3566C47.7882 67.1774 47.9691 66.941 48.0814 66.6706C48.298 65.5119 48.959 65.2599 49.9579 65.2529C50.4715 65.2374 50.9829 65.1793 51.4869 65.0791C52.0947 64.9028 52.741 64.9089 53.3454 65.0967C53.9498 65.2845 54.4857 65.6456 54.8866 66.1353C55.8501 67.2298 57.0814 68.3497 58.9207 68.0876C58.9171 67.7226 58.9297 67.4511 58.909 67.1815C58.788 65.5981 59.2433 65.1154 60.8128 65.3314C62.0213 65.4976 63.2093 65.8878 64.4184 65.9822C66.0883 66.1127 67.7181 65.9957 69.0173 64.6649C69.2357 64.455 69.4955 64.2928 69.78 64.1887C70.0646 64.0846 70.3677 64.0409 70.6701 64.0603C72.2758 64.3302 73.8385 64.8755 75.441 65.1802C76.6135 65.4031 77.8226 65.4152 79.069 65.526C79.1822 63.7426 79.7752 63.045 81.5762 63.4474C83.3727 63.7301 85.1873 63.8821 87.0057 63.9022L86.9877 62.1131C87.3991 62.0532 87.8155 62.0356 88.2305 62.0604C89.1973 62.2171 90.1485 62.5223 91.117 62.6042C91.4743 62.6344 92.2033 62.169 92.1812 61.9922C92.1811 61.4209 91.9999 60.8644 91.6637 60.4025C91.3275 59.9407 90.8535 59.5973 90.3099 59.4217C89.6088 59.2622 88.7723 59.744 87.9968 59.9372ZM50.7412 49.3856C47.7967 49.1552 45.2317 48.8308 42.667 48.7882C40.0418 48.7446 37.4185 49.0145 34.7914 49.0743C33.3141 49.108 31.8304 49.0095 30.3504 48.9413C29.5672 48.9053 28.7861 48.7611 28.0038 48.745C25.5378 48.6943 23.0564 48.8604 20.609 48.6109C16.9805 48.241 13.3714 47.6197 9.76329 47.0408C7.76594 46.7203 7.53558 46.8169 6.97245 48.942C7.46356 49.0765 7.9496 49.2442 8.44822 49.3409C13.2298 50.2682 18.165 50.2245 22.8221 51.9689C25.8003 53.0844 28.8286 54.0628 31.8465 55.0642C33.0331 55.4578 34.3728 56.2321 35.4336 55.9873C38.0482 55.3472 40.5981 54.467 43.0508 53.3577C45.5818 52.2506 47.9725 50.8329 50.7412 49.3856ZM90.3366 38.1967L90.6093 37.6394C89.8501 37.1103 89.1456 36.2838 88.3197 36.1183C86.8677 35.8944 85.3954 35.8312 83.9295 35.9299C82.4678 35.9659 81.0148 36.2251 79.5535 36.2474C78.0683 36.27 76.5773 36.1287 75.0894 36.0465C74.6733 36.0235 74.1171 36.1102 73.869 35.8815C72.9526 35.0365 72.2321 35.5492 71.4872 36.0353C70.6885 36.5384 69.7685 36.8157 68.8249 36.8379C67.8812 36.8601 66.9492 36.6263 66.1278 36.1612C65.3893 35.8253 64.6206 35.5579 64.2134 35.3969C63.6372 35.9297 63.0138 36.4091 62.3509 36.8293C61.4006 37.2555 60.4286 37.6318 59.4391 37.9566C59.2299 38.0331 58.9272 38.1515 58.7813 38.062C57.2632 37.1297 56.1557 38.6058 54.7743 38.6493C56.2114 39.0646 57.6718 39.3943 59.1479 39.6367C62.8283 40.3862 66.5001 41.1818 70.1804 41.9316C70.6338 42.0224 71.1008 42.0222 71.5541 41.931C75.4336 41.119 79.2991 40.244 83.1837 39.4555C85.5545 38.9742 87.9514 38.6122 90.3366 38.1967ZM40.0826 55.2524C39.7836 55.3911 39.2951 55.6366 38.7919 55.848C36.6299 56.7565 34.4926 57.6321 32.1242 56.213C31.0201 55.5838 29.8626 55.0534 28.6651 54.628C27.1363 54.0489 25.5823 53.5221 24.0092 53.0881C23.0129 52.8571 22.0046 52.6809 20.989 52.5603C20.7354 53.4509 20.737 54.3509 20.2917 54.7331C19.9111 55.0596 19.0177 54.7918 18.0001 54.7843C18.692 53.6072 19.1318 52.8588 19.6854 51.917L13.5216 51.2011C13.8199 53.6203 20.2438 57.5908 23.5244 57.3652C22.913 56.1447 23.0839 55.1671 24.3546 54.7201C26.4163 55.4741 25.6209 56.6429 24.5122 57.9533L30.0699 59.1003C30.1196 58.2795 29.9683 57.5986 30.2298 57.3483C30.4386 57.2363 30.6696 57.172 30.9062 57.1601C31.1429 57.1482 31.3792 57.189 31.5981 57.2796C31.8145 57.9842 31.9456 58.7122 31.9885 59.4479L37.2734 59.7928L36.184 58.9216L36.2874 58.4278C36.9034 58.5363 37.9936 58.5349 38.0526 58.7726C38.2964 59.7545 38.9129 59.4982 39.4653 59.4216C42.8862 59.0177 46.1626 57.808 49.0252 55.8918C50.2592 54.8266 51.384 53.6409 52.3827 52.3523C50.3406 52.2503 48.7476 51.1716 47.1347 52.351C46.7286 52.5672 46.3041 52.747 45.8662 52.8881C44.2941 53.6386 42.7291 54.4038 41.3297 55.0819C41.7638 55.9597 42.0638 56.5661 42.3638 57.1726C41.985 57.2979 41.3298 57.6059 41.2718 57.5193C40.8298 56.7885 40.4327 56.0315 40.0826 55.2524V55.2524ZM50.7509 57.6447C50.4859 57.7479 50.2316 57.8764 49.9914 58.0285C46.71 60.5817 42.7925 61.5616 38.794 62.1643C34.0479 62.8796 29.2993 62.1174 24.6049 61.2997C20.5899 60.648 16.7728 59.102 13.4359 56.7762C13.2745 56.6368 13.0847 56.5341 12.8797 56.4752C12.6748 56.4163 12.4594 56.4027 12.2487 56.4352C12.0379 56.4677 11.8367 56.5456 11.659 56.6634C11.4812 56.7813 11.3312 56.9364 11.2193 57.118C9.99674 58.5612 10.1667 59.4768 11.9195 60.484C15.5767 62.5855 19.629 62.1736 23.5704 62.4714C24.5885 62.5329 25.6017 62.6592 26.6037 62.8498C28.8757 63.4278 31.2296 63.6145 33.5643 63.4018C36.1167 63.196 38.6835 63.2506 41.2248 63.5646C42.6465 63.8142 44.1075 63.7155 45.4827 63.2768C47.6521 62.4137 49.7379 61.1692 52.3057 61.5835C55.1202 62.0375 57.9581 62.3528 60.7941 62.6212C61.8712 62.7136 62.9561 62.6413 64.0114 62.4067C64.4701 62.3069 64.7987 61.6511 65.376 61.0505C61.1621 60.5378 57.399 60.1845 53.6766 59.5608C52.6173 59.3833 51.0892 59.3223 50.7509 57.6447V57.6447ZM50.9567 50.8983C54.4336 51.8003 57.9838 51.4265 61.2467 52.8059C61.7573 53.0347 62.2864 53.2195 62.8284 53.3584C63.5251 53.6221 64.2701 53.7342 65.0136 53.6872C67.9973 52.9735 70.9366 52.0884 73.9052 51.313C78.2701 50.1729 82.6494 49.0847 87.0131 47.9407C87.4699 47.7587 87.9022 47.5203 88.3 47.2313L88.0832 46.7722C87.5865 46.9259 87.0866 47.0704 86.5939 47.2355C85.9466 47.5573 85.2575 47.7869 84.5466 47.9176C80.2559 48.0394 75.9586 48.0191 71.6681 48.1446C67.136 48.2771 62.6088 48.517 58.0798 48.7153C55.5369 48.6892 53.0484 49.4518 50.9567 50.8983V50.8983ZM65.5848 54.1794L65.6545 54.9267C66.2188 55.0252 66.7852 55.1121 67.3469 55.2248C68.1929 55.3947 68.2649 55.6354 67.9251 56.2219L65.8035 55.7844L65.68 56.2794C66.0262 56.4428 66.3723 56.6061 66.7181 56.7657C65.3508 57.4242 64.205 57.2389 64.0641 56.1596C63.9934 55.6659 63.7728 55.2057 63.4321 54.8414C63.0915 54.4771 62.6471 54.2261 62.1592 54.1225C60.5924 53.4962 58.9732 53.0099 57.3206 52.6691C56.5166 52.6153 55.7235 52.8783 55.1111 53.4019C54.491 54.1043 53.9725 54.8902 53.5708 55.7367C60.5294 58.4201 67.5208 57.2353 74.4089 56.7391L73.7799 54.129C74.3981 54.0263 75.1496 53.6525 75.6043 53.882C76.4052 54.4396 77.1305 55.0986 77.7621 55.8426C79.327 55.6409 80.7498 54.8315 81.723 53.5895C81.4382 52.9533 81.2087 52.4407 80.9793 51.9282C81.4483 52.1411 81.9605 52.2415 82.4752 52.2214C82.9899 52.2014 83.4928 52.0615 83.9439 51.8128C84.3949 51.5641 84.7817 51.2135 85.0733 50.789C85.365 50.3645 85.5535 49.8777 85.6239 49.3674L65.5848 54.1794ZM4.69917 36.0617C5.51366 36.9506 6.39999 36.2327 7.31551 35.7C7.69703 35.478 8.12589 35.1044 8.501 35.1458C9.69843 35.2781 10.8805 35.5737 12.069 35.8042C13.0995 36.0894 14.1536 36.2812 15.2185 36.3773C17.4042 36.3942 19.5927 36.2733 21.7707 36.1079C22.7688 36.0321 23.7355 35.6487 24.7335 35.5332C25.5009 35.3915 26.2902 35.4228 27.044 35.6248C28.267 36.1209 29.4516 36.7066 30.5884 37.3771C31.3301 37.7608 32.1875 37.8564 32.9955 37.6455C33.8035 37.4346 34.5049 36.932 34.9644 36.2347C34.7432 36.1548 34.5171 36.0895 34.2875 36.039C31.9451 35.7451 29.6926 34.954 27.6808 33.7187C26.0368 32.6653 24.0762 32.306 22.4153 33.5633C20.4368 35.0607 18.5026 34.8761 16.388 33.9484C14.2902 33.028 12.3524 31.6604 9.92702 31.6261C8.9041 31.6116 7.88302 31.327 6.85635 31.2195C5.07965 31.0335 2.4111 32.5676 2.23567 34.0689C2.28376 34.9145 2.54594 35.734 2.99759 36.4505C3.57591 36.3756 4.14571 36.2454 4.69917 36.0617V36.0617ZM45.9901 41.9566L45.8974 42.3953C46.3618 42.5227 46.9441 42.8891 47.2689 42.7333C48.3027 42.2312 49.2819 41.6237 50.191 40.9203C51.275 40.0883 52.1408 40.0391 52.9582 41.1677C53.3374 41.9045 53.6164 42.6886 53.788 43.4993C53.9517 43.2929 54.1827 43.0117 54.4026 42.722C54.8003 42.1192 55.2512 41.5532 55.7499 41.0309C55.8483 40.941 56.4833 41.6023 56.9086 41.6766C59.2553 42.0862 61.5932 43.342 64.1087 41.7883C64.0363 42.8031 63.6454 43.806 63.9865 44.3898C64.8098 45.799 63.9294 46.1113 63.0138 46.5372C62.6702 46.697 62.3114 46.825 61.9595 46.9675C64.3525 47.1656 66.754 47.2417 69.1548 47.1958C71.543 47.1554 73.9278 47.0125 76.147 46.9214C76.4513 45.8173 76.737 44.7814 77.0802 43.5365C76.4302 43.6473 75.7895 43.8069 75.1635 44.0142C74.7083 44.2589 74.2816 44.5531 73.8911 44.8916C74.4281 44.9687 74.9658 45.0405 75.5009 45.1296C75.5663 45.1405 75.6178 45.2444 75.9784 45.6226C74.988 45.6153 74.1582 45.8495 73.6229 45.5485C73.3157 45.3539 72.9599 45.2494 72.5962 45.2472C72.2325 45.2449 71.8755 45.3449 71.5659 45.5358C69.9408 46.2902 68.6876 45.3829 68.941 43.619C69.0573 42.8099 68.9071 42.5325 68.1032 42.3886C63.6281 41.5877 59.1345 40.8651 54.6986 39.8689C51.3224 39.1107 48.847 41.1108 45.9901 41.9566ZM38.5373 46.2727C36.4129 43.8992 11.1376 40.2783 8.88842 41.1985C11.149 42.7576 13.6521 42.5589 16.1108 42.5694C16.6657 42.5718 17.2197 42.399 17.7731 42.4139C18.3275 42.4589 18.8775 42.546 19.4186 42.6746C19.4749 42.6849 19.5179 42.7757 19.6105 42.8764L18.6189 43.0976L18.5351 43.4624L20.8173 44.5522L20.7831 44.1581C21.1339 43.9773 21.5009 43.83 21.8793 43.7182C22.5774 44.8266 23.3808 44.332 24.2308 44.0331C24.7999 43.8859 25.3807 43.7883 25.9667 43.7415C25.6865 45.2167 25.4516 46.4535 25.1538 48.021L36.2276 48.1026L36.5426 47.5614L34.9035 46.7141L35.2425 46.3043L36.9705 47.0447L36.9562 46.6951L38.5373 46.2727ZM51.2388 57.372L51.2069 57.9086C52.765 58.2494 54.3162 58.631 55.883 58.9193C57.406 59.1995 58.9412 59.4213 60.4779 59.5997C61.8707 59.8073 63.2769 59.9124 64.6852 59.9141C67.1537 59.8347 69.6112 59.5505 72.0778 59.4117C76.0031 59.1907 79.7332 58.42 82.9732 56.0705C85.4208 54.2957 87.9487 52.6017 88.225 49.0152L87.1589 49.1361C87.071 49.6892 86.9 50.2258 86.6516 50.7277C85.0337 52.777 82.9977 54.458 80.6793 55.6589C78.3608 56.8597 75.8131 57.5527 73.2058 57.6918C69.5517 57.975 65.9132 59.2156 62.1739 58.0872C61.9919 58.0427 61.8024 58.039 61.6188 58.0762C59.4201 58.3164 57.1955 58.0544 55.1128 57.3098C53.8911 56.9578 52.4532 56.0799 51.2388 57.372ZM77.4381 34.7684C76.6856 34.093 76.1479 33.5699 75.5689 33.0977C73.2471 31.204 72.3165 31.1169 71.1157 33.4215C70.9893 33.6642 70.7333 33.8387 70.6121 34.0829C70.238 34.8364 69.7247 34.9442 69.0091 34.5162C67.9522 33.8841 66.8929 33.2527 65.8059 32.6764C65.157 32.3324 64.399 31.6153 63.9495 32.9565C63.8793 33.1658 63.305 33.1925 62.9684 33.3156C62.2318 33.5271 61.5149 33.8016 60.8254 34.136C59.4264 34.9467 58.2044 36.102 56.3736 35.9121C56.001 35.8735 55.5989 36.1769 55.2105 36.3227C56.0901 36.6426 57.0164 36.8153 57.9522 36.8339C58.6536 36.7801 59.3476 36.6543 60.0233 36.4585C60.3975 36.3066 60.7908 36.2069 61.1922 36.1621C61.5821 36.2585 61.9943 36.1968 62.3388 35.9904C62.6834 35.7841 62.9325 35.4499 63.0316 35.0606C63.1379 34.8837 63.2884 34.7375 63.4683 34.6363C63.6482 34.5351 63.8513 34.4824 64.0578 34.4833C65.0463 34.7231 66.0028 35.08 66.9068 35.5465C67.7109 35.9884 68.6483 36.1227 69.5442 35.9244C70.4401 35.7262 71.2333 35.2089 71.7759 34.4689C71.9576 34.3427 72.166 34.2601 72.3848 34.2275C72.6036 34.1949 72.827 34.2132 73.0376 34.2809C74.4307 34.7285 75.7624 35.5797 77.4381 34.7684ZM35.4096 36.1584C35.868 36.6945 36.0149 37.0143 36.1638 37.0178C37.909 37.0599 39.6547 37.0625 41.3996 37.0479C41.5531 37.0466 41.7316 36.8762 41.848 36.7408C43.6083 34.6938 44.879 34.6095 47.0062 36.4102C48.8152 37.9415 52.828 38.0205 54.4286 36.651C53.5052 36.4902 52.5944 36.2637 51.7032 35.9733C50.0942 35.3384 48.5298 34.5828 46.9606 33.8472C45.0403 32.9471 43.0634 32.4939 41.2761 33.8472C39.6152 35.1049 38.1476 36.6183 35.4096 36.1584L35.4096 36.1584ZM71.8073 42.6395L71.9193 43.1469C72.0927 43.2121 72.277 43.2435 72.4623 43.2392C73.8444 42.8935 75.2591 43.2725 76.6986 42.3892C78.0499 41.5601 79.9984 41.6559 81.6961 41.4219C83.2212 41.2117 84.7609 41.0902 86.298 40.9681C86.782 41.0118 87.2603 41.1045 87.7256 41.2448C87.0115 41.8184 86.2356 42.3106 85.4122 42.712C84.7076 42.8415 83.9881 42.8695 83.2756 42.7953L83.311 43.1586L84.4687 43.674C83.7521 44.5056 83.1365 45.2201 82.5209 45.9345L82.7692 46.2112L84.4937 45.6732L84.2981 46.7532C87.7374 46.8183 89.5442 43.2554 87.832 39.6559C82.5323 40.6485 77.0502 41.0703 71.8073 42.6395L71.8073 42.6395ZM11.3821 50.9782C11.8744 53.4294 12.8725 55.5334 15.2023 56.6157C17.6688 57.8548 20.2084 58.9429 22.8069 59.8739C24.8979 60.4239 27.0336 60.787 29.1889 60.9589C30.8563 61.194 32.5348 61.343 34.2176 61.4051C35.1809 61.3625 36.139 61.2409 37.0824 61.0416C35.2811 60.74 33.5108 60.6634 31.7434 60.5334C31.2801 60.4493 30.8237 60.3304 30.3781 60.178C28.4759 59.7369 26.5841 59.2288 24.6658 58.8855C19.4477 57.9515 14.8844 55.9246 11.7646 51.3476C11.6502 51.2116 11.522 51.0878 11.3821 50.9782V50.9782ZM88.2987 57.4412C87.4671 55.1295 85.7239 54.7167 84.2091 56.1725C83.3977 57.0607 82.3953 57.7531 81.2774 58.1976C78.3896 59.0684 75.4147 59.6676 72.4667 60.3434C71.9052 60.4336 71.3381 60.4837 70.7696 60.4935L70.8376 61.1473C73.468 60.933 76.1118 60.811 78.7243 60.4742C80.6907 60.2207 82.6153 59.6848 84.5616 59.2886C85.4164 59.1146 86.2789 58.9756 87.1464 58.8193L86.8397 57.5966L88.2987 57.4412ZM13.484 62.4251C13.4488 62.3767 13.429 62.3178 13.392 62.3028C11.3382 61.4743 9.38575 60.5516 8.88883 58.051C8.84976 57.8543 8.49383 57.6201 8.25383 57.5712C8.01508 57.5026 7.76481 57.4836 7.51845 57.5154C7.27209 57.5472 7.03483 57.629 6.8213 57.7559C6.60776 57.8829 6.42246 58.0521 6.27681 58.2534C6.13115 58.4546 6.02822 58.6835 5.97435 58.926C5.68817 59.8266 5.70035 60.7081 6.92135 61.0533C7.55654 61.2282 8.169 61.4771 8.74617 61.7948C9.18475 62.0377 9.56175 62.3779 9.84817 62.7894C10.0666 63.2248 10.2281 63.6865 10.3286 64.1632C11.0201 63.8652 11.7299 63.6017 12.396 63.256C12.7825 63.0117 13.1466 62.7337 13.484 62.4251V62.4251ZM94.1611 34.1646C92.4154 33.6166 90.9655 33.1291 89.4933 32.7285C89.3232 32.7071 89.1505 32.7269 88.9896 32.7862C88.8288 32.8455 88.6846 32.9426 88.5691 33.0693C87.4655 34.6299 86.8881 34.7199 85.2251 33.6873C84.5591 33.2495 83.8072 32.9591 83.0198 32.8356C82.4427 32.8668 81.8971 33.1091 81.487 33.5164C81.4033 33.6867 81.3627 33.875 81.3687 34.0647C81.3747 34.2544 81.4272 34.4397 81.5215 34.6044C82.1027 34.9254 82.9936 35.4141 83.3996 35.1898C85.1143 34.2425 86.7793 35.0671 88.4366 35.1996C90.4044 35.4073 92.3906 35.0482 94.1611 34.1646V34.1646ZM11.6628 46.393C13.8986 46.8746 15.7947 47.4415 17.7237 47.6538C19.6736 47.7821 21.6288 47.8111 23.5816 47.7406L23.6329 47.2798C22.5255 47.0423 21.4256 46.7489 20.3089 46.5809C18.7566 46.3474 17.0513 47.0996 15.6629 45.6981C15.5185 45.5524 14.8477 45.8114 14.4957 46.0112C13.6836 46.4723 13.1929 46.3364 13.01 45.2532L11.6628 46.393ZM50.3164 45.5412L48.57 45.8707C50.1716 47.6489 51.9697 46.0877 53.4934 46.663C53.8839 46.8105 54.4046 46.599 55.1019 46.5286L52.8175 43.6102C52.6504 44.1243 52.4948 44.6028 52.3393 45.0812L52.1229 44.6338L49.5063 44.3908L50.3164 45.5412ZM45.0473 42.481C44.6052 42.6421 44.1778 42.8408 43.7698 43.0749C42.5679 43.888 41.4184 44.7761 40.3283 45.7338C40.053 45.9915 40.299 46.8047 40.3056 47.3628C40.7244 47.087 41.1245 46.7837 41.5031 46.4549C42.2201 45.7526 42.8168 44.4852 43.5966 44.3875C44.9397 44.2191 44.8247 43.4953 45.0473 42.481ZM80.5115 45.5169C79.4122 46.0138 78.5594 46.3992 77.5568 46.8523C80.8369 47.8243 82.1677 47.1026 82.3424 44.0702C81.4119 44.4032 80.473 44.7391 79.3011 45.1584L80.5115 45.5169ZM53.7925 52.5621L47.0725 58.3418C49.5489 58.0389 54.0546 54.266 53.7925 52.5621L53.7925 52.5621ZM59.5746 47.5518C58.9373 46.6905 58.4808 45.9968 57.9324 45.385C57.79 45.2263 57.3299 45.2344 57.0678 45.3193C55.7517 45.7456 55.5409 46.678 56.053 47.9888L59.5746 47.5518ZM85.7437 73.8278C87.8313 73.3863 88.2837 72.3709 87.7104 69.6643C87.3758 69.896 86.9295 70.0336 86.8301 70.3039C86.4262 71.4026 86.1287 72.542 85.7437 73.8278ZM44.5865 47.1225C45.256 46.832 45.719 46.4366 46.1373 46.4859C47.4225 46.6371 47.9528 46.0407 48.2024 44.9101L46.7995 44.2514C46.2041 45.2727 44.6615 45.4508 44.5865 47.1225ZM8.08813 40.7637C6.95413 40.3569 6.7794 41.2958 6.61767 41.9982C6.2772 43.4769 6.74277 44.3756 7.5144 44.6029C7.69416 43.4002 7.87875 42.1648 8.08813 40.7637ZM17.6901 43.906C18.1055 44.6591 18.7794 45.2364 19.5873 45.5313C20.3952 45.8262 21.2826 45.8187 22.0854 45.5103C20.5454 44.9482 19.2054 44.4591 17.6901 43.906H17.6901ZM49.2405 78.3202L49.3755 77.855C48.9158 77.6794 48.4316 77.3179 48.0016 77.3671C47.1274 77.4672 45.9614 76.999 45.3377 78.2914L49.2405 78.3202ZM56.6999 42.3947C56.6472 43.1729 56.6078 43.755 56.5394 44.7655L59.0951 43.3382L58.9945 42.9801L56.6999 42.3947ZM66.7159 4.0951C66.4364 4.47133 66.2664 4.7 66.0965 4.9287C66.6843 5.26687 67.2912 5.57073 67.9142 5.83876C68.0425 5.88776 68.329 5.50619 68.5425 5.32308C67.9705 4.93854 67.3985 4.55398 66.716 4.0951H66.7159ZM13.7788 14.1558L14.2173 14.695C14.7866 14.2353 15.3793 13.8 15.9063 13.2961C16.0168 13.1905 15.8854 12.8324 15.8655 12.5907C15.6243 12.6209 15.303 12.5637 15.1565 12.6973C14.6638 13.1469 14.2332 13.6643 13.7788 14.1558ZM45.7563 48.0123C46.4665 48.0175 47.1777 47.9967 47.8867 48.0355C48.5654 48.0726 49.2417 48.1716 49.9192 48.2433C48.5555 46.7223 47.1434 47.7478 45.7563 48.0123ZM46.1231 59.0632L45.9907 58.7003L42.4845 59.7454L42.6985 60.3584L46.1231 59.0632ZM62.0862 44.3563C60.5256 43.002 60.1654 44.0708 59.6574 44.7425L59.8205 45.1763L62.0862 44.3563Z" fill="#565656"/>
</svg>
