<svg width="42" height="42" viewBox="0 0 42 42" fill="none" xmlns="http://www.w3.org/2000/svg">
<path d="M6.35475 16.893C6.02725 16.4448 6.17305 16.1932 6.68404 16.0796C8.71388 15.6287 10.7433 15.1758 12.7722 14.7207C16.8937 13.7923 21.0124 12.8511 25.1363 11.9337C26.8198 11.5592 28.5051 11.1754 30.2076 10.9121C30.5534 10.8377 30.9146 10.8983 31.2172 11.0815C31.5198 11.2647 31.7409 11.5567 31.8353 11.8976C32.6433 14.331 33.5435 16.7357 34.2833 19.1891C35.0877 21.8568 35.7466 24.5682 36.4821 27.2569C36.6763 27.9669 36.8885 28.6752 37.1471 29.3637C37.2555 29.5426 37.3185 29.7453 37.3308 29.954C37.3432 30.1628 37.3044 30.3714 37.2178 30.5618C37.1312 30.7522 36.9995 30.9186 36.8341 31.0466C36.6687 31.1746 36.4745 31.2602 36.2685 31.2962C33.8646 31.9578 31.448 32.5813 29.0167 33.1328C25.4292 33.9465 21.82 34.6644 18.2293 35.4642C16.7359 35.7969 15.2587 36.2099 13.7885 36.6359C13.6298 36.7146 13.455 36.7554 13.2778 36.7551C13.1007 36.7547 12.9261 36.7132 12.7677 36.6339C12.6093 36.5546 12.4715 36.4396 12.3652 36.2979C12.2588 36.1563 12.1868 35.9918 12.1548 35.8176C10.2245 30.344 8.26987 24.8789 6.33644 19.4064C6.11355 18.8082 5.95431 18.1882 5.86133 17.5567C5.96584 17.2915 6.13945 17.0593 6.36412 16.8839C6.51724 17.2653 6.69137 17.6398 6.81935 18.0294C7.21621 19.2376 7.57416 20.4592 8.00119 21.6564C8.05723 21.7813 8.14286 21.8907 8.25067 21.9751C8.35848 22.0595 8.48523 22.1163 8.61995 22.1408C10.1396 21.8219 11.6451 21.4355 13.2221 21.0527C12.844 19.7593 12.4923 18.5394 12.1283 17.3232C12.037 17.0182 11.8796 16.7321 11.7985 16.4252C11.6177 15.7408 11.2201 15.7617 10.629 15.917C9.21626 16.2882 7.78093 16.5732 6.35475 16.893ZM24.3468 32.7317C24.2037 32.8228 24.0392 32.875 23.8697 32.8831C23.7002 32.8913 23.5315 32.855 23.3803 32.7781C23.2291 32.7011 23.1005 32.586 23.0073 32.4442C22.9142 32.3024 22.8596 32.1387 22.849 31.9693C22.4722 30.6441 22.1445 29.304 21.7235 27.9934C21.6553 27.8435 21.5509 27.7129 21.4197 27.6134C21.2885 27.5139 21.1346 27.4486 20.9719 27.4234C19.4294 27.6303 17.899 27.9277 16.3045 28.2063C16.9992 30.0862 17.6604 31.8839 18.3288 33.6789C18.3563 33.8109 18.4128 33.9351 18.494 34.0426C18.5753 34.1502 18.6794 34.2384 18.7989 34.301C18.9183 34.3635 19.0501 34.3988 19.1848 34.4043C19.3195 34.4098 19.4538 34.3854 19.5779 34.3329C21.8486 33.8252 24.1541 33.473 26.4233 32.9598C29.4484 32.2756 32.4496 31.4858 35.467 30.7668C35.6049 30.7629 35.7401 30.7276 35.8623 30.6636C35.9846 30.5996 36.0906 30.5087 36.1724 30.3976C36.2542 30.2865 36.3096 30.1582 36.3344 30.0225C36.3592 29.8868 36.3527 29.7472 36.3155 29.6144C35.8586 27.797 35.332 25.9972 34.8223 24.1531C32.8113 24.6385 30.919 25.1001 29.0238 25.5493C28.9187 25.5532 28.8165 25.5844 28.7272 25.6398C28.6379 25.6953 28.5646 25.773 28.5145 25.8654C28.4645 25.9579 28.4393 26.0617 28.4417 26.1668C28.444 26.2719 28.4737 26.3746 28.5278 26.4647C28.9706 27.8684 29.3929 29.2785 29.7948 30.695C29.8674 31.0398 29.9136 31.3895 29.9329 31.7413L29.5161 31.8327C28.4823 30.0609 28.3346 27.9448 27.5049 26.0368C25.7644 26.3916 24.0575 26.7394 22.2077 27.1165C22.8944 29.0761 23.0122 31.0581 24.3468 32.7317ZM34.6979 23.3821C34.1195 21.4572 33.5826 19.6295 33.0051 17.8146C32.9524 17.7111 32.8744 17.6225 32.7783 17.5572C32.6822 17.4919 32.5712 17.4519 32.4555 17.441C30.5051 17.8718 28.5644 18.3469 26.6146 18.8122C26.9879 20.4624 27.3067 21.9877 27.6822 23.499C28.0562 25.0038 28.081 24.9968 29.6345 24.6805C29.8226 24.6422 30.0179 24.6344 30.2027 24.5854C31.6452 24.2033 33.0858 23.8146 34.6979 23.3821V23.3821ZM21.4046 26.5715C20.9416 24.6444 20.5186 22.9085 20.1103 21.1691C20.1157 21.058 20.0919 20.9474 20.0411 20.8484C19.9904 20.7495 19.9144 20.6656 19.821 20.6053C19.7276 20.5449 19.6199 20.5102 19.5089 20.5046C19.3978 20.4991 19.2872 20.5228 19.1882 20.5735C17.7725 20.9484 16.3359 21.2481 14.9003 21.5412C14.7956 21.5354 14.6913 21.5588 14.599 21.6087C14.5067 21.6586 14.4301 21.733 14.3775 21.8238C14.3249 21.9145 14.2985 22.0181 14.3012 22.1229C14.3038 22.2278 14.3354 22.3299 14.3925 22.4179C14.8811 23.9033 15.3266 25.4032 15.8359 26.8812C15.8943 26.9997 15.9812 27.1018 16.0888 27.1784C16.1963 27.255 16.3213 27.3037 16.4523 27.3201C18.0584 27.1123 19.6567 26.8444 21.4046 26.5715ZM25.883 19.0524C24.2637 19.4222 22.7711 19.736 21.2996 20.1286C21.1645 20.2018 21.0505 20.3085 20.9685 20.4383C20.8864 20.5681 20.839 20.7168 20.8308 20.8702C21.1598 22.4984 21.5457 24.1162 21.9684 25.7229C22.0234 25.8532 22.1103 25.9675 22.2211 26.0553C22.3319 26.1432 22.463 26.2018 22.6023 26.2257C23.9924 26.0144 25.3742 25.7523 26.7476 25.4395C26.8786 25.3844 26.9936 25.2972 27.0818 25.1859C27.17 25.0745 27.2287 24.9427 27.2524 24.8026C26.8391 22.9067 26.363 21.0245 25.883 19.0524V19.0524ZM30.9611 11.5587C28.8834 11.9579 26.9508 12.3293 24.8663 12.7299C25.3636 14.4921 25.812 16.1183 26.2968 17.7336C26.3463 17.8208 26.4173 17.8938 26.5031 17.9457C26.5888 17.9977 26.6864 18.0268 26.7865 18.0303C28.7027 17.5578 30.6103 17.0503 32.5491 16.5437L30.9611 11.5587ZM12.3693 15.6227C12.8728 17.3555 13.3067 18.9197 13.8024 20.4643C13.8748 20.581 13.9756 20.6774 14.0953 20.7445C14.2151 20.8116 14.3499 20.8473 14.4872 20.8481C16.0292 20.5647 17.5656 20.2425 19.0866 19.8636C19.2194 19.7915 19.3314 19.6865 19.4119 19.5587C19.4924 19.4308 19.5386 19.2844 19.5461 19.1335C19.1222 17.5323 18.6234 15.9509 18.0991 14.2018L12.3693 15.6227ZM17.767 34.5409C17.5286 33.8682 17.3027 33.2077 17.0607 32.553C16.596 31.2955 16.1482 30.0304 15.6295 28.7953C15.5545 28.6597 15.4472 28.5447 15.3172 28.4604C15.1872 28.3762 15.0384 28.3252 14.884 28.3122C13.7827 28.4942 12.6934 28.7433 11.6224 29.058C11.4657 29.1243 11.3271 29.2273 11.2184 29.3583C11.1096 29.4892 11.0339 29.6444 10.9976 29.8107C11.5918 31.6942 12.2482 33.5592 12.9478 35.4065C13.0416 35.5278 13.1646 35.6234 13.3054 35.6843C13.4461 35.7453 13.5999 35.7696 13.7526 35.755C15.0742 35.4038 16.3743 34.9719 17.767 34.5409ZM24.1993 13.0008C22.3068 13.4346 20.8409 13.7527 19.3909 14.132C19.2977 14.219 19.2267 14.3272 19.1841 14.4474C19.1415 14.5677 19.1285 14.6964 19.1461 14.8227C19.5013 16.245 19.8795 17.6638 20.3343 19.0563C20.4385 19.1859 20.5732 19.2877 20.7264 19.3525C20.8795 19.4173 21.0464 19.4432 21.212 19.4278C22.4301 19.1827 23.62 18.7972 24.8381 18.5528C24.9662 18.5609 25.094 18.534 25.208 18.4752C25.322 18.4164 25.418 18.3278 25.4856 18.2188C25.5533 18.1098 25.5901 17.9845 25.5922 17.8562C25.5943 17.7279 25.5616 17.6015 25.4975 17.4903C25.1111 16.2061 24.7398 14.9172 24.3655 13.6293C24.2849 13.352 24.2177 13.0709 24.1993 13.0008ZM10.4827 28.5718C11.8641 28.259 13.1921 27.9505 14.5242 27.66C15.1902 27.5148 15.1937 27.1442 14.995 26.5959C14.6253 25.5758 14.3217 24.5319 13.9686 23.5055C13.7764 22.9468 13.5389 22.4036 13.294 21.783C11.8507 22.146 10.5246 22.481 9.19763 22.8124C9.08331 22.8159 8.97171 22.8481 8.87312 22.906C8.77453 22.964 8.69213 23.0458 8.63351 23.144C8.57489 23.2423 8.54194 23.3536 8.53772 23.4679C8.53349 23.5822 8.55811 23.6957 8.60932 23.798C9.22282 25.4025 9.8625 26.9969 10.4827 28.5718V28.5718Z" fill="#565656"/>
<path d="M32.2194 6.66182C32.2747 8.07252 31.6172 8.78848 30.1034 8.99075C29.0297 9.13423 28.0984 9.05143 27.7624 7.27959C27.6418 7.24687 27.516 7.23781 27.3919 7.25291C26.9117 7.42075 26.4406 7.61491 25.9848 7.79227C25.985 9.1066 25.5601 9.78891 24.7197 9.87661C23.241 10.0309 22.6912 9.60734 22.3532 7.96409C21.9015 8.18596 21.4262 8.35628 20.9364 8.47185C20.5993 8.42524 20.2767 8.30438 19.992 8.11798C20.2409 7.97986 20.4969 7.85479 20.7589 7.7433C20.9163 7.7132 21.0766 7.70079 21.2367 7.7063C22.9757 7.49469 23.1006 7.29842 22.75 5.56555C22.5998 4.87607 22.5095 4.17486 22.4804 3.4698C22.4818 3.30434 22.5207 3.14136 22.5944 2.99317C22.668 2.84499 22.7743 2.71548 22.9054 2.61444C23.0703 2.53587 23.2504 2.49432 23.4331 2.4927C23.6158 2.49107 23.7966 2.52942 23.9629 2.60505C24.364 2.84752 24.698 3.18655 24.9344 3.59121C25.1708 3.99587 25.3022 4.45328 25.3165 4.92174C25.3574 5.59097 25.3803 6.2613 25.4173 7.06254C26.5562 6.84419 27.6464 6.66563 28.714 6.39705C28.8146 6.29584 28.8926 6.17444 28.9427 6.04086C28.9929 5.90729 29.0141 5.76459 29.005 5.6222C28.9769 4.3607 28.9089 3.09955 28.8284 1.83996C28.7729 0.971259 29.4846 1.00565 29.9897 0.847567C30.1043 0.802804 30.2276 0.784825 30.3502 0.795005C30.4728 0.805184 30.5914 0.843255 30.697 0.906304C30.8027 0.969353 30.8925 1.05571 30.9596 1.15879C31.0268 1.26186 31.0694 1.37891 31.0844 1.50101C31.4417 2.86175 31.7733 4.22922 32.1391 5.68901C32.8937 5.59964 33.666 5.50817 34.3085 5.43201C35.6824 11.047 37.0341 16.5423 38.3698 22.0416C39.0714 24.9305 39.7376 27.828 40.4404 30.7166C40.553 31.1119 40.7129 31.492 40.9169 31.8488C41.0265 31.9889 41.099 32.1545 41.1275 32.3301C41.156 32.5058 41.1396 32.6857 41.0799 32.8533C41.0202 33.0209 40.919 33.1707 40.7858 33.2887C40.6527 33.4067 40.4918 33.4891 40.3182 33.5283C37.6122 34.3075 34.9142 35.118 32.1922 35.8369C28.4763 36.8183 24.7444 37.7402 21.0117 38.6568C20.0842 38.8846 19.1179 38.9536 18.188 39.1737C17.6668 39.2971 17.2007 39.6793 16.6794 39.7694C15.8691 39.871 15.054 39.9301 14.2374 39.9465C13.8223 39.9375 13.4075 39.9772 13.0017 40.0649C12.8713 40.1228 12.7536 40.206 12.6556 40.3098C12.5576 40.4135 12.4812 40.5357 12.4308 40.6692C12.2471 40.9182 11.985 41.0981 11.6866 41.1798C11.3882 41.2616 11.071 41.2405 10.7861 41.1199C10.4381 41.006 10.0776 40.9347 9.71254 40.9076C9.41043 40.859 9.13486 40.7062 8.93355 40.4757C8.73225 40.2453 8.61788 39.9517 8.61027 39.6458C7.9296 37.3754 7.31719 35.0847 6.66432 32.8058C5.51717 28.8017 4.37495 24.7961 3.19892 20.8005C2.48434 18.3727 1.71498 15.9609 0.960199 13.545C0.887313 13.3794 0.85649 13.1984 0.870469 13.018C0.884448 12.8376 0.942798 12.6634 1.04033 12.511C1.13785 12.3586 1.27154 12.2327 1.42949 12.1444C1.58744 12.0561 1.76475 12.0082 1.94567 12.005C2.77479 11.888 3.59898 11.7362 4.48844 11.5892C4.11417 9.90056 3.84519 8.45692 3.46281 7.044C3.4001 6.87779 3.37452 6.69988 3.38787 6.52274C3.40121 6.3456 3.45316 6.17353 3.54007 6.0186C3.62697 5.86367 3.74672 5.72963 3.89093 5.6259C4.03513 5.52216 4.20029 5.45123 4.37481 5.4181C4.51324 5.36736 4.66137 5.34865 4.80807 5.36338C4.95478 5.3781 5.09623 5.42587 5.22182 5.50311C5.34741 5.58035 5.45386 5.68504 5.53318 5.80932C5.61251 5.9336 5.66264 6.07424 5.67981 6.22068C6.08142 7.60923 6.41347 9.01768 6.7946 10.4124C6.87818 10.8008 7.02623 11.1725 7.2326 11.512C7.36956 11.671 7.47141 11.8572 7.53152 12.0583C7.59163 12.2594 7.60863 12.471 7.58141 12.6791C7.5542 12.8872 7.48338 13.0873 7.37358 13.2662C7.26378 13.4451 7.11748 13.5988 6.94423 13.7173C6.65548 13.9896 6.3001 14.1811 5.91384 14.2724C5.52758 14.3638 5.12408 14.3517 4.74394 14.2376C4.3638 14.1235 4.02043 13.9112 3.74838 13.6222C3.47633 13.3332 3.2852 12.9776 3.19423 12.5913L1.77585 12.9831C4.46893 22.0216 7.14118 30.9902 9.83491 40.0308C12.1999 39.5642 14.4399 39.1189 16.6813 38.6813C17.932 38.4371 19.1948 38.2471 20.4352 37.9597C23.0207 37.3607 25.605 36.7515 28.1713 36.0765C31.7656 35.131 35.3438 34.1242 38.9273 33.1382C40.2381 32.7775 40.1333 32.7982 39.7897 31.5271C39.0395 28.7515 38.399 25.946 37.724 23.1502C37.1527 20.7841 36.6272 18.4064 36.0248 16.0483C35.2888 13.1674 34.5018 10.2993 33.7183 7.43072C33.52 6.70472 33.2494 6.001 32.2194 6.66182ZM23.9258 8.22943C24.9865 6.84017 24.6744 4.07803 23.3759 3.61904L23.9258 8.22943ZM4.63526 6.66736L4.30664 6.76236L5.48205 11.6205C5.69662 10.7818 5.73211 9.90717 5.58622 9.05376C5.44032 8.20034 5.1163 7.38722 4.63526 6.66736V6.66736ZM30.0309 6.88257C30.2876 6.57242 30.48 6.21434 30.5971 5.82916C30.7141 5.44398 30.7535 5.03937 30.7128 4.63885C30.6721 4.23834 30.5522 3.8499 30.3601 3.49612C30.168 3.14234 29.9075 2.83028 29.5937 2.57807L30.0309 6.88257ZM6.37805 13.2334L6.31964 12.7752C5.57664 13.6585 5.15825 12.7148 4.34204 12.4195C4.42047 12.7463 4.56132 13.0549 4.75682 13.3283C5.29881 13.3357 5.84063 13.304 6.37805 13.2334V13.2334ZM28.9723 6.9791C28.9311 7.31903 28.9759 7.66388 29.1026 7.98197C29.5315 8.14893 29.9824 8.25217 30.4412 8.28839L28.9723 6.9791Z" fill="#565656"/>
<path d="M7.60535 11.1709C7.89712 10.973 8.20594 10.8014 8.52814 10.6583C8.8399 10.5851 9.15769 10.5407 9.47755 10.5254C10.9333 10.3039 11.1697 9.91172 10.8251 8.46243C10.6058 7.56184 10.4333 6.6505 10.3083 5.73208C10.2557 5.57825 10.2345 5.41546 10.246 5.25331C10.2574 5.09116 10.3012 4.93295 10.3748 4.78801C10.4484 4.64308 10.5503 4.51436 10.6744 4.40946C10.7986 4.30456 10.9425 4.22561 11.0977 4.17727C11.2487 4.1418 11.4057 4.13986 11.5575 4.1716C11.7093 4.20333 11.8524 4.26796 11.9765 4.36094C12.1007 4.45392 12.2029 4.57298 12.2761 4.70975C12.3493 4.84652 12.3916 4.99767 12.4 5.15255C12.8455 6.57845 13.2031 8.03178 13.612 9.53296C14.3853 9.45937 15.1501 9.31481 15.8968 9.10109C16.0882 8.99091 16.2503 8.83639 16.3696 8.65052C16.4888 8.46465 16.5617 8.25287 16.5821 8.03297C16.5567 7.20206 16.4277 6.37756 16.1982 5.57859C16.1014 5.3181 16.062 5.03978 16.0827 4.76267C16.1034 4.48555 16.1837 4.21618 16.3182 3.97298C16.8493 3.01878 17.194 2.97271 17.9047 3.74374C18.561 4.53773 18.9185 5.53651 18.9151 6.56662C18.9057 6.94592 18.9757 7.323 19.1207 7.67363C19.2656 8.02427 19.4823 8.3407 19.7568 8.60262C20.5344 9.27725 20.0528 10.5047 18.9212 10.9007C17.6366 11.3502 17.1235 11.1828 16.0818 10.0617C15.8881 9.92418 15.6477 9.86912 15.4135 9.90863C15.0679 9.96977 14.7275 10.0572 14.3953 10.1702C14.4289 11.384 14.1913 11.724 13.0074 12.1563C11.796 12.5986 10.9846 12.4544 10.364 11.5548C10.3179 11.4561 10.2511 11.3683 10.1684 11.2975C10.0856 11.2266 9.98869 11.1741 9.88406 11.1437C9.77943 11.1132 9.6695 11.1054 9.56161 11.1207C9.45373 11.1361 9.35036 11.1743 9.2584 11.2328C8.77097 11.3919 8.27228 11.5142 7.76654 11.5987L7.60535 11.1709ZM12.0176 10.4154C12.8837 9.35344 12.3152 6.33596 11.1332 5.34628L12.0176 10.4154ZM17.7269 9.12331L18.0987 9.05262C18.5619 7.91572 17.9858 5.11822 17.0886 4.76593L17.7269 9.12331Z" fill="#565656"/>
<path d="M29.7206 22.1388C29.9674 21.4685 30.2482 20.8112 30.5618 20.1695C30.7555 19.9799 30.9898 19.837 31.247 19.7515C31.2665 19.9956 31.2557 20.2413 31.2149 20.4828C30.9178 21.483 30.5889 22.4736 30.2093 23.6626C29.4322 22.9386 28.6579 22.2683 27.9663 21.5213C27.9679 21.2116 28.046 20.9071 28.1937 20.6349C28.4352 20.7179 28.6625 20.8377 28.8675 20.9901C29.1761 21.3544 29.4611 21.7381 29.7206 22.1388Z" fill="#565656"/>
</svg>
