<svg width="69" height="80" viewBox="0 0 69 80" fill="none" xmlns="http://www.w3.org/2000/svg">
<path d="M68.2713 47.6244C65.572 46.4556 62.9449 45.1735 60.1696 44.1263C55.1237 42.2225 49.9798 40.475 44.9032 38.6189C43.8402 38.2303 42.9331 37.5907 41.881 37.1785C40.0794 36.4727 41.869 35.5512 41.5795 34.7428C41.5277 34.1985 41.5495 33.6515 41.6445 33.1108C41.4276 29.255 41.1419 25.3983 42.5625 21.4984C42.6887 21.4738 42.9278 21.4405 43.1555 21.381C45.4655 20.7765 45.8013 19.9981 44.2558 18.5865C41.9711 16.4998 39.5725 14.4869 37.3231 12.3783C35.7868 10.9974 34.3932 9.52506 33.1554 7.97502C32.0472 6.51827 32.4245 6.16728 34.5428 5.79963C35.1585 5.64508 35.7531 5.44405 36.318 5.19945C33.0648 4.22574 33.0647 4.22574 33.0578 1.53764C33.0712 1.48888 33.0707 1.43846 33.0565 1.38985C32.799 1.04044 32.5323 0.694999 32.2684 0.348389C31.8791 0.558517 31.5551 0.833011 31.32 1.15198C30.9597 2.29305 30.7401 3.46078 30.4639 4.6341L28.3829 4.7126L27.6414 5.32284C28.1393 5.4219 28.62 5.56718 29.0729 5.75553C31.491 7.06847 31.6014 7.58953 29.8122 9.37318C28.5556 10.6258 27.2329 11.8387 25.9418 13.0706C23.4767 15.4229 21.0056 17.7715 18.5587 20.1351C18.2336 20.3755 18.0342 20.7 17.9983 21.0468C18.1457 21.1944 18.3295 21.3179 18.539 21.4102C18.7485 21.5025 18.9796 21.5617 19.2189 21.5844C20.2208 21.7072 21.2456 21.7182 22.1754 21.7699C22.2866 27.3844 22.3948 32.8415 22.4992 38.1113C21.7069 38.0443 20.9056 38.0832 20.1304 38.2263C18.1796 38.9567 16.3485 39.8767 14.4073 40.6243C11.103 42.0189 7.68688 43.2487 4.17983 44.3062C2.51391 44.7525 1.7124 45.6769 0.550874 46.407C0.500887 46.5683 0.500294 46.7363 0.549139 46.8978C0.597983 47.0593 0.694915 47.2097 0.832206 47.337C2.24645 47.8658 3.72689 48.2886 5.39595 48.8139C5.74435 53.5762 6.2877 58.6915 6.44548 63.8139C6.60058 68.8518 6.36445 73.8969 6.30113 78.8488C7.6926 78.6395 9.10013 78.5001 10.5149 78.4316C12.4857 78.4416 14.4532 78.6609 16.4256 78.7207C17.893 78.7652 19.3681 78.6529 20.836 78.6927C21.7078 78.627 22.5871 78.7303 23.3943 78.9935C23.9649 79.0002 24.5334 79.0223 25.1002 79.0571L25.0898 78.8936C29.7327 78.7464 34.2529 78.5668 38.776 78.4792C40.4097 78.4475 42.0559 78.751 43.687 78.7042C48.8356 78.5563 53.9772 78.2516 59.1263 78.1305C61.2583 78.0804 62.6961 77.7395 63.5226 77.0064C63.3201 76.2457 63.1807 75.4758 63.1051 74.7014L62.9543 74.7556C62.8904 71.2902 62.9084 67.9819 62.7415 64.6791C62.6268 62.4094 62.357 60.1371 61.9744 57.8845C61.4545 54.6239 61.49 51.3246 62.0799 48.0712L68.6074 48.1848L69 47.8255C68.7501 47.7748 68.5063 47.7075 68.2713 47.6244V47.6244ZM21.3181 20.394C22.5744 19.4502 23.6025 18.6778 24.6306 17.9055L24.3579 17.6746L22.992 18.095L30.9519 11.4626C32.8997 12.6305 34.7415 13.9005 36.4642 15.2638C38.0662 16.8624 39.5289 18.5417 40.8425 20.2906C37.6388 20.3123 34.3598 20.338 31.0808 20.3555C27.9218 20.3724 24.7627 20.3808 21.3181 20.394ZM24.8156 22.2158C25.4787 21.5914 27.6278 21.8918 29.1196 21.8184C32.6759 21.6433 36.2341 21.4901 39.4832 21.3421C39.5401 24.2443 39.5896 26.7741 39.6368 29.184C35.8602 29.2796 32.3163 29.5112 28.7857 29.4233C24.1722 29.3085 24.1505 29.8233 24.1795 25.8071C24.1882 24.5742 23.9679 23.0139 24.8156 22.2158L24.8156 22.2158ZM5.05395 46.8107L5.04936 46.4379C10.9262 44.074 16.803 41.7101 22.7701 39.3099C22.991 39.9988 23.2014 40.6548 23.304 40.9746C23.824 40.1947 24.4323 39.329 24.9738 38.4389C25.0925 38.1773 25.1265 37.8973 25.0727 37.6232C24.8676 35.6034 24.6127 33.5864 24.4362 31.5652C24.3681 30.7857 24.5178 30.4398 25.957 30.5234C29.5198 30.7302 33.1175 30.5794 36.7011 30.5671C37.5243 30.5643 38.3474 30.5408 39.3582 30.5236C40.0479 33.8592 38.919 37.2792 40.1785 40.4789L40.797 40.4575L41.3072 39.0434C43.7752 40.0643 46.1787 41.0671 48.5952 42.0512C49.0973 42.2557 49.66 42.3694 50.1721 42.5612C53.5752 43.8362 56.9748 45.1167 60.371 46.4027L60.1475 46.9533L5.05395 46.8107ZM10.4891 76.7378C12.3115 76.9526 12.283 76.2748 12.0326 75.179C11.6198 73.347 11.3468 71.4978 11.2148 69.641C11.3855 69.0855 11.7169 68.5672 12.184 68.1252L12.7644 68.2657C12.8771 71.1446 12.9898 74.0235 13.1075 77.0299C12.1573 76.9239 11.3232 76.8309 10.4891 76.7378V76.7378ZM11.2715 65.1104C11.3627 62.9046 11.6236 60.703 11.8286 58.5L12.3402 58.5336C12.5136 59.7015 12.7436 60.8665 12.8452 62.0381C12.9558 63.3134 12.9473 64.5948 12.9907 65.8735L12.413 66.1783C11.9179 65.9061 11.5241 65.5378 11.2715 65.1104V65.1104ZM14.3894 63.6119C13.9467 60.449 13.5461 57.5874 13.1455 54.7258L13.7583 54.6958C15.24 57.4919 14.2833 60.4346 14.3894 63.6119V63.6119ZM14.4339 77.0361L13.8844 67.392L14.5449 67.3659C14.633 69.0781 14.5864 70.8022 14.8359 72.5002C15.4602 76.749 15.514 76.7442 14.4339 77.0361V77.0361ZM52.1869 76.183C51.9167 76.532 51.5166 76.8097 51.0391 76.98C50.9991 75.8833 50.9647 74.9376 50.9302 73.9918C50.8707 72.3655 50.8329 70.7384 50.7426 69.1131C50.6939 68.2347 51.1848 67.8654 52.5137 67.9529C52.4248 70.7032 52.3828 73.4464 52.1869 76.183ZM52.4751 66.3566C51.2606 66.7411 50.5494 66.617 50.706 65.577C51.121 62.8208 51.5887 60.0694 52.0354 57.316L52.754 57.3762C52.661 60.3714 52.568 63.3649 52.475 66.3566L52.4751 66.3566ZM55.0618 76.823C54.7583 76.7762 54.4748 76.6713 54.2371 76.518C53.9994 76.3647 53.8151 76.1678 53.7009 75.9452C53.5551 73.4257 53.5667 70.9006 53.5506 68.3771C53.6393 68.1482 53.7742 67.9316 53.9503 67.7352C54.8619 70.7944 53.774 73.801 54.8438 76.6012L55.5922 76.6009C55.7648 76.1128 55.8988 75.617 55.9934 75.1163C56.822 69.7334 56.8833 64.2963 56.1763 58.9031C56.1958 57.7638 56.3453 56.628 56.6233 55.5091C56.7385 54.6935 56.6088 53.8684 56.2443 53.0979C55.8798 52.3274 55.2903 51.6325 54.5217 51.0672C49.9761 52.5089 49.9153 55.5429 49.6387 58.4909C49.0738 64.513 48.5166 70.5355 47.9378 76.7548C42.4672 78.0464 36.3886 77.1002 30.2884 77.5167C30.2391 74.8785 30.2344 72.2905 30.1209 69.7053C30.0757 68.6762 29.7714 67.6551 29.619 66.6273C29.4834 65.7127 30.0216 65.4203 31.2106 65.4633C33.5 65.5459 35.7967 65.5059 38.1828 65.5173L38.7864 76.4629L39.5357 76.6088C39.8989 76.2646 40.161 75.8633 40.3039 75.4329C40.2145 71.9715 40.022 68.5117 39.889 65.0508C39.8622 64.354 39.8091 63.9954 38.5885 64.0957C35.929 64.3039 33.2566 64.3986 30.5836 64.3794C28.3343 64.3714 27.4546 64.9221 27.5028 66.741C27.5866 69.9124 27.7229 73.0829 27.8253 76.254C27.8362 76.5911 27.7681 76.9298 27.7287 77.354L25.7384 77.3442C25.5521 76.678 25.4333 76.0016 25.3832 75.3211C25.4866 71.0074 25.6687 66.6948 25.7526 62.3809C25.6882 61.8957 25.4251 61.4391 25.0018 61.0776C24.6557 60.9368 24.2559 60.8967 23.8748 60.9644C23.6782 61.448 23.5762 61.9517 23.5721 62.4586C23.6983 66.0149 23.8903 69.5698 24.0056 73.1262C24.0504 74.5075 23.9505 75.8915 23.9099 77.5411C22.0763 77.439 20.4162 77.2898 18.7537 77.2713C17.3567 77.2558 17.221 76.5067 17.2074 75.7839C17.1132 70.7849 17.1675 65.7833 16.979 60.7869C16.8925 58.4943 17.1639 56.0725 15.3196 54.0448C15.075 53.7548 14.7586 53.5051 14.3885 53.3104C14.0184 53.1156 13.602 52.9795 13.1635 52.9101C12.6771 52.8949 11.9305 53.7889 11.6618 54.3748C10.5279 57.1567 9.98104 60.0618 10.0424 62.9783C9.94254 66.5173 9.43873 70.0494 9.07779 73.9284C8.75652 73.0772 8.51444 72.2092 8.35338 71.3312C8.17139 69.9497 8.16487 68.5577 8.3339 67.1752C8.95616 63.5823 8.05829 60.0708 7.70112 56.5258C7.44802 54.0137 7.35943 51.4891 7.33225 48.9692C7.41548 48.7427 7.57231 48.5365 7.78779 48.3701C8.00327 48.2038 8.27022 48.083 8.56318 48.0191C11.4309 47.8829 14.3105 47.7976 17.1828 47.8382C24.9961 47.9487 32.8079 48.2476 40.6203 48.2467C46.9699 48.246 53.3194 47.9195 59.5152 47.7419C59.9581 57.5212 60.3919 67.0997 60.8339 76.8581C58.7469 76.8607 56.8964 76.927 55.0618 76.823ZM53.6262 66.501C53.7729 62.5863 53.9195 58.6716 54.0662 54.757L54.7584 54.7547C54.7431 58.6833 54.7279 62.612 54.7127 66.5407L53.6262 66.501Z" fill="#565656"/>
<path d="M21.8401 58.3924C22.0242 57.8751 22.3179 57.385 22.7094 56.9421C25.766 54.536 28.9408 52.2191 31.9654 49.7898C32.1086 49.6283 32.2987 49.4951 32.5204 49.4008C32.7421 49.3065 32.9893 49.2536 33.2422 49.2465C33.4951 49.2395 33.7466 49.2783 33.9766 49.36C34.2065 49.4417 34.4086 49.5639 34.5665 49.7169C37.4654 51.4711 40.4067 53.1835 43.2968 54.9462C44.4903 55.6742 45.5951 56.489 46.7402 57.2644L46.5362 57.7581C45.8731 57.7377 45.2186 57.6345 44.598 57.4525C40.6162 55.6354 36.6768 53.7626 32.4406 51.7742C29.1874 53.983 25.7829 56.2946 22.3784 58.6062L21.8401 58.3924Z" fill="#565656"/>
<path d="M39.1345 60.2022C38.6335 62.2826 38.6359 62.2465 36.0447 62.1449C34.4572 62.0826 32.8604 62.1774 31.269 62.1535C30.0099 62.1347 29.1577 61.7324 29.3824 60.61C29.5534 59.0291 29.9098 57.4634 30.4472 55.9324C30.7671 55.2973 31.3508 54.7625 32.1065 54.4122C32.8622 54.0618 33.747 53.9158 34.6217 53.997C35.3961 54.0614 36.1249 54.3121 36.7054 54.714C37.2858 55.1158 37.6886 55.6484 37.8571 56.2368C38.4 57.5292 38.7182 58.878 39.1345 60.2022ZM37.5515 58.8702L37.1381 59.2398C36.3968 59.3534 35.6555 59.467 34.3508 59.6669C34.8682 60.1816 35.4706 60.6417 36.1424 61.0354C36.3964 61.0101 36.6394 60.9393 36.8519 60.8287C37.0644 60.718 37.2406 60.5705 37.3666 60.398C37.6991 59.4528 37.6197 58.4491 37.1406 57.5423C36.6614 56.6355 35.8093 55.8762 34.7161 55.382C33.9474 57.2061 34.2109 58.6353 37.5515 58.8703V58.8702ZM32.9688 55.5197C30.4388 56.4254 30.4325 57.9249 30.4785 59.4875C30.3615 58.1188 31.019 57.5578 33.0438 58.2844L32.9688 55.5197ZM33.2397 61.1508L33.8328 60.499C33.2394 60.0723 32.646 59.6456 32.0526 59.2189L31.0474 60.3584L33.2397 61.1508Z" fill="#565656"/>
<path d="M43.7124 77.2776C43.3993 76.6446 43.1841 75.9853 43.0713 75.3132C43.0099 71.8924 43.0628 68.4705 43.0433 65.0492C43.0383 64.1668 42.8744 63.285 42.8655 62.4025C42.887 61.9891 43.002 61.5819 43.2051 61.1992C43.551 61.1658 43.9013 61.2255 44.197 61.3682C44.6438 61.7023 44.9416 62.1377 45.0474 62.6115C45.0319 63.5767 44.6104 64.5391 44.6065 65.5032C44.5951 68.3976 44.7495 71.2923 44.7426 74.1868C44.6698 75.1791 44.5197 76.1671 44.2933 77.1454L43.7124 77.2776Z" fill="#565656"/>
<path d="M31.044 28.1417C28.0131 27.95 27.4834 27.663 27.4266 26.0567C27.3531 23.9802 28.626 22.8046 31.1232 22.6424C31.8397 22.5635 32.5703 22.6293 33.2442 22.8336C33.918 23.0378 34.512 23.3735 34.9685 23.808C35.425 24.2425 35.7284 24.7609 35.8492 25.313C35.97 25.865 35.9041 26.4319 35.6579 26.9584C35.5654 27.1348 35.4236 27.2933 35.2426 27.4224C35.0616 27.5515 34.846 27.648 34.6112 27.7051C33.4447 27.923 32.2361 28.0057 31.044 28.1417Z" fill="#565656"/>
</svg>
