<svg width="66" height="98" viewBox="0 0 66 98" fill="none" xmlns="http://www.w3.org/2000/svg">
<path d="M3.58358 11.7309C5.72975 10.7144 8.02243 11.4861 10.2082 10.5151C9.02128 9.39328 7.96486 8.39326 6.90663 7.39513C5.86527 6.4129 4.82863 5.42558 3.77786 4.45345C2.55452 3.49662 1.52221 2.31807 0.734863 0.979355C1.12059 0.928952 1.5119 0.940826 1.89386 1.01453C2.34172 1.22028 2.75541 1.49343 3.12054 1.82446C5.19328 3.67075 7.23732 5.54926 9.31217 7.39312C9.91706 7.92273 10.5551 8.41321 11.2225 8.86157C11.9049 9.32704 12.5824 9.76163 12.399 10.817L12.6588 10.8752C12.9506 10.6639 13.2111 10.4124 13.4324 10.1281C13.8005 9.48721 13.6222 9.12142 12.9189 8.94065C12.4695 8.82516 12.0086 8.75489 11.4957 8.653C11.5499 8.33261 11.7275 8.04624 11.9904 7.85529C12.2533 7.66434 12.5806 7.58404 12.902 7.63161C15.6003 7.80153 18.424 7.53847 20.7007 9.47937C20.9305 9.65562 21.1927 9.78475 21.4725 9.85935C21.7523 9.93394 22.044 9.95254 22.331 9.91405C25.6001 9.82387 28.8696 9.74807 32.1395 9.68665C34.3351 9.64295 36.5316 9.57508 38.7268 9.60036C42.0867 9.63906 45.4461 9.7173 48.805 9.83508C53.5087 9.99508 58.2114 10.1848 62.913 10.4044C63.7072 10.5026 64.4933 10.6576 65.2653 10.8681C64.7489 11.8749 64.1782 12.8529 63.5559 13.7979C61.34 16.7816 59.0634 19.7202 56.8081 22.6746C56.5362 23.0308 56.259 23.383 55.9765 23.7311C53.5495 26.7167 51.1364 29.7137 48.6873 32.6811C46.8358 34.9244 44.8852 37.0877 43.0775 39.365C41.7471 41.041 40.5778 42.8447 39.3327 44.5885C39.2384 44.7885 39.0894 44.9576 38.9029 45.0763C37.9579 45.3337 37.8986 46.0772 37.7974 46.8572C37.1133 53.1726 36.761 59.5196 36.7419 65.872C36.6997 67.6148 36.4638 69.3573 36.4955 71.0966C36.5623 74.766 36.7736 78.4325 36.872 82.1017C36.9187 83.8419 36.8422 85.5854 36.8196 87.4861C37.4359 87.6321 38.0229 87.8084 38.6226 87.907C41.6114 88.2909 44.4436 89.4653 46.8271 91.3089C47.1764 91.5878 47.4865 91.9126 47.7489 92.2744C47.9247 92.4678 48.0544 92.6985 48.1283 92.9491C48.2023 93.1998 48.2186 93.4639 48.1759 93.7218C48.1332 93.9796 48.0327 94.2244 47.882 94.4379C47.7312 94.6514 47.5341 94.828 47.3054 94.9544C46.368 95.4626 45.3626 95.8339 44.3199 96.0569C41.0225 96.71 37.6663 97.0188 34.3051 96.9785C31.4917 97.0981 28.6739 97.0674 25.8638 96.8868C24.0832 96.7101 22.3275 96.338 20.6283 95.7772C18.8798 95.2504 18.4601 93.9292 19.5029 92.4305C19.9963 91.8028 20.5985 91.269 21.2807 90.8543C22.6533 90.0113 24.1535 89.3966 25.723 89.0342C27.743 88.4716 29.7944 88.0217 31.9955 87.4835C32.0687 87.2092 32.1155 86.9286 32.1355 86.6455C32.1912 82.6552 32.3629 78.6607 32.2392 74.6755C32.1144 70.6534 31.6457 66.6432 31.42 62.6225C31.3021 60.5219 31.4444 58.4076 31.3583 56.304C31.3343 53.5275 30.8958 50.7701 30.0575 48.123C29.9399 47.7877 29.8941 47.4277 29.806 47.0815C29.6646 46.1071 29.1762 45.2166 28.4306 44.5737C27.6191 43.8042 26.8977 42.945 26.2801 42.0127C23.1999 38.1639 20.0836 34.3429 17.0625 30.4482C15.5548 28.5045 14.2352 26.4156 12.8089 24.4078C11.5644 22.656 10.2872 20.9274 9.0289 19.1853C7.92984 17.6636 6.85331 16.1253 5.73336 14.6192C5.28142 14.0114 4.71836 13.4873 4.24884 12.8912C3.99961 12.5208 3.77729 12.1331 3.58358 11.7309V11.7309ZM18.0824 23.0009L19.8277 22.1937C18.1459 22.2284 16.5099 21.6452 15.2293 20.5545C14.6433 20.0724 14.1532 19.4751 13.5815 18.9734C13.341 18.7213 13.0233 18.5563 12.6786 18.5046C11.9021 18.5638 11.1296 18.6669 10.3648 18.8133C10.6264 19.2303 10.7548 19.4619 10.9083 19.6754C11.9808 21.1666 13.0562 22.6555 14.1347 24.1423C15.4222 25.9187 16.6492 27.7436 18.0161 29.4568C20.2492 32.2558 22.5884 34.9698 24.8559 37.7418C26.4641 39.7078 28.0278 41.7101 29.6959 43.8021L38.2164 43.5667C38.6959 42.9398 39.1434 42.3262 39.6204 41.7364C41.0519 39.9663 42.3522 38.1018 43.8819 36.3967C46.1801 33.8352 48.2807 31.0955 50.4401 28.4113C50.9509 27.7762 51.3613 27.0603 51.9891 26.1273L47.2022 26.9412C48.5895 25.999 50.2763 25.9882 52.0091 25.4135C51.4497 25.2776 50.8993 25.1073 50.361 24.9035C49.553 24.5282 49.5794 24.147 50.5051 23.4351L50.2959 24.508C51.1303 24.5953 51.8714 24.7172 52.6138 24.726C52.9126 24.681 53.1837 24.5252 53.3729 24.2895C54.6485 22.8492 55.8994 21.387 57.1534 19.9277C57.8817 19.0124 58.5408 18.0441 59.1251 17.0307C58.4296 17.0225 58.0344 16.9972 57.6414 17.0164C54.8673 17.1518 52.0949 17.3398 49.3194 17.4274C45.5587 17.5461 41.7957 17.5967 38.0335 17.6639C34.6287 17.7248 31.2234 17.7608 27.8187 17.8279C27.2367 17.8414 26.6574 17.9117 26.0891 18.0378C25.9693 18.0715 25.8594 18.1335 25.7686 18.2188C25.6779 18.304 25.6091 18.4098 25.568 18.5273C25.5654 18.6701 25.5909 18.812 25.6431 18.9449C25.6954 19.0777 25.7733 19.199 25.8725 19.3018C26.1582 19.5202 26.4706 19.7014 26.802 19.8409C27.3041 19.2785 27.9373 18.8486 28.6453 18.5896C29.3533 18.3305 30.1143 18.2502 30.8608 18.3557C32.5842 18.5546 34.2351 19.1624 35.6759 20.1286C37.1168 21.0947 38.3059 22.3912 39.1442 23.91C39.9324 25.2716 40.2874 26.8409 40.1619 28.4092C41.1668 29.2359 42.1152 30.0269 43.0761 30.8022C43.5629 31.195 44.0731 31.5588 44.5713 31.9376C44.7762 32.04 44.9354 32.2155 45.0174 32.4294C45.0995 32.6433 45.0984 32.8802 45.0145 33.0934C42.8506 32.5462 41.3148 30.8442 39.5373 30.1301C38.7273 30.4327 37.8924 30.6636 37.042 30.8201C34.7478 31.1015 32.4311 30.5171 30.5448 29.1813C30.0738 28.8384 29.6294 28.4586 29.1523 28.1251C27.5505 27.0372 26.3284 25.4763 25.6565 23.6603C25.48 23.0292 25.4385 22.3679 25.5349 21.7197C25.593 21.5423 25.5961 21.3514 25.5438 21.1721C25.4915 20.9929 25.3863 20.8336 25.242 20.7151C25.0977 20.5967 24.9209 20.5246 24.7349 20.5083C24.5489 20.492 24.3623 20.5323 24.1996 20.6239C23.3358 20.989 22.5139 21.4459 21.7478 21.9868C20.6806 22.9751 19.4177 22.9115 18.164 23.0553L18.0824 23.0009ZM35.3618 87.2239L34.8404 86.2999C35.1146 86.1048 35.3061 85.8142 35.3771 85.4851C35.4482 85.1561 35.3937 84.8124 35.2244 84.5214C35.1389 84.2975 35.1448 84.0489 35.2408 83.8293C35.3201 83.7342 35.3742 83.6207 35.3981 83.4992C35.4219 83.3777 35.4148 83.2521 35.3772 83.1341C35.3396 83.0162 35.2729 82.9095 35.1832 82.8242C35.0935 82.7388 34.9837 82.6775 34.864 82.6458C34.7811 82.5569 34.7228 82.4479 34.695 82.3296L35.4601 81.5427L34.5239 80.7197C34.6664 80.7087 34.8048 80.6669 34.9295 80.5972C35.0542 80.5274 35.1623 80.4314 35.2463 80.3157C35.3302 80.2001 35.388 80.0675 35.4156 79.9273C35.4433 79.7871 35.4402 79.6426 35.4064 79.5037C35.2446 78.9798 35.048 78.4672 34.8181 77.9693L35.4844 77.5084L34.7914 76.5649C34.989 75.8141 35.1352 75.2589 35.2693 74.7496L34.0476 74.0476C35.0246 73.6985 35.4594 73.1845 35.1406 72.4193L34.1862 71.816L35.4272 71.219L34.272 70.5382C34.6101 70.355 34.8971 70.0904 35.1072 69.7683C35.0575 69.4657 34.9221 69.1837 34.717 68.9557C34.9212 68.6081 35.1046 68.2487 35.2664 67.8795C35.5074 67.2165 34.8935 66.8821 34.5706 66.4646C35.6513 65.6309 35.4811 65.6093 34.9925 64.2254C35.1126 64.2072 35.2261 64.159 35.3226 64.0852C35.419 64.0114 35.4953 63.9145 35.5442 63.8033C35.5932 63.6922 35.6133 63.5705 35.6027 63.4495C35.5921 63.3286 35.5511 63.2122 35.4835 63.1113C35.4052 62.9178 35.3828 62.7062 35.419 62.5007C35.7106 60.9769 35.7298 59.4135 35.4756 57.8831C35.3245 57.276 35.3326 56.6402 35.4992 56.0371C35.6356 55.7872 35.71 55.5082 35.7163 55.2236C35.7226 54.9389 35.6604 54.6569 35.5352 54.4012C35.5005 54.326 35.4846 54.2435 35.4889 54.1608C35.4931 54.0781 35.5174 53.9976 35.5596 53.9264C36.231 53.272 35.9844 52.6539 35.3881 52.0135C36.4866 51.4823 36.1624 50.8071 35.6738 50.2048L36.2947 49.2861L35.6201 48.1435C35.799 48.1093 35.9684 48.0367 36.1167 47.9308C36.2649 47.8249 36.3885 47.6882 36.4789 47.53C36.5693 47.3719 36.6245 47.196 36.6405 47.0146C36.6566 46.8331 36.6332 46.6503 36.572 46.4787C36.2587 46.3449 35.9836 46.1352 35.7715 45.8685C35.7959 45.171 35.337 45.1884 34.9133 45.1546C34.2905 45.105 33.6636 45.0806 33.0389 45.0882C32.3444 45.0967 31.6505 45.1531 30.8663 45.1932C30.8904 45.5037 30.9304 45.8128 30.9862 46.1192C31.2572 47.2031 31.6014 48.2719 31.815 49.3665C32.6034 52.9959 32.871 56.7191 32.6097 60.424C32.6008 60.6479 32.6128 60.8721 32.6455 61.0937C32.764 62.2944 32.9334 63.4922 32.9995 64.6957C33.2376 69.0297 33.363 73.3715 33.6826 77.6992C33.8338 81.1841 33.7935 84.6747 33.5619 88.1552C33.5189 89.3593 33.3871 90.5627 33.2348 91.7586C33.1997 91.8937 33.1329 92.0185 33.0397 92.1226C32.9466 92.2266 32.83 92.3068 32.6996 92.3566C32.6108 92.3771 32.5184 92.3758 32.4302 92.3527C32.3421 92.3295 32.2609 92.2854 32.1936 92.2239C32.1264 92.1625 32.075 92.0856 32.0441 91.9999C32.0131 91.9143 32.0034 91.8223 32.0158 91.7321C32 91.3753 32.0381 91.0164 32.0456 90.6583C32.0548 90.2251 32.0569 89.7918 32.0629 89.2822C31.6299 89.2015 31.1883 89.1762 30.7489 89.2069C29.1836 89.5611 27.6198 89.9343 26.0797 90.3835C25.0906 90.6692 24.1278 91.0392 23.2019 91.4893C22.3982 91.8605 21.6534 92.348 20.9916 92.936C20.269 93.6147 20.4409 94.1796 21.3358 94.5692C21.7021 94.7375 22.0886 94.8579 22.4858 94.9274C24.5206 95.2354 26.5577 95.5312 28.5985 95.7962C29.4843 95.9187 30.3769 95.9858 31.271 95.9972C32.2513 96.0013 33.2316 95.8881 34.2127 95.8429C37.4828 95.846 40.7452 95.5288 43.9534 94.8959C44.6467 94.7236 45.3233 94.4899 45.9751 94.1975C46.1298 94.1556 46.2696 94.071 46.3786 93.9533C46.4875 93.8357 46.5612 93.6898 46.5912 93.5323C46.6212 93.3748 46.6062 93.2121 46.5481 93.0626C46.49 92.9132 46.391 92.7832 46.2625 92.6873C46.0419 92.4665 45.8103 92.2569 45.5686 92.0593C44.0458 90.5851 41.9546 90.3846 40.2452 89.5844L39.5101 90.1974C38.9828 88.7795 37.8368 89.2787 36.7718 89.0602C36.7607 89.996 36.7398 90.8349 36.743 91.6736C36.7751 92.0937 36.7049 92.5152 36.5384 92.9022C36.372 93.2891 36.1141 93.63 35.7871 93.8955C35.46 94.161 35.0735 94.3432 34.6606 94.4266C34.2476 94.51 33.8207 94.4921 33.4162 94.3743C33.0661 94.2987 32.7064 94.2679 32.3561 94.1934C31.394 93.9888 31.3345 93.9141 31.1057 92.614C31.6091 92.6486 32.0777 92.6516 32.5364 92.7203C33.0219 92.7929 33.4946 92.9484 33.9791 93.031C34.7551 93.1634 35.1059 92.9866 35.2191 92.2227C35.3751 91.1703 35.7394 89.994 34.1162 89.4169C34.5335 89.2993 34.9211 89.0948 35.2536 88.8166C35.5962 88.1982 34.6204 88.3512 34.5684 87.807L35.3618 87.2239ZM63.225 11.7814C62.119 11.6961 61.3302 11.6042 60.5394 11.582C59.5122 11.5531 58.4824 11.6096 57.4554 11.5772C51.8622 11.4006 46.2703 11.1843 40.6766 11.0296C37.232 10.9344 33.7861 10.8875 30.339 10.8888C28.0114 10.8877 25.6835 10.9972 23.3561 11.0681C23.2152 11.0888 23.0785 11.1325 22.9517 11.1974C23.922 13.141 24.8674 15.0347 25.9016 17.1063L60.3238 16.034C61.2072 14.7391 62.1076 13.4194 63.225 11.7815V11.7814ZM27.8857 24.8271C28.201 24.6408 27.8678 23.9243 28.5765 24.0876C28.7644 24.6477 28.7683 25.3626 29.5895 25.4343C29.6937 26.1504 30.5387 25.8164 30.7435 26.1734C31.3601 27.1039 32.2323 27.8366 33.2552 28.2834C33.7826 28.4994 34.2422 28.8532 34.586 29.3078C34.8786 29.6426 35.2917 29.8481 35.7352 29.8794C38.3218 30.1287 39.6569 29.1042 39.1635 26.1323C39.1348 26.0011 39.0931 25.8731 39.039 25.7501C37.6319 22.0851 34.8284 20.1035 31.1266 19.2353C30.7071 19.192 30.2837 19.2031 29.867 19.2683C29.887 21.0791 29.8898 21.0814 28.7154 22.5214C28.3506 22.9687 27.9662 23.4001 27.5667 23.8668C27.5843 24.0333 27.6144 24.1982 27.6568 24.3601C27.7214 24.5212 27.7979 24.6773 27.8857 24.8271V24.8271ZM13.8737 17.1243C17.5048 17.7212 20.9774 17.2232 24.555 17.0523C24.5492 16.707 24.5154 16.3627 24.4539 16.0228C24.0229 14.5616 23.2595 13.2201 22.2233 12.1033C21.9705 11.7941 21.6408 11.5569 21.2673 11.4156C20.8937 11.2742 20.4896 11.2338 20.0954 11.2982C17.9226 11.5511 15.7411 11.7365 13.5748 12.0342C13.0121 12.1551 12.4865 12.4092 12.0422 12.7751C11.7011 13.0273 11.6507 13.6769 12.0922 13.7357C13.0253 13.8598 12.8049 14.4779 12.8547 15.0152C12.875 15.2336 12.8712 15.4543 12.877 15.6347L13.61 15.4162L13.8737 17.1243ZM24.7386 17.9832L16.1666 18.3343L16.5917 19.8107L17.0099 19.0389C17.81 19.7025 18.4463 20.2302 19.0825 20.7579C19.3578 20.8946 19.6603 20.9674 19.9676 20.9709C20.3443 21.0648 20.7315 21.1106 21.1197 21.1072C22.3106 20.8587 23.3899 20.2338 24.1984 19.3247C24.449 18.9093 24.6314 18.4564 24.7386 17.9832H24.7386ZM6.02385 12.7218C6.15054 12.9972 6.295 13.2641 6.4563 13.5208C7.41558 14.8066 8.3744 16.0934 9.36792 17.3526C9.55852 17.5854 9.83232 17.7349 10.1313 17.7694C10.7424 17.7578 11.3523 17.7104 11.9578 17.6274C11.1804 15.7601 10.4567 14.0214 9.69063 12.1814L6.02385 12.7218ZM14.5604 10.5176C16.3021 10.599 18.0468 10.4457 19.7476 10.0618C18.1725 8.44039 16.3015 8.91685 14.5845 8.48536L14.5604 10.5176ZM27.6243 20.3914C27.89 20.8604 28.1761 21.2653 28.7314 20.915C28.811 20.8037 28.8608 20.6739 28.8762 20.5379C28.8915 20.402 28.8719 20.2644 28.8191 20.1381C28.3848 19.7026 27.9767 19.8873 27.6243 20.3914ZM27.5815 22.3077L26.4916 21.7468C26.1725 22.2109 26.1965 22.5482 26.5848 22.7545C26.6744 22.8198 26.7797 22.8602 26.8899 22.8718C27.0002 22.8833 27.1116 22.8655 27.2127 22.8201C27.3139 22.7748 27.4013 22.7035 27.466 22.6135C27.5308 22.5235 27.5706 22.418 27.5815 22.3077V22.3077Z" fill="#565656"/>
<path d="M38.9053 39.5179C38.4464 39.6368 37.9895 39.7645 37.528 39.8722C37.053 39.9831 36.5735 40.0745 36.034 40.1874C36.1361 40.4745 36.1808 40.7789 36.1655 41.0833C36.0396 41.3161 35.8381 41.499 35.5943 41.6018C34.8999 41.9794 34.1863 42.3219 33.4801 42.678L33.2842 42.4766C33.3337 42.2763 33.4308 42.091 33.5674 41.9363C34.0241 41.6776 34.5212 41.4903 35.2463 41.1664C34.4467 41.0144 33.7949 41.1008 33.5771 40.3025C33.1199 40.1273 32.6323 40.0453 32.1429 40.0613C32.226 39.835 32.3924 39.649 32.6082 39.5416C32.824 39.4341 33.0728 39.4133 33.3034 39.4834C34.7841 39.8124 36.3293 39.6913 37.7407 39.1356C38.106 39.0711 38.478 39.0531 38.8478 39.0819L38.9053 39.5179Z" fill="#565656"/>
<path d="M53.0924 20.0383L56.1832 19.6464C55.8119 20.2993 55.7762 20.1918 53.6204 20.9081C52.5326 21.2695 52.1039 20.1874 51.1907 20.3688C51.7459 19.1976 53.575 18.6593 55.7293 18.9586C55.6104 19.1641 55.4284 19.3258 55.2104 19.4198C54.9923 19.5137 54.7498 19.5349 54.5187 19.4802C54.0419 19.5382 53.5626 19.5761 53.0843 19.6227L53.0924 20.0383Z" fill="#565656"/>
<path d="M17.3958 24.758C17.9089 24.459 18.2595 24.2319 18.6301 24.0445C19.1387 23.7872 19.663 23.561 20.1797 23.3197C20.2826 23.2504 20.3988 23.2034 20.5209 23.1816C20.643 23.1598 20.7683 23.1637 20.8888 23.193C21.0094 23.2223 21.1225 23.2764 21.2209 23.3519C21.3193 23.4274 21.401 23.5225 21.4606 23.6313C21.0393 24.1947 20.3968 24.0619 19.8078 24.2893L20.4822 24.8812C19.4486 24.9498 18.55 25.4123 17.3958 24.758Z" fill="#565656"/>
<path d="M42.4408 36.6525L41.0346 37.3981L40.8532 37.2149L41.3004 36.4932L38.1588 36.1212C38.1396 36.0194 38.1459 35.9144 38.1773 35.8157C38.2087 35.717 38.2642 35.6276 38.3387 35.5556C38.4132 35.4836 38.5045 35.4313 38.6042 35.4033C38.704 35.3754 38.8091 35.3726 38.9102 35.3954C40.0698 35.6271 41.2136 35.9381 42.3634 36.2194L42.4408 36.6525Z" fill="#565656"/>
<path d="M32.3081 35.9929C34.0262 35.196 36.0274 35.3309 37.9762 34.3835C37.8766 34.6447 37.7234 34.8821 37.5265 35.0804C36.8466 35.3021 36.1356 35.4281 35.4545 35.6465C34.8763 35.8318 34.3377 36.1475 33.7549 36.3094C33.3004 36.3949 32.8389 36.4377 32.3765 36.4373L32.3081 35.9929Z" fill="#565656"/>
<path d="M22.8832 30.8264C22.9194 30.9757 22.9237 31.1309 22.8959 31.282C22.8682 31.433 22.8089 31.5766 22.722 31.7032C22.6352 31.8299 22.5226 31.9369 22.3917 32.0172C22.2608 32.0975 22.1144 32.1494 21.9622 32.1694C21.7362 32.1521 21.524 32.0544 21.364 31.894C21.204 31.7336 21.1068 31.5211 21.0901 31.2951C21.127 31.0351 21.2531 30.7959 21.447 30.6187C21.6408 30.4415 21.8902 30.3372 22.1525 30.3237C22.4278 30.4398 22.6764 30.6109 22.8832 30.8264V30.8264Z" fill="#565656"/>
<path d="M44.7217 23.2214L48.6755 22.4563C48.131 22.8955 47.5007 23.2159 46.825 23.3971C46.1493 23.5782 45.4433 23.616 44.7521 23.508L44.7217 23.2214Z" fill="#565656"/>
<path d="M34.9469 33.0935C35.7478 32.6956 36.538 32.273 37.3579 31.9192C37.7006 31.9274 38.0384 32.0029 38.352 32.1415C37.3723 32.866 36.1603 33.2049 34.9469 33.0935V33.0935Z" fill="#565656"/>
<path d="M47.9029 29.3175C47.1087 29.6676 46.3144 30.0176 45.5202 30.3677L45.3628 30.1556L47.4422 28.377L48.029 28.9001L47.9029 29.3175Z" fill="#565656"/>
<path d="M19.2673 26.2836C20.4789 25.4468 21.9341 25.5978 23.2853 25.3271C22.018 25.8957 20.6549 26.2202 19.2673 26.2836V26.2836Z" fill="#565656"/>
<path d="M42.3728 23.7711L44.0018 23.2051L44.1106 24.3594L42.4207 24.2216L42.3728 23.7711Z" fill="#565656"/>
<path d="M18.164 23.0554L19.3479 23.436C18.9322 23.6514 18.4714 23.7655 18.0032 23.769C17.535 23.7725 17.0726 23.6653 16.6537 23.4561C17.0282 22.7486 17.5854 22.9729 18.0828 23.0013L18.164 23.0554Z" fill="#565656"/>
<path d="M48.5566 24.3276C48.3301 24.6554 48.0056 24.903 47.6295 25.0349C47.2535 25.1668 46.8454 25.1762 46.4637 25.0617C46.9846 24.6923 47.4948 24.3053 48.0396 23.9756C48.2337 24.0573 48.4095 24.177 48.5566 24.3276V24.3276Z" fill="#565656"/>
<path d="M48.0371 19.3559C48.6966 18.8039 49.4418 19.2291 50.1383 19.0987L50.1784 19.4758L48.1096 19.6935L48.0371 19.3559Z" fill="#565656"/>
<path d="M47.0547 19.0183C46.7432 19.2434 46.3718 19.3708 45.9877 19.3843C45.6036 19.3979 45.2242 19.2969 44.8976 19.0943L46.9652 18.6631L47.0547 19.0183Z" fill="#565656"/>
<path d="M23.871 25.1585C24.2322 24.8712 24.5796 24.5628 24.9648 24.3122C25.0428 24.2805 25.1294 24.2768 25.2098 24.3017C25.2903 24.3266 25.3596 24.3785 25.4061 24.4487C25.4526 24.5189 25.4734 24.6031 25.465 24.6869C25.4565 24.7706 25.4194 24.8489 25.3598 24.9084C24.9006 25.0968 24.419 25.2304 23.9448 25.3822L23.871 25.1585Z" fill="#565656"/>
<path d="M24.6108 35.2098C23.7344 34.8692 23.7344 34.8692 23.9833 33.9863C24.8553 34.3364 24.8553 34.3364 24.6108 35.2098Z" fill="#565656"/>
<path d="M43.5537 26.984L42.2478 26.6929C42.4931 26.4192 42.7945 26.2014 43.1314 26.0544C43.3892 26.2034 43.6108 26.4075 43.7804 26.6523L43.5537 26.984Z" fill="#565656"/>
<path d="M52.3254 22.6188L54.1755 22.0962L54.271 22.4162L52.4277 22.9641L52.3254 22.6188Z" fill="#565656"/>
<path d="M27.4902 37.457C27.6562 37.6232 27.7936 37.8157 27.8969 38.0266C27.8256 38.1642 27.7205 38.2813 27.5915 38.367C27.434 38.2483 27.2975 38.1041 27.1876 37.9404C27.2529 37.7596 27.356 37.5948 27.4902 37.457V37.457Z" fill="#565656"/>
<path d="M25.7799 27.4849L26.7639 26.7769C26.6218 27.4195 26.6218 27.4195 25.7799 27.4849Z" fill="#565656"/>
<path d="M42.542 22.3916L43.6648 22.5344C43.634 22.6444 43.5809 22.7468 43.5088 22.8354C43.4198 22.8933 43.3176 22.9277 43.2117 22.9355C43.1058 22.9432 42.9997 22.9241 42.9032 22.8798C42.8067 22.8355 42.7229 22.7675 42.6598 22.6821C42.5966 22.5968 42.5561 22.4968 42.542 22.3916V22.3916Z" fill="#565656"/>
<path d="M24.448 30.7117C24.6035 30.6667 24.7648 30.6455 24.9267 30.6488C25.1285 30.7289 25.3189 30.8356 25.4927 30.9659C25.2936 31.0569 25.0831 31.1208 24.867 31.1557C24.7134 31.1222 24.5664 31.0639 24.4315 30.9831L24.448 30.7117Z" fill="#565656"/>
<path d="M30.8578 41.937C30.7295 42.092 30.5691 42.2173 30.3878 42.3045C30.2453 42.2519 30.1191 42.1631 30.0215 42.0467C30.0939 41.9113 30.1991 41.7962 30.3273 41.7117C30.5185 41.747 30.6996 41.8239 30.8578 41.937V41.937Z" fill="#565656"/>
<path d="M45.2881 25.5052L44.7302 25.7782L44.6238 25.6079L45.1096 25.2449L45.2881 25.5052Z" fill="#565656"/>
</svg>
