<svg width="42" height="96" viewBox="0 0 42 96" fill="none" xmlns="http://www.w3.org/2000/svg">
<path d="M40.704 34.2633C40.7366 34.0838 40.7694 33.9045 40.8067 33.7271C41.2897 31.6428 41.5885 29.52 41.6996 27.3833C41.7224 26.7166 41.7242 26.0497 41.723 25.3829C41.7208 25.2191 41.7211 25.0555 41.723 24.892C41.7203 24.1319 41.718 23.3717 41.7366 22.6113C41.4818 20.3848 40.898 18.2083 40.0042 16.1531C38.8344 12.9153 36.9905 9.96284 34.5944 7.49092C33.2415 5.97104 31.7511 4.57938 30.1423 3.33365C27.0957 1.16526 23.449 0.000579429 19.7096 0.00170981C17.4429 0.0347046 15.1863 0.31021 12.9783 0.82352C11.4723 1.26057 10.0458 1.93505 8.75235 2.82152C5.07008 5.0261 2.21846 8.38448 0.640044 12.3755C0.211613 14.6753 0.142972 17.0277 0.436574 19.3486C0.547575 20.161 0.83529 20.9392 1.27947 21.6284C1.38037 21.8569 1.45968 22.0943 1.51636 22.3375C2.25569 24.1223 2.96678 25.9205 3.77885 27.6717C3.90419 27.8496 4.06716 27.9977 4.25619 28.1055C4.44521 28.2133 4.65566 28.2782 4.87258 28.2956C7.00309 28.4258 9.13851 28.4903 11.2731 28.5257C11.6626 28.486 12.038 28.3586 12.3712 28.1531C13.9107 27.3859 15.4603 26.6339 16.9557 25.7871C17.3665 25.5229 17.6578 25.1085 17.7672 24.6325C17.8264 23.5342 17.9495 22.4403 18.1357 21.3563C18.6457 20.0398 19.2233 18.7505 19.8662 17.4935C20.0891 17.1075 20.3882 16.7709 20.7453 16.5041C21.1024 16.2372 21.51 16.0458 21.9433 15.9414C22.3766 15.8369 22.8267 15.8217 23.2661 15.8966C23.7055 15.9714 24.1251 16.1348 24.4995 16.3769C26.2026 17.8731 27.4644 19.8063 28.1485 21.9676C28.861 23.7328 29.039 25.6684 28.6603 27.5338C28.2817 29.3993 27.3631 31.1123 26.0188 32.46C24.2843 34.0935 22.4437 35.6104 20.5089 37.0007C18.5205 38.6381 16.6588 40.4532 14.5497 41.9132C12.5061 43.3847 10.9792 45.4638 10.1868 47.8542C9.4209 50.1197 8.85419 52.4478 8.49314 54.812C8.29072 56.2196 8.23788 57.6446 8.33551 59.0634C8.41951 60.2423 8.56664 61.4159 8.77626 62.5791C9.26247 65.9647 9.73512 69.3527 10.2841 72.7283C10.3401 72.956 10.4496 73.1671 10.6034 73.3441C10.7573 73.5211 10.9511 73.6589 11.1689 73.746C12.5096 73.9811 13.8653 74.1215 15.2257 74.166C16.7124 74.2202 18.2039 74.1394 19.7061 74.1173C20.2983 74.3312 20.9465 74.3328 21.5398 74.1219C22.1331 73.9111 22.6347 73.5007 22.9591 72.961C23.2656 72.5352 23.6864 72.2047 24.1728 72.0078C24.6591 71.8109 25.1913 71.7556 25.7077 71.8483C26.6601 71.944 26.9889 71.5877 26.8609 70.5987C26.4197 67.9289 26.1359 65.2355 26.011 62.5325C25.9398 59.649 26.1769 56.7661 26.7181 53.933C27.2012 51.8932 28.0866 49.9702 29.3224 48.277C30.5942 46.4698 32.4396 45.0775 33.9226 43.4048C35.7441 41.3503 37.4968 39.2357 39.1808 37.061C39.7948 36.269 40.0663 35.2035 40.6465 34.3936C40.6653 34.3501 40.6843 34.3066 40.704 34.2633ZM16.3651 23.7608L13.1234 23.6193L12.9877 23.2533C13.3074 23.0688 13.6428 22.7065 13.9436 22.7333C14.8322 22.8124 15.9525 22.3763 16.5401 23.3464L16.3651 23.7608ZM13.4241 20.8292L16.8433 20.9784C16.3222 22.071 14.6636 21.9841 13.4241 20.8292H13.4241ZM14.2673 19.1292C14.775 18.8828 15.3375 18.771 15.9008 18.8046C16.4642 18.8381 17.0094 19.0158 17.4843 19.3207C16.9765 19.5668 16.414 19.6784 15.8508 19.6449C15.2875 19.6113 14.7423 19.4338 14.2673 19.1292L14.2673 19.1292ZM15.2991 17.6012C15.5398 16.7563 17.0568 16.6013 18.446 17.3162C17.3824 18.4033 16.327 17.6488 15.2991 17.6011L15.2991 17.6012ZM22.5575 70.0368C22.3115 70.0302 22.0755 69.6458 21.8349 69.4346C22.0276 69.2287 22.2522 69.0549 22.4999 68.9199C22.8472 68.8456 23.1993 68.7952 23.5535 68.7691C24.4556 68.5906 25.1976 68.6467 25.2396 69.8979C24.3241 69.956 23.4391 70.0603 22.5575 70.0368ZM25.0137 55.3684L24.9851 55.6731C24.2568 55.7434 23.5286 55.8136 22.8004 55.8838C23.4916 55.307 24.1899 54.815 25.0137 55.3684ZM23.7196 54.205C24.2059 52.992 24.6761 52.9003 25.4348 53.8616L23.7196 54.205ZM23.1114 56.8436C24.0258 56.6823 24.619 57.0088 24.814 57.6718C23.9466 57.7366 23.0738 57.8019 22.1407 57.8717C21.9568 57.0489 22.5776 56.9378 23.1114 56.8436V56.8436ZM22.8372 58.9647C23.3216 58.8748 23.815 58.8431 24.307 58.8702C24.517 58.9206 24.7156 59.0102 24.8923 59.1344C24.7534 59.2899 24.6323 59.557 24.4727 59.5824C23.5004 59.7377 22.5194 59.8379 21.5412 59.9565L21.3938 59.4843C21.8622 59.2777 22.3446 59.1041 22.8372 58.9647V58.9647ZM22.5806 60.6875C23.7262 60.5189 24.6014 60.9395 24.7396 61.6204C23.5743 61.811 22.4104 62.0014 21.2389 62.193C20.8947 60.9124 21.7876 60.8041 22.5806 60.6874V60.6875ZM22.8366 62.9002C23.25 62.7877 23.6795 62.747 24.1066 62.7799C24.403 62.8435 24.6652 63.015 24.8424 63.261C24.9042 63.344 24.6554 63.8466 24.5037 63.8702C23.5277 64.0213 22.5404 64.11 21.5539 64.1742C21.3793 64.1856 21.191 63.9858 21.009 63.8836L20.92 63.4662C21.5582 63.2741 22.1896 63.0545 22.8367 62.9002L22.8366 62.9002ZM21.8263 65.2195C22.7876 65.0182 23.7712 64.9239 24.8238 64.7779L24.9731 65.7881C23.9559 65.9226 23.0151 66.0845 22.0676 66.1518C21.7162 66.113 21.3741 66.0145 21.0559 65.8604C21.311 65.6384 21.5375 65.28 21.8263 65.2194L21.8263 65.2195ZM24.4321 67.7629L21.3294 67.9518C22.721 66.7224 24.0019 66.6913 24.4321 67.7629L24.4321 67.7629ZM39.1759 34.3401C38.5364 35.6908 37.73 36.956 36.7757 38.106C35.5032 39.8314 34.1229 41.4746 32.643 43.0259C30.6399 45.0483 28.4751 46.913 26.3486 48.8105C23.8918 50.8646 22.0193 53.5294 20.9194 56.5369C19.3094 61.5165 19.3825 66.8875 21.1273 71.8216C21.1904 72.0219 21.248 72.2241 21.3649 72.6151C20.9553 72.8062 20.519 72.9339 20.0709 72.9939C17.5254 72.8714 14.9832 72.6827 12.4388 72.5345C11.4623 72.4776 11.2544 71.7385 11.1237 71.0206C10.9227 69.9157 10.8398 68.7898 10.6897 67.6751C10.2522 64.4261 9.70937 61.1873 9.40732 57.926C9.38207 57.6396 9.37145 57.3522 9.37551 57.0647C9.35621 56.683 9.34184 56.3089 9.35673 55.9343C9.33946 55.5699 9.34583 55.2048 9.37582 54.8413C9.38534 54.7443 9.41197 54.6498 9.45447 54.5621C9.51423 54.1106 9.62782 53.6678 9.79283 53.2433C9.94627 52.3476 10.146 51.4605 10.3911 50.5855C10.6127 49.4259 11.0265 48.3114 11.6152 47.2881C12.5822 45.314 13.9937 43.591 15.7388 42.2544C19.373 39.6154 22.9522 36.8688 26.3091 33.8905C27.5345 32.8581 28.5168 31.568 29.1861 30.1122C29.8555 28.6564 30.1952 27.0708 30.1812 25.4686C30.13 24.8273 30.0117 24.1932 29.8282 23.5766C29.0672 20.2284 27.6982 17.1785 24.8737 15.093C23.2218 13.8119 21.1526 13.1907 19.0683 13.35C18.4344 13.361 17.8054 13.4631 17.2005 13.6533C16.2781 14.0727 15.4565 14.6856 14.7917 15.4503C14.1268 16.215 13.6341 17.1138 13.347 18.0856C12.2602 20.6599 11.6012 23.3945 11.396 26.1812C11.3438 26.3557 11.2475 26.5139 11.1165 26.6404C10.9854 26.7669 10.824 26.8575 10.6478 26.9036L10.5952 26.9007C10.3569 27.0757 10.0817 27.1936 9.79072 27.2456C8.56372 27.613 6.94144 27.2156 5.81673 27.1507C5.64288 27.1447 5.47646 27.0787 5.34582 26.9639C4.97088 26.8944 4.68227 26.5993 4.44745 26.0211C3.24318 23.0558 1.77838 20.2093 1.47345 16.8926C1.28457 14.8384 2.02945 13.2197 2.60438 11.4134C3.11941 10.0172 3.87016 8.71975 4.82394 7.57743C5.65704 6.60255 6.61311 5.73988 7.6682 5.01103C8.5971 4.24115 9.60062 3.56602 10.6638 2.99572C11.6635 2.5659 12.7019 2.23267 13.765 2.00056C14.9208 1.58679 16.1175 1.29767 17.3347 1.13814C19.8708 0.921409 22.4243 1.23379 24.8334 2.0555C27.2425 2.8772 29.4546 4.19031 31.3297 5.91164C34.1685 8.57969 36.8499 11.5436 38.3091 15.3519C39.5466 18.3116 40.3063 21.449 40.5598 24.647C40.85 27.9414 40.3764 31.2585 39.1759 34.3401V34.3401Z" fill="#565656"/>
<path d="M28.7944 85.8207C28.111 82.2311 25.8397 80.0167 22.6243 78.5139C20.6109 77.5729 18.6257 78.0578 16.78 78.6071C13.5114 79.5798 11.6069 82.1464 10.3854 85.2229C9.70365 86.9401 10.2101 88.5938 10.7646 90.2446C12.0622 94.1081 16.2032 97.1311 20.5857 95.5892C21.7128 95.1926 22.7505 94.5469 23.8414 94.0418C25.2994 93.4402 26.5459 92.4193 27.4229 91.1085C28.3 89.7976 28.768 88.2558 28.7676 86.6786C28.8165 86.3953 28.8255 86.1065 28.7944 85.8207ZM26.4468 83.7227L24.5304 83.3517C25.7177 82.6279 26.0833 82.7217 26.4468 83.7227V83.7227ZM22.4154 93.3133C21.5818 94.1133 20.4828 94.578 19.3283 94.6189C18.2285 94.9256 17.0572 94.8493 16.0065 94.4026C14.9558 93.9558 14.0882 93.1651 13.5461 92.1603C12.7247 90.6268 12.0433 89.0224 11.5101 87.3666C11.3723 86.8082 11.4186 86.2202 11.6421 85.6902C12.467 83.4742 13.3483 81.2525 15.7618 80.2545C16.4312 80.0439 17.1188 79.8959 17.8155 79.8122C19.1961 80.048 20.4947 80.6289 21.5906 81.5009C23.6747 82.9274 24.3629 85.0411 25.0462 87.2091C25.5393 88.7735 24.5467 92.4239 22.4154 93.3133V93.3133ZM25.4927 84.4503L27.2905 84.9647L27.1796 85.3451C26.5954 85.3881 25.9302 85.6948 25.4927 84.4503V84.4503ZM27.2643 87.6645L26.109 86.7398L26.2538 86.4214L27.4058 86.392L27.2643 87.6645Z" fill="#565656"/>
</svg>
