<svg width="82" height="76" viewBox="0 0 82 76" fill="none" xmlns="http://www.w3.org/2000/svg">
<path d="M11.8516 15.0835C12.5588 13.8728 13.3586 12.7081 13.9519 11.4412C14.9167 9.38068 15.7108 7.23596 16.6637 5.16916C16.8493 4.76668 17.4617 4.25516 17.8244 4.30516C21.7654 4.7677 25.7344 4.94908 29.7011 4.84793C35.9078 4.81832 42.0128 3.99754 48.1726 3.66645C51.5976 3.64889 55.0205 3.84125 58.422 4.24245C58.7594 4.31183 59.0652 4.48883 59.2934 4.74685C61.4013 6.87747 63.4568 9.06074 65.5916 11.1636C67.7537 13.2934 70.0795 15.2634 72.1668 17.4611C74.4383 19.8528 76.5152 22.4282 78.6827 24.9186C79.3473 25.6822 79.9918 26.4696 80.7141 27.1757C82.088 28.5189 82.1148 29.8292 80.8143 31.1433C80.4723 31.5147 80.2486 31.9795 80.1718 32.4785C79.6679 35.7822 79.2064 39.0941 78.7554 42.4074C78.1124 47.1318 77.437 51.8516 76.8742 56.5884C76.3414 61.0729 75.9405 65.5775 75.4706 70.0717C75.3023 70.6467 74.9685 71.1594 74.5109 71.5461C74.0533 71.9328 73.492 72.1764 72.897 72.2464C71.7099 72.2303 37.0245 75.8018 33.648 75.2135C31.3409 74.9124 29.0186 74.7411 26.6923 74.7003C23.6736 74.5193 20.6544 74.3254 17.6352 74.2144C16.3012 74.1654 14.9677 74.3185 13.6324 74.3548C13.1305 74.3684 12.6239 74.2939 12.1202 74.289C10.8437 74.1985 9.56192 74.2102 8.28723 74.324C8.08965 74.386 7.88147 74.4069 7.67551 74.3854C7.46955 74.3639 7.27016 74.3005 7.08962 74.1991C6.90908 74.0977 6.75121 73.9604 6.62572 73.7956C6.50023 73.6309 6.40977 73.4423 6.35992 73.2413C5.89965 71.7251 5.58114 70.1696 5.40848 68.5945C5.00662 64.2475 4.77218 59.8912 4.40127 55.542C4.03675 51.2678 3.65139 46.9925 3.14927 42.728C2.82486 39.9727 2.28804 37.234 1.80247 34.4942C1.75769 34.3363 1.67858 34.1902 1.57079 34.0664C1.463 33.9425 1.32919 33.844 1.17892 33.7779C-0.0883277 33.3816 0.144273 32.657 0.655443 31.887C2.37292 29.2998 4.08574 26.7088 5.85644 24.1592C6.04756 23.8661 6.17018 23.5338 6.21519 23.1869C6.2602 22.84 6.22645 22.4874 6.11644 22.1553C5.77844 20.2459 5.76505 18.292 5.57873 16.3587C5.31728 13.6458 4.99536 10.9364 4.75006 8.22279C4.68776 7.53359 4.47743 7.19614 3.75024 7.18479C2.68682 7.16821 2.3544 6.50351 2.36386 5.54322C2.37322 4.59311 2.37847 3.63927 2.30842 2.69007C2.2303 1.63177 2.65749 1.14019 3.7187 1.21592C6.99203 1.47856 10.2857 1.31129 13.5155 0.71838C14.4184 0.54548 14.8137 1.15895 14.6509 2.0878C14.4835 2.96204 14.4212 3.85313 14.4651 4.74216C14.5235 5.61398 14.3308 6.09993 13.3919 6.05027C12.2209 5.98827 11.8865 6.52391 11.8754 7.69098C11.8561 9.71027 11.5864 11.7179 11.4467 13.733C11.4455 14.1497 11.4738 14.5661 11.5315 14.9788L11.8516 15.0835ZM19.8612 6.46032L19.5559 6.95827C20.943 8.6397 22.3043 10.343 23.7252 11.9957C24.8987 13.3605 26.2421 14.5906 27.3334 16.0132C29.2347 18.4918 30.9665 21.097 32.8331 23.6027C34.2201 25.4646 36.023 27.0982 37.0673 29.1153C38.2587 31.4166 40.0878 31.6914 42.0573 31.5926C47.177 31.336 52.2783 30.8666 57.3909 30.5203C63.1463 30.1304 68.9059 29.7812 74.6639 29.4166C76.284 29.314 77.905 29.2193 79.9433 29.0957C79.4201 28.2213 78.8451 27.3789 78.2216 26.5729C77.2925 25.517 76.2296 24.5792 75.2624 23.5547C72.5717 20.7046 69.9641 17.7732 67.2034 14.993C64.8063 12.5789 62.2784 10.2901 59.7413 8.02138C58.6123 7.01181 57.409 5.91019 55.7927 5.89963C48.9124 5.85457 42.0339 5.87078 35.1547 5.86518C34.0822 5.86433 33.0036 5.80536 31.9387 5.87875C29.1036 6.0742 26.278 6.36399 23.4412 6.53975C22.2575 6.61308 21.0551 6.49265 19.8612 6.46032ZM63.0999 32.9902C61.5322 34.7823 60.2645 34.8185 58.5938 34.0524C57.7693 33.6743 57.2283 33.5525 56.5129 34.1233C55.9565 34.6344 55.2464 34.9466 54.4937 35.011C53.7409 35.0754 52.9881 34.8885 52.3529 34.4794C52.1959 34.3389 52.0124 34.2312 51.8131 34.1628C51.6138 34.0943 51.4029 34.0665 51.1927 34.0808C50.9824 34.0952 50.7772 34.1514 50.5891 34.2464C50.401 34.3413 50.2338 34.4729 50.0973 34.6334C49.5612 35.1156 48.8861 35.4156 48.1689 35.4904C47.4517 35.5652 46.7292 35.411 46.1051 35.0499C45.6361 34.7345 45.0814 34.5711 44.5164 34.5817C43.9513 34.5924 43.4032 34.7766 42.9465 35.1094C42.7215 35.2645 42.3655 35.2269 42.0757 35.2991C39.7004 35.8905 39.4073 36.2515 39.2697 38.7818C39.2463 39.2122 39.2864 39.6481 39.2656 40.0788C39.1366 42.7539 38.9896 45.4276 38.8662 48.1031C38.7512 50.5962 38.6432 53.0901 38.563 55.5857C38.5325 56.5366 38.6498 57.499 38.5933 58.4461C38.3648 62.2771 38.0593 66.1011 37.8665 69.9349C37.902 70.8528 38.0244 71.7653 38.2319 72.6602C40.1199 72.6918 42.0081 72.6046 43.8851 72.399C47.6014 71.758 51.2874 70.9538 54.9567 70.106C60.6567 68.789 66.4729 69.3265 72.2658 69.5183C73.6453 69.564 74.094 69.4237 74.2485 68.0568C74.533 65.5387 74.7416 63.0095 75.0025 60.4878C75.3385 57.2408 75.6249 53.9849 76.0579 50.7538C76.7991 45.2225 77.6419 39.7083 78.4242 34.1838C78.4281 33.844 78.3902 33.5049 78.3114 33.1743C77.1015 33.0739 75.9842 32.9667 74.8659 32.8936C74.1499 32.7345 73.4086 32.7273 72.6896 32.8725C72.0233 33.228 71.2656 33.3758 70.5145 33.2966C69.7634 33.2174 69.0533 32.9149 68.4757 32.4281C66.1714 34.2416 65.5818 34.3053 63.0999 32.9902ZM18.922 14.1977C18.4924 16.0037 18.4759 15.9812 16.8445 17.1475C16.6722 17.2701 16.5283 17.4284 16.4226 17.6116C16.3168 17.7947 16.2516 17.9985 16.2315 18.209C16.3107 19.469 15.4294 19.9977 14.6875 20.6976C14.3812 21.0944 14.1425 21.539 13.9808 22.0135C13.5398 22.8953 13.1174 23.7873 12.6609 24.6605C12.4098 25.1408 11.9394 25.5586 11.8562 26.062C11.8062 26.6807 11.6065 27.2779 11.2745 27.8024C10.9424 28.3268 10.4879 28.7626 9.95 29.0724C9.7785 29.1711 9.62844 29.303 9.50862 29.4605C9.38881 29.618 9.30165 29.7978 9.25227 29.9894C9.15633 31.0647 8.68883 32.0729 7.93012 32.8409C7.17141 33.6089 6.16888 34.0886 5.09485 34.1975C3.57108 34.455 3.33878 34.7955 3.62675 36.3751C3.71203 36.8428 3.85318 37.3047 3.90766 37.7742C4.23766 40.618 4.5023 43.4678 4.88058 46.3066C5.33794 49.7389 5.98389 53.1546 6.37222 56.5912C6.91677 61.4103 7.27427 66.2439 7.78979 71.0657C7.84023 71.5374 8.3963 72.3023 8.78529 72.3618C10.316 72.5704 11.8599 72.6676 13.4047 72.6524C13.6971 72.6542 14.2477 72.1412 14.2165 71.9131C13.9996 70.3265 13.6743 68.7502 13.3572 67.175C12.8706 65.3698 12.5028 63.5345 12.2561 61.6812C12.0475 58.4962 12.211 55.3016 12.075 52.1121C12.0122 49.8793 12.576 47.6736 13.7026 45.7449C14.2033 44.8769 14.8766 44.1209 15.681 43.5234C17.7261 41.9691 20.156 41.6538 22.7271 41.6C25.8256 41.5353 29.1829 43.1666 30.3138 45.9827C31.3602 48.421 32.1176 50.9735 32.5704 53.5879C32.8456 55.959 32.7743 58.3574 32.3589 60.7079C32.0239 62.938 32.3508 65.2554 31.5538 67.4237C31.1098 68.7083 30.78 70.0296 30.568 71.3721C30.5318 71.8921 30.677 72.4085 30.9789 72.8334C31.1273 73.0565 34.0849 72.8154 35.0754 72.8412C36.2015 72.8706 36.385 72.476 36.3527 71.5297C36.2985 69.9423 36.2522 68.3486 36.3343 66.7689C36.4767 64.0284 36.7509 61.2996 36.9128 58.5605C37.1367 54.7745 37.3462 50.9865 37.4908 47.1941C37.6342 43.436 37.7251 39.6741 37.7636 35.9086C37.7764 34.6877 36.5871 33.0443 35.5007 32.9728C32.9634 32.8057 32.0399 31.126 31.3807 29.0942C29.424 28.5597 28.7596 26.9488 28.1097 25.3055C27.9502 24.9021 27.6777 24.2471 27.421 24.2201C25.8833 24.0581 25.5173 22.821 24.934 21.7624C24.7957 21.5114 24.7082 21.1032 24.5112 21.0333C22.249 20.2313 21.247 18.6531 21.4212 16.6952L18.922 14.1977ZM28.2527 73.1416C28.5488 72.0296 28.8113 71.2234 28.9739 70.3944C29.2693 68.8886 29.2089 67.2215 29.8367 65.8906C30.7389 63.978 30.591 61.9528 30.8952 59.9812C31.1487 58.3382 30.2243 50.112 29.4432 47.7244C29.1801 46.7841 28.6869 45.9242 28.0081 45.2223C27.3292 44.5205 26.4862 43.999 25.5552 43.7048C24.2159 43.3271 22.8172 43.2065 21.433 43.3491C18.3696 43.6682 15.7632 44.7621 14.4124 47.8511C12.7774 51.5898 13.2481 55.552 13.5543 59.437C13.9463 62.9737 14.5267 66.487 15.2931 69.9619C15.4477 70.8572 15.8147 71.7025 16.3633 72.4267C16.6143 72.7356 17.5417 72.509 18.1621 72.5152C20.0469 72.534 21.9324 72.5665 23.8161 72.5546C25.3094 72.6189 26.794 72.8154 28.2527 73.1416H28.2527ZM7.55825 20.6552L7.99271 20.6321C9.29501 19.0502 10.0129 17.068 10.0256 15.0191C9.97621 12.4313 10.1632 9.848 10.1722 7.25986C10.1737 6.83393 9.83155 6.06094 9.57264 6.01776C8.51976 5.89758 7.45991 5.84926 6.40045 5.87314C6.79872 10.9581 7.17849 15.8066 7.55825 20.6552ZM18.0142 7.11018L17.6241 7.04762C17.4244 7.46085 17.2358 7.8802 17.0229 8.28623C16.0034 10.2311 15.0671 12.2288 13.9291 14.0994C12.7237 16.0808 11.2945 17.9199 10.0173 19.8579C8.50074 22.1593 7.01747 24.483 5.56747 26.8292C4.57947 28.4299 3.67801 30.0859 2.73785 31.7172L3.12565 31.9695C3.80953 30.9907 4.52433 30.0325 5.17165 29.0293C7.26795 25.7805 9.37441 22.5376 11.4113 19.2503C13.692 15.5696 15.9109 11.8489 18.1181 8.12191C18.2553 7.89025 18.0566 7.45223 18.0142 7.11022V7.11018ZM12.3682 2.68149C9.7854 2.80287 7.25729 2.88833 4.74174 3.08503C4.44966 3.10788 4.22722 3.7477 3.97249 4.10147C4.52017 4.17379 5.07465 4.17856 5.62349 4.11568C7.4823 4.14068 9.34505 4.13925 11.2004 4.2846C12.4431 4.382 12.7646 3.93937 12.3682 2.68153V2.68149ZM32.8217 27.2813L32.8495 26.8878C32.5149 26.4968 32.1699 26.114 31.8486 25.7126C31.5263 25.2487 31.1801 24.8019 30.8114 24.374C30.4331 23.992 29.6063 23.6769 29.6507 24.3713C29.7644 25.4172 30.1689 26.4103 30.8184 27.238C31.0682 27.5652 32.1296 27.2851 32.8217 27.2813ZM8.02555 27.1549C9.30697 27.7437 10.0453 27.3795 10.4351 26.4213C10.7328 25.6894 10.9443 24.867 9.85913 24.3389L8.02555 27.1549ZM46.0312 32.959C46.3498 33.2958 46.7484 33.5464 47.19 33.6875C47.6315 33.8285 48.1016 33.8554 48.5564 33.7657C49.0112 33.6759 49.4358 33.4724 49.7907 33.1742C50.1455 32.8759 50.4191 32.4927 50.5858 32.0601L46.0312 32.959ZM25.5508 19.4972L25.9223 18.9824C25.1455 18.0778 24.3688 17.1733 23.5921 16.2687L23.1057 16.4154C23.1785 17.0635 23.0204 17.9253 23.3782 18.3096C24.0327 18.8214 24.7666 19.2226 25.5508 19.4972ZM56.7767 32.1342L56.5054 31.804C55.453 31.8851 54.4006 31.9663 53.3482 32.0475L53.3034 32.7415C53.9261 33.0404 54.6008 33.2159 55.2903 33.2581C55.8399 33.1745 56.2853 32.5308 56.7767 32.1342V32.1342ZM6.91436 28.8109C6.44866 29.7556 6.00496 30.6557 5.55489 31.5687C6.42417 32.3037 6.90033 31.753 7.29345 31.2284C7.85466 30.4796 8.1951 29.6749 6.91436 28.8109ZM39.2111 33.7282C40.6571 33.9838 42.1196 34.3685 43.3896 32.9661C41.7673 32.8889 40.3375 32.6253 39.2111 33.7282V33.7282ZM62.0661 32.1855L61.8165 31.7319C60.7866 31.654 59.7568 31.5762 58.7269 31.4984L58.5367 31.9663C59.0992 32.2994 59.6586 32.8737 60.2248 32.9005C60.8353 32.9294 61.4521 32.4456 62.0661 32.1855L62.0661 32.1855ZM78.8221 30.4895L75.1271 30.6788C76.5101 32.1884 77.6575 32.1463 78.8221 30.4895H78.8221ZM64.1914 31.1187C65.6653 32.852 66.5706 32.8037 67.4199 31.2061L64.1914 31.1187ZM33.6626 28.8254C33.3036 30.7017 34.2982 31.6921 35.6587 31.1581C34.967 30.3497 34.3149 29.5875 33.6627 28.8254H33.6626ZM26.8183 20.161L26.3946 20.3876C26.6313 21.0957 26.9298 21.7816 27.2866 22.4374C27.4041 22.6224 28.0342 22.493 28.4295 22.5076C28.3578 22.1748 28.3845 21.7654 28.194 21.5251C27.7659 21.0407 27.3063 20.585 26.8183 20.161H26.8183ZM13.412 19.175C15.1208 18.7009 15.759 17.4508 15.0151 16.1474L13.412 19.175ZM10.9579 22.7875L11.2076 23.1432C11.6072 22.9826 12.2243 22.9284 12.3586 22.6379C12.5292 22.0661 12.6115 21.4715 12.6026 20.8748L12.0815 20.7227C11.707 21.411 11.3325 22.0992 10.9579 22.7875L10.9579 22.7875ZM73.2661 31.1434C71.3386 30.66 71.2516 30.7129 71.333 32.1432C72.0387 31.7782 72.6524 31.4608 73.2661 31.1434ZM17.5468 13.1978L17.1833 12.9505C16.8821 13.5268 16.5719 14.0987 16.3069 14.6921C16.4872 14.8314 16.6779 14.9567 16.8773 15.0669C17.1216 14.5244 17.3703 13.9838 17.604 13.4364C17.6293 13.3771 17.5679 13.2783 17.5468 13.1978ZM24.5464 14.6434L24.2248 14.9433L26.3014 16.9355L26.4736 16.7774C25.8312 16.0661 25.1888 15.3548 24.5464 14.6434Z" fill="#565656"/>
<path d="M52.9534 56.6424C52.8405 57.1888 52.7724 57.7434 52.7497 58.3008C52.8124 59.8264 52.4477 60.4307 51.0022 60.4383C48.2036 60.453 45.3992 60.3605 42.5981 60.2327C42.3886 60.1806 42.1951 60.078 42.0345 59.9338C41.8739 59.7896 41.7512 59.6081 41.6771 59.4054C41.1824 54.9362 40.3414 50.4579 41.0236 45.983C41.41 43.4491 42.1499 41.0843 44.4964 39.5929C45.4198 39.0952 46.4676 38.8756 47.513 38.9608C48.5585 39.046 49.5569 39.4322 50.3875 40.0729C51.4439 41.0296 52.2839 42.2006 52.8518 43.5078C53.4196 44.815 53.7021 46.2283 53.6804 47.6533C53.6764 48.0431 53.277 54.048 52.9534 56.6424ZM49.8435 48.9809C49.2834 48.927 48.7197 48.9206 48.1584 48.9616C47.8455 49.0074 47.3616 49.2831 47.3311 49.5171C47.1952 50.6577 47.1204 51.8048 47.107 52.9535C47.0821 54.0716 47.1967 55.2007 47.1238 56.3123C47.0644 57.2188 46.8231 58.2557 47.8208 58.6846C49.084 59.2276 51.2188 58.4462 51.4131 57.427C51.8026 55.4522 52.0683 53.4549 52.2088 51.447C52.361 49.0465 52.2703 49.0377 49.8435 48.9809ZM44.3905 48.8214C41.7853 48.7914 41.7883 48.7914 41.9581 51.1431C41.9863 51.5323 41.9316 51.928 41.9887 52.3122C42.2428 54.0215 42.5029 55.7306 42.8027 57.4338C42.8194 57.634 42.8819 57.8276 42.9856 57.9996C43.0893 58.1717 43.2312 58.3174 43.4004 58.4256C43.5696 58.5338 43.7615 58.6015 43.9612 58.6234C44.1608 58.6454 44.3628 58.6209 44.5515 58.552C44.8396 58.438 45.0965 58.257 45.3008 58.0241C45.5052 57.7911 45.6512 57.5128 45.7266 57.2123C45.9766 54.8209 46.0127 52.4007 46.2016 49.9995C46.2763 49.0498 45.9334 48.715 45.0378 48.7968C44.7374 48.8242 44.4331 48.82 44.3905 48.8214H44.3905ZM52.14 47.0852C51.7501 43.5591 50.2399 41.2787 47.8077 40.6483C47.6408 42.7949 47.4768 44.9055 47.3175 46.9546L52.14 47.0852ZM46.1943 40.6073C43.6228 41.2287 42.4158 44.042 42.2701 47.0168L46.2454 47.1244L46.1943 40.6073Z" fill="#565656"/>
<path d="M20.8915 21.4555C21.7571 21.6582 22.5678 22.0481 23.2668 22.5975C23.9657 23.147 24.5358 23.8428 24.9372 24.6361C25.4543 25.3859 25.7569 26.2627 25.8122 27.1719C25.8676 28.081 25.6736 28.9881 25.2513 29.7951C24.8587 30.6589 24.2386 31.3998 23.4574 31.9385C22.6763 32.4772 21.7633 32.7933 20.8163 32.8531C18.7537 32.8593 16.3448 32.5366 14.7666 30.6284C13.4307 29.0131 14.2705 27.3116 14.695 25.6992C14.9672 24.8905 15.3601 24.1276 15.8603 23.4363C16.8394 21.8926 18.3168 21.275 20.8915 21.4555ZM19.7722 30.2764C19.7659 28.1463 19.4598 27.8671 17.5128 28.1046C17.1709 28.1478 16.8317 28.2098 16.4967 28.2904C15.4057 28.5483 15.1069 29.1547 15.8997 29.9011C16.6331 30.4957 17.4761 30.9406 18.3809 31.2105C19.2674 31.5341 19.9785 31.355 19.7722 30.2764ZM20.8821 22.8309C20.2523 25.7622 20.9519 26.9854 24.0867 26.3649C23.8629 24.4616 22.4842 23.6541 20.8821 22.831V22.8309ZM19.2 26.5647C19.1934 25.7154 19.2233 24.907 19.1709 24.1011C19.1145 23.2349 18.7183 23.1031 17.9617 23.5056C16.6987 24.1776 16.4939 25.4612 15.7611 26.8233L19.2 26.5647ZM21.2969 31.0863C23.2151 30.9229 24.1202 30.0791 24.0722 28.5729C23.1687 28.4348 22.2558 28.2953 21.2739 28.1452L21.2969 31.0863Z" fill="#565656"/>
<path d="M17.1186 53.3599C16.0969 53.4573 15.3443 52.9645 15.4876 52.0178C15.8396 49.6915 16.2806 47.2911 18.5669 46.019C21.674 44.2903 26.3071 44.9945 27.5914 49.3937C27.8447 50.2611 28.0018 51.153 28.227 52.0282C28.4757 52.9948 27.8908 53.3302 27.1377 53.5417C26.9313 53.6053 26.7163 53.6367 26.5003 53.6351C24.2715 53.5515 18.008 53.2751 17.1186 53.3599ZM23.4804 47.2857C22.255 46.3885 21.0707 46.8614 19.9234 47.2139C19.7955 47.3221 19.6982 47.4619 19.6412 47.6194C19.5842 47.7768 19.5695 47.9465 19.5985 48.1115C20.0982 49.2336 20.7031 50.3119 21.2999 51.4614L23.4804 47.2857ZM23.2893 51.5527L26.8506 52.0508L25.7473 48.9149L25.126 48.8414C24.5529 49.6875 23.9797 50.5335 23.2893 51.5527V51.5527ZM16.8261 51.5784L19.697 51.5023L17.8394 48.9143L16.8261 51.5784Z" fill="#565656"/>
<path d="M25.8277 58.8477C27.0831 58.8861 27.7826 59.4618 27.7982 60.4698C27.759 60.978 27.5604 61.4609 27.2306 61.8496C26.9009 62.2383 26.4568 62.513 25.9618 62.6346C25.4083 62.5064 24.9046 62.2184 24.5134 61.8065C24.1221 61.3945 23.8605 60.8767 23.7609 60.3174C23.7507 59.4773 24.6852 58.8128 25.8277 58.8477Z" fill="#565656"/>
<path d="M70.1492 55.5448C70.0363 56.0911 69.9682 56.6457 69.9455 57.2031C70.0082 58.7287 69.6435 59.3331 68.198 59.3406C65.3994 59.3553 62.595 59.2629 59.7939 59.135C59.5844 59.083 59.3909 58.9804 59.2303 58.8361C59.0697 58.6919 58.947 58.5105 58.8729 58.3077C58.3782 53.8386 57.5372 49.3603 58.2194 44.8853C58.6058 42.3515 59.3457 39.9866 61.6922 38.4952C62.6156 37.9975 63.6634 37.778 64.7088 37.8631C65.7543 37.9483 66.7527 38.3346 67.5833 38.9752C68.6396 39.9319 69.4797 41.103 70.0476 42.4102C70.6154 43.7174 70.8979 45.1306 70.8762 46.5556C70.8722 46.9455 70.4728 52.9504 70.1492 55.5448ZM67.0393 47.8832C66.4792 47.8294 65.9155 47.8229 65.3542 47.864C65.0413 47.9097 64.5574 48.1854 64.5269 48.4194C64.391 49.5601 64.3162 50.7072 64.3028 51.8558C64.2779 52.974 64.3925 54.103 64.3196 55.2147C64.2602 56.1211 64.0189 57.158 65.0166 57.5869C66.2798 58.1299 68.4146 57.3485 68.6089 56.3293C68.9984 54.3545 69.2641 52.3573 69.4046 50.3493C69.5568 47.9489 69.4661 47.94 67.0393 47.8832ZM61.5863 47.7238C58.9811 47.6938 58.9841 47.6937 59.1539 50.0455C59.1821 50.4347 59.1274 50.8303 59.1845 51.2145C59.4386 52.9238 59.6987 54.6329 59.9985 56.3362C60.0152 56.5363 60.0777 56.7299 60.1814 56.902C60.2851 57.074 60.427 57.2197 60.5962 57.3279C60.7654 57.4361 60.9573 57.5038 61.157 57.5257C61.3566 57.5477 61.5586 57.5232 61.7472 57.4543C62.0354 57.3403 62.2923 57.1593 62.4966 56.9264C62.701 56.6934 62.8469 56.4151 62.9224 56.1146C63.1725 53.7232 63.2085 51.303 63.3974 48.9018C63.4721 47.9521 63.1292 47.6173 62.2335 47.6991C61.9332 47.7265 61.6289 47.7224 61.5863 47.7238H61.5863ZM69.3357 45.9875C68.9459 42.4614 67.4357 40.181 65.0035 39.5506C64.8366 41.6973 64.6725 43.8078 64.5132 45.857L69.3357 45.9875ZM63.3901 39.5096C60.8185 40.1311 59.6116 42.9443 59.4658 45.9191L63.4411 46.0267L63.3901 39.5096Z" fill="#565656"/>
</svg>
