<svg width="91" height="135" viewBox="0 0 91 135" fill="none" xmlns="http://www.w3.org/2000/svg">
<path d="M14.4162 29.1462C10.1045 32.0543 6.46464 34.3589 5.5733 36.6769C4.52629 39.4 4.6142 51.3525 5.80754 65.0718C6.91205 77.7693 10.6921 98.026 17.6173 106.593C26.8054 117.96 41.1421 122.983 44.3375 124.775C46.7021 126.1 48.4208 128.394 49.6548 129.874C46.6563 124.717 32.0683 116.468 28.8835 115.017C16.6192 109.427 8.77751 93.7958 7.97792 88.476C7.58674 85.8725 5.81926 73.3851 5.80754 65.0718" stroke="black" stroke-width="0.5" stroke-miterlimit="1.5" stroke-linecap="round" stroke-linejoin="round"/>
<path d="M82.6765 90.7384C72.8512 108.067 61.2118 112.001 55.9236 118.683C52.557 122.937 52.7326 122.086 50.3562 126.004" stroke="black" stroke-width="0.5" stroke-miterlimit="1.5" stroke-linecap="round" stroke-linejoin="round"/>
<path d="M81.3842 31.5499C85.4319 34.458 88.7702 35.9105 89.607 38.2285C90.5899 40.9516 91.2111 51.0682 89.9017 64.7709C88.5273 79.1551 84.7338 89.3171 78.667 96.4564C69.5594 107.174 66.681 107.313 55.6108 118.939C53.663 120.985 48.8755 127.045 48.0274 130" stroke="black" stroke-width="0.5" stroke-miterlimit="1.5" stroke-linecap="round" stroke-linejoin="round"/>
<path d="M58.9178 116.262C60.4234 115.773 63.7993 113.637 66.5304 111.582C68.14 110.371 70.4738 107.631 72.857 106.845C74.058 105.482 75.0814 104.909 76.1634 105.488C76.8091 105.834 74.4433 107.133 72.857 106.845L74.6536 103.881C75.776 102.359 76.98 101.412 78.1014 101.776C78.9365 102.046 76.3324 103.647 74.6536 103.881L75.6823 100.402C77.8514 100.37 79.9353 99.4613 78.9757 98.9957C77.9587 98.5023 77.1042 99.0818 75.6823 100.402C74.5373 99.077 73.5194 98.2256 72.8061 99.0851C72.3447 99.6409 74.5994 101.428 75.6823 100.402L75.8722 97.9406C76.6073 96.6193 75.2132 94.5158 74.7495 94.598C74.16 94.7027 74.727 97.1804 75.8722 97.9406" stroke="black" stroke-width="0.5" stroke-miterlimit="1.5" stroke-linecap="round" stroke-linejoin="round"/>
<path d="M57.5443 116.913C58.9946 115.961 64.4657 114.09 72.3473 113.967C74.0415 114.063 77.1452 115.869 76.4912 116.186C75.2614 116.783 73.8681 115.587 72.3473 113.967C73.378 113.819 74.3177 113.617 74.775 113.135C76.1817 112.814 79.3965 112.557 78.157 113.504C77.3922 114.088 75.9844 114.047 74.775 113.135C75.8042 111.866 76.858 110.655 78.3336 110.442C79.166 110.321 76.5282 112.618 74.775 113.135" stroke="black" stroke-width="0.5" stroke-miterlimit="1.5" stroke-linecap="round" stroke-linejoin="round"/>
<path d="M55.5298 115.89C56.946 114.948 59.1413 112.742 59.292 112.358C59.5526 111.694 59.1528 111.343 58.684 111.378C58.1185 111.42 57.618 111.813 57.4423 112.303C57.1383 113.15 57.3453 113.201 57.0581 114.679" stroke="black" stroke-width="0.5" stroke-miterlimit="1.5" stroke-linecap="round" stroke-linejoin="round"/>
<path d="M61.9319 119.912C63.0639 119.705 65.6749 120.842 64.8519 121.179C63.4333 121.76 62.4114 121.447 61.9319 119.912ZM61.9319 119.912C61.2944 118.996 61.2063 118.143 61.7662 117.366C61.6591 118.152 63.865 120.038 63.9858 119.385C64.1254 118.632 63.2104 117.494 61.7662 117.366C58.8061 115.55 57.2251 116.883 55.7587 118.478L57.0775 118.54C58.2336 117.556 60.432 117.731 59.9137 118.336C59.598 118.705 58.2695 119.383 57.0775 118.54" stroke="black" stroke-width="0.5" stroke-miterlimit="1.5" stroke-linecap="round" stroke-linejoin="round"/>
<path d="M52.2789 116.919C53.5036 114.768 55.9805 115.695 55.5476 118.552" stroke="black" stroke-width="0.5" stroke-miterlimit="1.5" stroke-linecap="round" stroke-linejoin="round"/>
<path fill-rule="evenodd" clip-rule="evenodd" d="M51.6681 123.229C49.9099 124.281 49.8634 126.124 50.4559 126.869C50.7702 127.264 52.0562 127.285 52.6191 127.038C53.3925 126.7 53.6253 126.338 53.8888 125.641C54.0923 125.103 53.5892 124.059 52.7909 123.49C54.4344 124.868 55.4966 124.872 57.1033 123.431C57.8904 122.725 58.5895 121.501 57.8857 120.937C57.1645 120.358 56.0662 120.026 55.0829 120.172C54.563 120.249 53.9947 120.604 53.4762 121.391C54.2496 120.483 55.408 119.469 55.5849 118.592C55.8149 117.451 55.9242 116.531 55.5719 115.881C55.0038 114.834 54.0654 114.711 53.3735 115.295C52.9224 115.676 52.6664 115.981 52.3724 116.568C51.9117 117.489 52.5587 119.896 52.5583 121.008C52.3968 119.287 52.3748 117.312 50.9297 116.382C50.0431 115.811 49.1966 115.901 48.7476 116.915C48.7164 116.985 48.6987 117.059 48.6717 117.129C48.1329 118.534 49.8933 120.236 51.5269 121.556C50.7207 120.865 50.4072 120.426 49.7618 120.3C48.2644 120.007 47.3967 120.891 47.1889 121.04C46.4592 121.561 46.4812 123.042 47.6181 123.627C48.2388 123.947 49.6367 124.083 51.6681 123.229Z" fill="#FFFDFD" stroke="black" stroke-width="0.5" stroke-miterlimit="1.5" stroke-linecap="round" stroke-linejoin="round"/>
<path d="M51.0989 122.261C50.5504 122.306 50.6292 122.31 50.4019 122.266" stroke="black" stroke-width="0.5" stroke-miterlimit="1.5" stroke-linecap="round" stroke-linejoin="round"/>
<path d="M49.2145 119.327C48.6153 117.275 49.4305 115.618 52.1087 117.498" stroke="black" stroke-width="0.5" stroke-miterlimit="1.5" stroke-linecap="round" stroke-linejoin="round"/>
<path d="M53.7441 122.32C54.1189 122.185 54.1427 122.165 54.4889 122.275" stroke="black" stroke-width="0.5" stroke-miterlimit="1.5" stroke-linecap="round" stroke-linejoin="round"/>
<path d="M47.8401 123.621C47.2684 122.052 46.7743 120.727 50.0779 120.315" stroke="black" stroke-width="0.5" stroke-miterlimit="1.5" stroke-linecap="round" stroke-linejoin="round"/>
<path fill-rule="evenodd" clip-rule="evenodd" d="M53.1582 123.236C52.5229 123.781 51.9947 123.574 51.6793 123.226C51.1746 122.685 51.1526 121.941 51.5359 121.573C51.9339 121.19 52.6176 120.965 53.4741 121.399C53.6415 121.483 53.8364 122.653 53.1582 123.236Z" fill="#FFFDFD" stroke="black" stroke-width="0.5" stroke-miterlimit="1.5" stroke-linecap="round" stroke-linejoin="round"/>
<path fill-rule="evenodd" clip-rule="evenodd" d="M52.1443 122.508C52.1967 122.102 52.5185 122.141 52.7787 122.269C52.9101 122.334 52.6886 122.645 52.4401 122.698C52.2438 122.74 52.1215 122.685 52.1443 122.508Z" fill="black" stroke="black" stroke-width="0.5" stroke-miterlimit="1.5" stroke-linecap="round" stroke-linejoin="round"/>
<path d="M52.2489 123.612C52.2919 123.836 52.3401 123.993 52.1874 124.227" stroke="black" stroke-width="0.5" stroke-miterlimit="1.5" stroke-linecap="round" stroke-linejoin="round"/>
<path d="M51.9981 121.172C51.8155 121 51.7338 120.98 51.6838 120.693" stroke="black" stroke-width="0.5" stroke-miterlimit="1.5" stroke-linecap="round" stroke-linejoin="round"/>
<path d="M53.085 121.226C52.949 121.071 53.0358 120.964 53.1584 120.786" stroke="black" stroke-width="0.5" stroke-miterlimit="1.5" stroke-linecap="round" stroke-linejoin="round"/>
<path fill-rule="evenodd" clip-rule="evenodd" d="M63.766 109.193C64.4264 107.289 66.997 106.681 66.9827 109.917Z" fill="white"/>
<path d="M63.766 109.193C64.4264 107.289 66.997 106.681 66.9827 109.917" stroke="black" stroke-width="0.5" stroke-miterlimit="1.5" stroke-linecap="round" stroke-linejoin="round"/>
<path fill-rule="evenodd" clip-rule="evenodd" d="M64.5799 114.23C63.3291 115.333 64.2527 115.906 64.8377 116.415C65.148 116.684 65.742 116.856 66.2201 116.709C66.5529 116.607 67.1462 116.201 67.2528 115.709C67.4379 114.854 66.0556 114.553 65.5172 114.271C67.0376 115.13 69.2032 114.009 69.8383 113.294C70.4101 112.65 70.2161 111.531 69.5689 111.184C68.9057 110.829 67.5996 110.711 66.8583 111.275C66.5177 111.534 66.0516 111.783 65.7536 112.49C66.2377 111.648 67.0187 110.459 67.1401 109.741C67.2865 108.875 67.2877 107.999 66.9092 107.531C66.2988 106.778 65.4774 106.837 64.8051 107.298C64.4089 107.57 64.0371 108.165 63.8892 108.679C63.6575 109.485 64.36 111.262 64.819 112.164C64.2153 110.715 63.7099 109.451 62.914 109.116C62.1229 108.784 61.437 108.759 61.1549 109.617C60.7912 110.723 62.7226 112.237 64.218 112.911C63.7548 112.696 64.3891 113.009 63.853 112.742C63.1732 112.402 62.2847 113.147 62.0069 113.46C61.5219 114.006 61.4347 115.169 62.4317 115.468C62.9759 115.631 63.081 115.215 64.5799 114.23Z" fill="white" stroke="black" stroke-width="0.5" stroke-miterlimit="1.5" stroke-linecap="round" stroke-linejoin="round"/>
<path fill-rule="evenodd" clip-rule="evenodd" d="M64.0187 113.529C63.7878 113.66 63.5153 113.679 63.2673 113.654Z" fill="white"/>
<path d="M64.0187 113.529C63.7878 113.66 63.5153 113.679 63.2673 113.654" stroke="black" stroke-width="0.5" stroke-miterlimit="1.5" stroke-linecap="round" stroke-linejoin="round"/>
<path fill-rule="evenodd" clip-rule="evenodd" d="M65.7722 114.014C65.3449 114.545 64.8914 114.458 64.5873 114.226C64.1028 113.868 63.9746 113.276 64.2266 112.924C64.4882 112.559 65.0019 112.277 65.7519 112.497C65.8985 112.54 66.2284 113.447 65.7722 114.014Z" fill="white" stroke="black" stroke-width="0.5" stroke-miterlimit="1.5" stroke-linecap="round" stroke-linejoin="round"/>
<path fill-rule="evenodd" clip-rule="evenodd" d="M64.8292 113.583C64.8106 113.25 65.0741 113.234 65.3014 113.298C65.4161 113.33 65.2852 113.612 65.0941 113.691C64.9432 113.754 64.8372 113.728 64.8292 113.583Z" fill="black" stroke="black" stroke-width="0.5" stroke-miterlimit="1.5" stroke-linecap="round" stroke-linejoin="round"/>
<path d="M62.0263 111.467C61.2416 109.914 61.8687 108.493 64.0709 109.953" stroke="black" stroke-width="0.5" stroke-miterlimit="1.5" stroke-linecap="round" stroke-linejoin="round"/>
<path fill-rule="evenodd" clip-rule="evenodd" d="M66.1233 113.289C66.6494 113.094 66.6249 113.069 66.9971 113.066Z" fill="white"/>
<path d="M66.1233 113.289C66.6494 113.094 66.6249 113.069 66.9971 113.066" stroke="black" stroke-width="0.5" stroke-miterlimit="1.5" stroke-linecap="round" stroke-linejoin="round"/>
<path d="M63.5018 114.947C62.9067 115.684 61.2111 114.28 63.1258 112.698" stroke="black" stroke-width="0.5" stroke-miterlimit="1.5" stroke-linecap="round" stroke-linejoin="round"/>
<path d="M64.2289 112.212C64.2858 112.323 64.3527 112.482 64.5087 112.592C64.7561 112.489 65.0682 112.391 65.323 112.423C65.2894 112.313 65.2744 112.17 65.3261 111.914" stroke="black" stroke-width="0.5" stroke-miterlimit="1.5" stroke-linecap="round" stroke-linejoin="round"/>
<path d="M65.0988 114.501L65.1905 115.032" stroke="black" stroke-width="0.5" stroke-miterlimit="1.5" stroke-linecap="round" stroke-linejoin="round"/>
<path d="M30.5059 115.844L29.5724 114.047C29.86 112.721 30.1085 110.176 29.4748 109.697C28.8184 109.2 28.0007 109.418 27.7046 109.936C27.3134 110.62 28.1177 112.443 28.6545 113.335L29.5724 114.047L26.3754 111.569C25.7285 111.558 25.3245 111.11 24.8222 110.735C24.157 110.116 23.8588 109.626 24.374 108.784C24.4932 108.589 25.0553 108.912 25.5307 109.338C25.8529 109.627 26.371 110.263 26.4347 110.744C26.4885 111.149 26.512 111.341 26.3754 111.569C25.6692 111.569 25.2871 111.094 24.8222 110.735C24.0821 110.005 23.9685 109.568 24.374 108.784C25.0154 107.545 25.0787 106.517 24.9306 105.904C24.7264 105.06 24.2134 104.762 23.8222 105.155C23.4818 105.497 23.3501 106.28 23.3464 106.965C23.3437 106.825 23.3519 106.682 23.3669 106.537C23.4503 105.734 23.7403 104.876 23.5149 104.402C23.097 103.523 22.6584 103.457 22.402 104.103C22.2283 104.541 23.0444 106.514 23.3464 106.965C22.7699 105.59 21.5121 103.323 21.0346 104.037C20.0067 105.573 21.8157 106.482 23.3464 106.965C23.5197 107.019 23.1415 106.644 23.3464 106.965C22.0646 106.61 21.3896 105.833 21.2496 107.083C21.1832 107.677 23.183 108.663 24.374 108.784L23.2935 106.872L24.374 108.784" stroke="black" stroke-width="0.5" stroke-miterlimit="1.5" stroke-linecap="round" stroke-linejoin="round"/>
<path d="M33.2104 117.324C32.7898 117.182 32.5901 116.942 32.5418 116.637C33.4848 115.539 33.9848 113.173 33.6646 113.061C32.8773 112.784 32.223 113.347 32.0834 114.24C31.96 115.031 32.1134 115.639 32.5418 116.637" stroke="black" stroke-width="0.5" stroke-miterlimit="1.5" stroke-linecap="round" stroke-linejoin="round"/>
<path d="M36.679 121.119C36.125 120.787 35.1107 120.816 34.3093 120.982C33.0209 122.279 32.3488 122.932 30.9286 122.802C29.2107 122.645 27.976 121.652 28.5016 120.973C29.0602 120.251 30.9949 119.922 34.3093 120.982" stroke="black" stroke-width="0.5" stroke-miterlimit="1.5" stroke-linecap="round" stroke-linejoin="round"/>
<path d="M41.0265 122.196C40.3654 121.76 39.8248 120.996 39.7458 120.117C39.7442 118.956 38.6902 116.004 37.752 116.154C36.9726 116.28 36.859 117.978 37.2553 118.759C37.5835 119.407 38.6996 119.93 39.7458 120.117" stroke="black" stroke-width="0.5" stroke-miterlimit="1.5" stroke-linecap="round" stroke-linejoin="round"/>
<path d="M43.7234 124.378L40.8432 124.368C38.8947 122.958 35.8156 122.591 34.8832 123.653C34.3778 124.228 35.9429 125.813 38.7733 125.558C39.6315 125.481 40.1254 125.085 40.8432 124.368" stroke="black" stroke-width="0.5" stroke-miterlimit="1.5" stroke-linecap="round" stroke-linejoin="round"/>
<path fill-rule="evenodd" clip-rule="evenodd" d="M40.8514 124.367C40.3628 124.869 40.2661 125.103 39.378 125.426C38.9154 125.594 38.883 126.734 39.6366 126.709C40.1014 126.694 40.8593 125.42 40.8514 124.367Z" stroke="black" stroke-width="0.5" stroke-miterlimit="1.5" stroke-linecap="round" stroke-linejoin="round"/>
<path d="M15.8627 33.5289C14.9248 33.3716 13.9199 33.2896 12.8473 33.2665C10.3539 33.9011 8.70268 32.3308 9.09002 32.0891C9.88832 31.591 11.6009 32.2266 12.8473 33.2665C14.1983 33.2887 15.0754 33.4337 15.8627 33.5289ZM15.8627 33.5289C14.7393 33.4734 13.6346 33.8352 12.3645 34.8505C11.2219 35.4816 9.36161 35.6847 8.94442 35.2583C8.12432 34.4206 10.6176 34.1472 12.3645 34.8505C13.4066 33.9897 14.5582 33.5007 15.8627 33.5289Z" stroke="black" stroke-width="0.5" stroke-miterlimit="1.5" stroke-linecap="round" stroke-linejoin="round"/>
<path d="M15.6675 36.8954L16.9806 38.2056C18.6611 39.4603 18.6244 41.1733 17.4853 41.6521C16.8116 41.9352 16.2224 39.572 16.9806 38.2056L15.6675 36.8954ZM15.6675 36.8954C15.1014 37.6823 14.7375 38.2973 14.7523 38.59C13.3821 40.0923 13.4257 42.3791 13.8969 42.148C15.6493 41.2882 15.6048 39.3427 14.7523 38.59C14.8626 37.8259 15.3675 37.4324 15.6675 36.8954ZM15.6675 36.8954C14.8474 37.3219 13.865 37.61 13.402 38.4524C12.303 40.5221 10.5506 40.8651 10.029 40.0961C9.30319 39.0264 10.9846 38.6169 13.402 38.4524C13.0002 38.9839 12.5988 39.4738 12.1937 40.2505C11.8646 40.8809 11.9869 41.4924 12.1168 42.0896C13.844 43.7197 12.2591 46.1595 11.8435 45.7991C10.7286 44.8321 11.28 42.6586 12.1168 42.0896C12.1259 42.0834 11.9673 41.3116 11.9884 41.3058C10.8383 41.7094 9.76471 42.687 8.74022 43.8805C9.27682 43.2236 9.8539 42.6423 10.4833 42.1581C10.1295 42.0411 9.72112 41.9118 9.29092 42.0315C8.53858 43.6688 7.82122 42.5689 7.66922 41.8336C7.51483 41.0867 8.52412 41.655 9.29092 42.0315C9.72167 41.9158 10.1323 42.0378 10.4833 42.1581C9.80866 42.6317 9.24129 43.2205 8.74022 43.8805C7.67582 44.3889 6.98941 46.1304 7.58461 45.8603C8.31259 45.5299 8.91933 44.9566 8.74022 43.8805C6.78356 44.333 6.06254 43.9889 5.74296 43.4516C5.42833 42.9225 7.35825 43.4402 8.74022 43.8805C7.55439 44.1017 6.82733 44.5091 6.31216 45.1885C6.62057 44.4792 4.19414 43.4569 4.38553 44.2071C4.48186 44.5847 5.96438 45.2603 6.31216 45.1885C5.34665 46.0678 4.76298 46.8335 4.9811 47.3605C5.13823 47.7405 6.97036 46.0765 6.31216 45.1885C5.7045 45.824 5.05399 46.1683 4.37051 46.2879C3.594 48.0281 1.01136 47.6107 1.00166 47.3578C0.941769 45.8101 2.51457 45.0665 4.37051 46.2879" stroke="black" stroke-width="0.5" stroke-miterlimit="1.5" stroke-linecap="round" stroke-linejoin="round"/>
<path fill-rule="evenodd" clip-rule="evenodd" d="M18.4563 35.714C17.9634 36.9532 18.9719 38.4629 19.7378 38.6259C20.3331 38.7524 20.7918 38.5084 21.2101 37.7559C21.6238 37.0117 21.0511 35.9059 19.9357 34.9844C21.5854 36.262 22.2582 35.7328 23.048 35.0916C23.869 34.4252 23.4117 32.8844 22.5508 32.6153C21.6686 32.3393 20.9564 32.637 20.0953 33.6234C21.2224 32.5363 21.4717 31.4825 20.9516 30.6271C20.4404 29.7867 19.7516 29.8678 19.311 29.8959C18.7002 29.935 17.4863 29.9075 17.7543 33.2169C17.7586 33.2701 17.9391 30.7229 16.5242 30.4344C15.738 30.2743 14.5857 31.4231 14.8215 32.2598C15.0749 33.1593 16.8175 33.5431 17.4931 34.1197C17.6652 34.2665 15.8352 32.8415 15.0309 33.5949C13.9177 34.638 14.5593 36.6485 15.7981 36.9654C16.7087 37.1982 17.8684 37.5417 18.4563 35.714Z" fill="#FFFDFD" stroke="black" stroke-width="0.5" stroke-miterlimit="1.5" stroke-linecap="round" stroke-linejoin="round"/>
<path d="M19.0482 34.7778C18.4583 35.0466 18.2305 35.066 17.9862 34.803" stroke="black" stroke-width="0.5" stroke-miterlimit="1.5" stroke-linecap="round" stroke-linejoin="round"/>
<path d="M15.3202 32.8153C14.8361 31.8313 16.6395 30.0132 17.5675 31.6392" stroke="black" stroke-width="0.5" stroke-miterlimit="1.5" stroke-linecap="round" stroke-linejoin="round"/>
<path d="M19.2695 35.4067C19.4456 35.6312 19.5558 35.8298 19.6299 36.0814" stroke="black" stroke-width="0.5" stroke-miterlimit="1.5" stroke-linecap="round" stroke-linejoin="round"/>
<path d="M19.2164 32.3387C19.0256 32.63 19.0376 32.6457 19.1109 32.93" stroke="black" stroke-width="0.5" stroke-miterlimit="1.5" stroke-linecap="round" stroke-linejoin="round"/>
<path d="M20.8247 34.2725C20.5959 34.1876 20.302 34.162 20.1196 34.2945" stroke="black" stroke-width="0.5" stroke-miterlimit="1.5" stroke-linecap="round" stroke-linejoin="round"/>
<path d="M15.4828 36.8035C14.7192 35.3152 14.9725 33.7334 16.3026 33.5989" stroke="black" stroke-width="0.5" stroke-miterlimit="1.5" stroke-linecap="round" stroke-linejoin="round"/>
<path fill-rule="evenodd" clip-rule="evenodd" d="M19.54 35.1735C18.77 35.7626 18.1298 35.5393 17.7476 35.1636C17.1358 34.5793 17.1092 33.7763 17.5738 33.3784C18.0561 32.9651 18.8848 32.7223 19.9229 33.1903C20.1258 33.2817 20.362 34.5449 19.54 35.1735Z" fill="#FFFDFD" stroke="black" stroke-width="0.5" stroke-miterlimit="1.5" stroke-linecap="round" stroke-linejoin="round"/>
<path fill-rule="evenodd" clip-rule="evenodd" d="M18.2645 34.2929C18.3333 33.7435 18.7563 33.7969 19.0984 33.9699C19.271 34.0573 18.98 34.478 18.6533 34.5495C18.3952 34.6059 18.2344 34.532 18.2645 34.2929Z" fill="black" stroke="black" stroke-width="0.5" stroke-miterlimit="1.5" stroke-linecap="round" stroke-linejoin="round"/>
<path d="M17.5242 33.4244C17.331 33.3237 17.1713 33.1931 17.1163 32.9693" stroke="black" stroke-width="0.5" stroke-miterlimit="1.5" stroke-linecap="round" stroke-linejoin="round"/>
<path d="M17.3833 34.938C17.2315 35.0906 17.0659 35.2256 16.8416 35.286" stroke="black" stroke-width="0.5" stroke-miterlimit="1.5" stroke-linecap="round" stroke-linejoin="round"/>
<path d="M19.7856 22.639C19.5015 22.7467 19.1422 22.845 18.9089 23.0459C18.4739 23.4204 19.0312 23.7957 19.3557 23.9569C19.9998 24.2766 20.5441 24.2059 20.8901 23.5734C20.941 23.4801 20.9566 23.7752 20.9851 23.8776C21.0399 24.0739 21.0855 24.272 21.1543 24.4642C21.3305 24.955 21.9396 25.5013 22.5032 25.2929C23.4974 24.9249 23.0577 23.5111 22.5493 22.9478C22.5094 22.9036 22.6374 23.028 22.6823 23.067C22.7792 23.151 22.8757 23.236 22.9826 23.3069C23.3115 23.5252 23.6754 23.6486 24.0729 23.6256C25.0671 23.5675 25.803 22.6661 25.7182 21.705C25.5885 20.2356 23.9002 19.8554 22.7206 20.3375C22.3482 20.4897 21.9043 21.0497 21.5483 21.1288C21.4606 21.1482 21.6587 20.9874 21.7159 20.9182C21.829 20.7809 21.9375 20.6391 22.0602 20.51C22.4349 20.1161 22.9009 19.8261 23.2669 19.4168C24.1305 18.4508 23.9817 16.9179 22.7024 16.323C21.473 15.7515 20.382 17.4995 20.1592 18.4819C20.0755 18.8509 20.035 19.2487 20.0529 19.6271C20.0586 19.75 20.0667 19.8728 20.0753 19.9955C20.0799 20.0606 20.0898 20.2554 20.0877 20.1904C20.0789 19.8831 20.0346 19.5793 19.9907 19.2753C19.9564 19.039 19.9249 18.8042 19.8698 18.5716C19.6528 17.6574 19.0889 15.4942 17.7652 16.295C16.6546 16.967 16.4319 18.5894 17.2743 19.5481C17.6492 19.9749 18.1263 20.271 18.6177 20.5428C18.7772 20.631 18.9426 20.708 19.1034 20.794C19.1819 20.836 19.4248 20.9233 19.3356 20.9266C18.5572 20.9559 17.8613 20.0893 17.0758 20.3505C16.048 20.692 15.6083 22.3275 16.694 22.8718C17.6267 23.3391 18.7552 22.8633 19.6828 22.6216" stroke="black" stroke-width="0.5" stroke-miterlimit="1.5" stroke-linecap="round" stroke-linejoin="round"/>
<path d="M46.885 13.4479C45.5686 12.9422 44.5821 11.8434 44.3077 10.4492C44.1112 9.45087 44.4233 8.33976 45.3862 7.87202C46.6797 7.24366 48.0016 8.29855 48.3914 9.50214C48.5489 9.98875 48.5805 10.4856 48.6197 10.9911C48.6322 11.1533 48.6424 11.316 48.6512 11.4786C48.6556 11.5619 48.6201 11.7956 48.6694 11.7284C48.8476 11.485 48.9932 11.2125 49.1345 10.9467C49.6092 10.0543 50.5693 7.76415 51.9514 9.05785C52.1249 9.22011 52.2514 9.42742 52.356 9.63895C52.8349 10.607 52.8962 11.9817 51.9382 12.6873C51.5441 12.9776 51.0592 13.0966 50.5757 13.1076C50.4152 13.1113 50.2557 13.0994 50.0975 13.0732C50.0231 13.0609 49.8167 12.9807 49.8763 13.0269C50.7964 13.7431 51.506 14.1389 51.5249 15.4756C51.5348 16.1867 51.3121 17.0241 50.7835 17.5262C49.6772 18.5774 47.9817 18.2084 47.2641 16.9369C46.8728 16.2433 47.0925 15.4613 47.0226 14.7134C47.0158 14.6409 47.0277 14.8586 47.0283 14.9313C47.0292 15.08 47.0239 15.2284 47.0063 15.3762C46.9557 15.7994 46.7799 16.2008 46.5726 16.5697C46.0358 17.5248 44.3478 18.8012 43.2292 18.0343C42.2637 17.3724 42.3399 16.2415 43.1799 15.519C44.0955 14.7319 45.6337 14.4978 46.799 14.3189C46.8689 14.3081 46.6614 14.3526 46.5928 14.3694C46.4636 14.4009 46.3331 14.4279 46.2021 14.4509C45.7917 14.5233 45.3806 14.5793 44.9718 14.6632C43.6717 14.9295 41.8689 15.0756 41.2401 13.5977C40.9314 12.8717 41.4872 11.8731 42.2604 11.6974C43.2197 11.4797 44.4211 11.8729 45.25 12.3434" stroke="black" stroke-width="0.5" stroke-miterlimit="1.5" stroke-linecap="round" stroke-linejoin="round"/>
<path d="M55.243 14.8378C54.2369 14.7133 52.8849 14.6986 52.604 13.4571C52.5589 13.2577 52.556 13.0522 52.5782 12.8496C52.6104 12.5561 52.6796 12.2717 52.7835 11.9953C52.91 11.6587 53.0889 11.314 53.3466 11.0589C54.075 10.3379 55.2344 10.7921 55.8732 11.3961C56.0924 11.6034 56.2873 11.8285 56.4702 12.0686C56.5318 12.1495 56.592 12.2317 56.6495 12.3156C56.6794 12.3592 56.7636 12.4934 56.736 12.4484C56.4043 11.9101 55.8488 11.3541 55.7476 10.7054C55.5908 9.69872 56.4261 8.39074 57.5641 8.8224C58.6304 9.22696 58.962 10.7058 58.7236 11.6951C58.6388 12.0475 58.5161 12.3978 58.2976 12.6912C58.2267 12.7866 58.1447 12.8833 58.0485 12.9548C57.9991 12.9914 57.8617 13.1077 57.8941 13.0555C58.1309 12.6731 58.7893 12.1924 59.2666 12.2466C60.1076 12.3422 60.7367 13.3463 60.5812 14.1435C60.4475 14.8286 59.8142 15.2565 59.1285 15.1653C58.8426 15.1273 58.5687 15.0279 58.3024 14.9209C58.2161 14.8863 58.1302 14.8504 58.0465 14.8098C58.0029 14.7885 57.9222 14.6961 57.9169 14.7442C57.8984 14.91 58.0714 15.2185 58.1123 15.3927C58.282 16.1183 58.6128 17.2783 57.9769 17.8649C57.4063 18.3914 56.5045 18.3281 56.1558 17.5979C55.9875 17.2461 56.0051 16.8463 56.049 16.4694C56.0635 16.345 56.0825 16.2216 56.1049 16.0984C56.1157 16.0383 56.0926 15.8828 56.1421 15.9189C56.1765 15.944 56.1045 16.219 56.0953 16.2619C56.0179 16.6238 55.8745 16.9719 55.7282 17.3109C55.2454 18.429 54.1504 19.7058 52.7937 19.1971C52.4425 19.0652 52.2236 18.7579 52.0527 18.4383C51.5247 17.4508 51.7513 16.1841 52.7294 15.5619C53.0928 15.3308 53.5065 15.1794 53.9343 15.1257C54.3328 15.0757 54.7583 15.1099 55.124 14.9142" stroke="black" stroke-width="0.5" stroke-miterlimit="1.5" stroke-linecap="round" stroke-linejoin="round"/>
<path d="M45.3272 28.7111C44.0782 28.7574 42.3114 28.7118 41.3921 29.711C40.9985 30.1387 40.6165 30.9135 40.9692 31.4774C41.6091 32.5004 43.6441 31.9669 44.298 31.2796C44.7756 30.7775 44.9966 30.0661 45.4329 29.5577C45.4706 29.5138 45.4129 29.6715 45.4025 29.7282C45.3781 29.8601 45.3517 29.9914 45.3252 30.1229C45.2462 30.5126 45.201 30.9218 45.3149 31.3097C45.5931 32.2567 46.654 32.6773 47.571 32.4301C48.7871 32.1025 49.2927 30.6884 48.6146 29.6402C48.4314 29.357 48.1781 29.1589 47.9228 28.9448C47.8556 28.8884 47.6642 28.8065 47.6232 28.7365C47.5653 28.6377 47.8302 28.6386 47.9325 28.5871C48.1274 28.4891 48.314 28.3772 48.482 28.2373C48.9695 27.8318 49.3711 27.1551 49.0971 26.5209C48.7323 25.6763 47.7527 25.842 47.1491 26.2779C46.9753 26.4033 46.8429 26.6563 46.6733 26.7594C46.6035 26.8019 46.6907 26.5971 46.6943 26.5156C46.702 26.3433 46.6925 26.1684 46.6535 25.9999C46.5529 25.5669 46.1328 24.7952 45.6427 24.7241C45.0243 24.6342 44.7034 25.3627 44.6851 25.8777C44.6778 26.0818 44.6888 26.2763 44.7593 26.4695C44.7829 26.5337 44.8109 26.5956 44.8439 26.6557C44.8598 26.6845 44.9263 26.7491 44.8948 26.74C44.6168 26.6592 44.3553 26.4726 44.0707 26.3863C43.013 26.0655 40.9507 25.8208 40.4235 27.1244C40.1066 27.9078 40.6304 28.6549 41.3734 28.8898C42.3508 29.1992 43.5837 28.8219 44.5895 28.7243" stroke="black" stroke-width="0.5" stroke-miterlimit="1.5" stroke-linecap="round" stroke-linejoin="round"/>
<path d="M59.7579 26.6073C59.8277 27.3805 60.0581 28.6129 59.6416 29.3242C58.8591 30.6615 56.6392 29.7167 56.8758 28.2625C56.9943 27.5338 57.8042 27.223 58.3426 26.8676C58.371 26.8487 58.2869 26.9069 58.2591 26.9267C58.1979 26.9701 58.1358 27.0122 58.0743 27.0549C57.8985 27.1771 57.7221 27.2979 57.5544 27.4313C57.0724 27.8144 56.7954 28.5002 56.2402 28.7803C55.9495 28.9268 55.5856 28.851 55.293 28.7489C54.6104 28.5114 53.4918 27.7933 53.4286 26.9732C53.3238 25.6147 54.9256 25.8508 55.7843 25.8757C56.0722 25.8841 56.3696 25.8317 56.6383 25.7279C56.7266 25.6938 56.813 25.6557 56.9002 25.6191C56.9399 25.6022 57.0601 25.5837 57.0194 25.5689C56.8583 25.5099 56.6074 25.5326 56.4326 25.503C55.9563 25.422 55.5201 25.249 55.1598 24.9202C54.8087 24.5997 54.4137 24.1824 54.3344 23.6945C54.2923 23.4361 54.3297 23.1595 54.3943 22.9084C54.7064 21.6951 55.6849 21.3241 56.7617 21.8957C57.6183 22.3504 57.9331 23.5359 58.2463 24.3897C58.2723 24.4604 58.1615 24.265 58.1186 24.2029C58.0507 24.104 57.9844 24.0036 57.9234 23.9001C57.7117 23.5401 57.5355 23.1811 57.4648 22.7667C57.2828 21.6968 58.021 20.1919 59.1503 19.9639C59.4469 19.9038 59.7735 19.9317 60.0614 20.0227C60.2876 20.0943 60.5007 20.1932 60.6899 20.3375C61.9252 21.2812 61.2058 23.0046 60.3044 23.9071" stroke="black" stroke-width="0.5" stroke-miterlimit="1.5" stroke-linecap="round" stroke-linejoin="round"/>
<path d="M58.8721 24.6974C59.0019 24.4743 59.1926 24.3069 59.4151 24.1811C60.4511 23.5947 61.5087 24.7065 61.6018 25.7107C61.6688 26.4346 61.1743 26.9815 60.4277 26.8524C60.2301 26.8181 60.0595 26.7489 59.8861 26.6509" stroke="black" stroke-width="0.5" stroke-miterlimit="1.5" stroke-linecap="round" stroke-linejoin="round"/>
<path d="M58.3088 24.5907C58.0937 24.6464 57.8794 24.7167 57.6948 24.8436C57.1159 25.2419 57.1556 25.9291 57.6481 26.3856C57.9779 26.6915 58.4456 26.8173 58.8874 26.7836C59.5569 26.7329 59.7811 26.0274 59.5842 25.4709C59.4181 25.0011 58.9595 24.6843 58.4826 24.6002" stroke="black" stroke-width="0.5" stroke-miterlimit="1.5" stroke-linecap="round" stroke-linejoin="round"/>
<path d="M45.5257 29.4927C45.1354 28.9603 44.8334 28.4587 45.2347 27.8124C45.6603 27.1269 46.9358 26.7265 47.3805 27.5884C47.5549 27.9263 47.6261 28.4795 47.4179 28.8193C47.2747 29.0529 47.0302 29.1766 46.786 29.2806C46.0595 29.5899 45.4143 29.4674 45.1693 28.6634" stroke="black" stroke-width="0.5" stroke-miterlimit="1.5" stroke-linecap="round" stroke-linejoin="round"/>
<path d="M46.5243 28.1512C46.4671 28.224 46.3644 28.2064 46.327 28.139" stroke="black" stroke-width="0.5" stroke-miterlimit="1.5" stroke-linecap="round" stroke-linejoin="round"/>
<path d="M71.035 27.0943C70.7913 26.2115 70.7037 25.0433 71.0484 24.182C71.2953 23.565 71.9666 23.1906 72.6166 23.4251C73.5574 23.7642 74.2394 25.257 73.8634 26.187C73.6984 26.5947 73.3056 26.9033 72.9785 27.182C72.869 27.2754 72.7477 27.3512 72.6307 27.4344C72.5712 27.4767 72.391 27.6006 72.452 27.5605C72.7448 27.3677 73.001 27.1274 73.2686 26.9023C74.0361 26.256 75.9888 25.5162 76.5411 26.8567C76.9233 27.7838 76.6054 28.8702 75.4983 29.0116C74.9945 29.076 74.502 28.9843 74.0132 28.8682C73.8541 28.8302 73.6949 28.7931 73.5378 28.7478C73.4581 28.7249 73.2613 28.5962 73.3019 28.6685C73.597 29.1925 74.1392 29.5456 74.4277 30.0827C74.9536 31.0627 74.4216 32.2531 73.431 32.6996C72.545 33.0987 70.6537 33.1893 70.6151 31.7819C70.6002 31.2358 70.9797 30.8074 71.2066 30.3452C71.2372 30.2831 71.1308 30.4607 71.0914 30.5177C71.0046 30.643 70.92 30.7695 70.8369 30.8972C70.59 31.2768 70.3937 31.7103 70.0951 32.0531C69.4217 32.8265 68.3099 32.5037 67.8737 31.6127C67.4189 30.6836 68.0627 30.0697 68.8593 29.7934C69.1639 29.6879 69.4699 29.6286 69.7933 29.6427C69.8966 29.6472 69.9992 29.6619 70.1019 29.6738C70.1563 29.6802 70.2924 29.7403 70.2649 29.693C70.1398 29.4778 69.2957 29.4436 69.0467 29.3634C67.8392 28.9746 66.6589 27.6966 67.5799 26.4194C67.746 26.189 67.9909 26.0321 68.2412 25.9068C69.6177 25.2178 70.5513 25.9949 71.0916 27.2721" stroke="black" stroke-width="0.5" stroke-miterlimit="1.5" stroke-linecap="round" stroke-linejoin="round"/>
<path d="M30.207 18.0905C30.3139 17.3964 31.1463 17.0151 31.7666 17.3309C32.0831 17.4919 32.2953 17.8526 32.3721 18.2281C33.1654 17.6847 34.2742 17.1476 34.2489 16.0284C34.2254 14.9818 33.335 13.4679 32.1018 13.915C31.9463 13.9714 31.8003 14.0547 31.6761 14.1642C31.0134 14.7488 30.9775 15.7909 30.8068 16.5945C30.763 16.8003 30.7672 17.0615 30.669 17.2499C30.6546 17.2774 30.6771 17.1882 30.6817 17.1574C30.6907 17.097 30.6963 17.0353 30.7018 16.9743C30.7192 16.7851 30.7115 16.5959 30.6877 16.4077C30.6161 15.8392 30.4896 15.248 30.1792 14.758C29.5997 13.8426 28.4542 13.3025 27.381 13.3809C26.9836 13.4099 26.4865 13.4751 26.2374 13.8261C25.2666 15.1958 26.0777 17.1534 27.5821 17.7081C28.1067 17.9015 28.6639 17.9825 29.1964 18.1497C29.366 18.2028 29.5345 18.2614 29.7079 18.3008C29.7665 18.314 29.8257 18.3218 29.8845 18.3328C29.9206 18.3396 30.0189 18.3731 29.9933 18.3473C29.8349 18.1882 29.5199 18.1074 29.3102 18.0539C28.4106 17.8246 26.5026 18.0625 26.9337 19.4386C27.2687 20.5078 28.7005 21.1424 29.6176 20.4298C29.8726 20.2318 30.131 19.9871 30.3022 19.7113C30.3447 19.643 30.4507 19.4073 30.5462 19.3996C30.6022 19.395 30.5097 19.5062 30.4942 19.5602C30.4669 19.6558 30.4473 19.7547 30.4328 19.8529C30.3868 20.1653 30.409 20.4999 30.4771 20.8076C30.6518 21.5958 31.2816 22.1099 32.1076 21.974C33.0836 21.8134 33.4566 20.884 32.9554 20.0661C32.8317 19.8644 32.6717 19.691 32.5263 19.5057C32.5037 19.4767 32.3636 19.3309 32.3779 19.3053C32.3973 19.2703 32.4748 19.3723 32.4841 19.3798C32.5536 19.435 32.646 19.4734 32.7255 19.5115C32.9841 19.6357 33.2526 19.7401 33.5291 19.8168C34.4479 20.0717 35.9037 20.2133 36.4136 19.1842C36.9767 18.0479 36.2462 16.5751 34.8792 16.6926C34.4604 16.7287 34.1432 17.0212 33.8112 17.2455C33.611 17.3811 33.3837 17.4732 33.1652 17.5743C32.9147 17.6904 32.6043 17.8213 32.4578 18.0709C32.3186 18.3077 32.4351 18.6209 32.3565 18.883C32.1087 19.7097 31.0216 19.7926 30.4663 19.2377C30.0515 18.8229 30.1092 18.2475 30.3039 17.7453" stroke="black" stroke-width="0.5" stroke-miterlimit="1.5" stroke-linecap="round" stroke-linejoin="round"/>
<path d="M31.1265 18.423C31.1662 18.3177 31.2166 18.1965 31.2937 18.1121C31.3594 18.1859 31.4178 18.2608 31.4396 18.3589C31.4629 18.4635 31.3993 18.5104 31.3283 18.4142" stroke="black" stroke-width="0.5" stroke-miterlimit="1.5" stroke-linecap="round" stroke-linejoin="round"/>
<path d="M30.273 17.6297C30.1377 17.441 29.9728 17.28 29.8239 17.1028C29.6749 16.9251 29.5364 16.7202 29.3408 16.5898" stroke="black" stroke-width="0.5" stroke-miterlimit="1.5" stroke-linecap="round" stroke-linejoin="round"/>
<path d="M30.0908 19.0791C29.6973 19.115 29.3627 19.1077 28.9746 19.0507" stroke="black" stroke-width="0.5" stroke-miterlimit="1.5" stroke-linecap="round" stroke-linejoin="round"/>
<path d="M31.5385 19.5429C31.5628 19.7713 31.6201 20.0108 31.7075 20.2246" stroke="black" stroke-width="0.5" stroke-miterlimit="1.5" stroke-linecap="round" stroke-linejoin="round"/>
<path d="M31.9963 17.3065C32.0916 17.0303 32.1643 16.7281 32.3359 16.4868" stroke="black" stroke-width="0.5" stroke-miterlimit="1.5" stroke-linecap="round" stroke-linejoin="round"/>
<path d="M32.5 18.7537C32.695 18.6962 32.9005 18.6386 33.1047 18.6272" stroke="black" stroke-width="0.5" stroke-miterlimit="1.5" stroke-linecap="round" stroke-linejoin="round"/>
<path d="M20.9993 23.443C20.1849 23.1989 19.695 22.6328 19.5624 21.7895C19.447 21.0553 19.8457 20.3194 20.6592 20.4811C21.3998 20.6282 22.0099 21.3527 22.18 22.0644C22.2366 22.3012 22.2732 22.5643 22.1883 22.7988C22.0335 23.2255 21.4852 23.4425 21.0621 23.4123" stroke="black" stroke-width="0.5" stroke-miterlimit="1.5" stroke-linecap="round" stroke-linejoin="round"/>
<path d="M20.6875 21.9237C20.7185 21.9669 20.7311 22.0224 20.7417 22.0739C20.7426 22.0781 20.7662 22.1548 20.7701 22.1517C20.7948 22.1321 20.8084 22.0391 20.8267 22.0074" stroke="black" stroke-width="0.5" stroke-miterlimit="1.5" stroke-linecap="round" stroke-linejoin="round"/>
<path d="M22.3815 21.8646C22.5172 21.8302 22.6686 21.7848 22.808 21.8251" stroke="black" stroke-width="0.5" stroke-miterlimit="1.5" stroke-linecap="round" stroke-linejoin="round"/>
<path d="M21.832 23.3888C21.841 23.4201 21.8496 23.4516 21.8566 23.4835" stroke="black" stroke-width="0.5" stroke-miterlimit="1.5" stroke-linecap="round" stroke-linejoin="round"/>
<path d="M20.1636 23.24C20.1398 23.24 20.116 23.24 20.0923 23.24" stroke="black" stroke-width="0.5" stroke-miterlimit="1.5" stroke-linecap="round" stroke-linejoin="round"/>
<path d="M19.4724 21.8814C19.435 21.8717 19.3977 21.8622 19.3597 21.855" stroke="black" stroke-width="0.5" stroke-miterlimit="1.5" stroke-linecap="round" stroke-linejoin="round"/>
<path d="M19.7494 20.5611C19.7111 20.5228 19.6723 20.4856 19.6344 20.4471" stroke="black" stroke-width="0.5" stroke-miterlimit="1.5" stroke-linecap="round" stroke-linejoin="round"/>
<path d="M21.2295 20.0694C21.1368 20.2392 21.089 20.4348 21.0538 20.6236C21.0579 20.6047 21.0569 20.6095 21.0617 20.591" stroke="black" stroke-width="0.5" stroke-miterlimit="1.5" stroke-linecap="round" stroke-linejoin="round"/>
<path d="M46.7849 29.524C46.8713 29.6819 46.925 29.8555 46.9484 30.0338" stroke="black" stroke-width="0.5" stroke-miterlimit="1.5" stroke-linecap="round" stroke-linejoin="round"/>
<path d="M45.1969 29.2836C45.0402 29.325 44.8854 29.3678 44.7246 29.3914" stroke="black" stroke-width="0.5" stroke-miterlimit="1.5" stroke-linecap="round" stroke-linejoin="round"/>
<path d="M44.8162 26.7083C45.0535 26.8744 45.2335 27.1271 45.3291 27.3992" stroke="black" stroke-width="0.5" stroke-miterlimit="1.5" stroke-linecap="round" stroke-linejoin="round"/>
<path d="M44.1294 27.83C44.3437 27.88 44.5664 27.9519 44.7871 27.9666" stroke="black" stroke-width="0.5" stroke-miterlimit="1.5" stroke-linecap="round" stroke-linejoin="round"/>
<path d="M45.8234 26.6853C45.8811 26.8078 45.9094 26.9437 45.9265 27.0776" stroke="black" stroke-width="0.5" stroke-miterlimit="1.5" stroke-linecap="round" stroke-linejoin="round"/>
<path d="M47.609 27.7226C47.7052 27.6207 47.8198 27.5274 47.9511 27.4752" stroke="black" stroke-width="0.5" stroke-miterlimit="1.5" stroke-linecap="round" stroke-linejoin="round"/>
<path d="M47.0412 13.9414C46.9571 13.5661 46.9324 13.0573 47.1421 12.7156C47.6078 11.9567 48.8251 11.3479 49.3931 12.3158C49.9423 13.2518 49.1764 13.9439 48.3964 14.3375C47.9541 14.5606 47.2236 14.7166 47.0311 14.1047C46.9927 13.9822 46.9742 13.8535 46.9694 13.7253C46.9635 13.5648 46.976 13.4046 47.0128 13.2484" stroke="black" stroke-width="0.5" stroke-miterlimit="1.5" stroke-linecap="round" stroke-linejoin="round"/>
<path d="M48.1198 12.9842C48.1605 12.9994 48.2002 13.0186 48.2356 13.0444C48.4399 13.1937 47.835 13.2342 48.0063 13.0477" stroke="black" stroke-width="0.5" stroke-miterlimit="1.5" stroke-linecap="round" stroke-linejoin="round"/>
<path d="M48.7537 14.3577C49.0505 14.6879 49.2569 15.0238 49.2798 15.4774" stroke="black" stroke-width="0.5" stroke-miterlimit="1.5" stroke-linecap="round" stroke-linejoin="round"/>
<path d="M46.9516 14.4493C46.5307 14.8836 46.0051 15.2416 45.5487 15.6427" stroke="black" stroke-width="0.5" stroke-miterlimit="1.5" stroke-linecap="round" stroke-linejoin="round"/>
<path d="M46.7849 13.8716C46.0998 13.8386 45.3998 13.7483 44.7704 13.4535" stroke="black" stroke-width="0.5" stroke-miterlimit="1.5" stroke-linecap="round" stroke-linejoin="round"/>
<path d="M47.4581 12.1459C47.3299 11.7578 47.055 11.3736 46.7849 11.0727" stroke="black" stroke-width="0.5" stroke-miterlimit="1.5" stroke-linecap="round" stroke-linejoin="round"/>
<path d="M49.3489 12.286C49.5417 12.1775 49.7188 12.0503 49.8965 11.9197" stroke="black" stroke-width="0.5" stroke-miterlimit="1.5" stroke-linecap="round" stroke-linejoin="round"/>
<path d="M55.3926 14.8087C55.3839 13.9977 55.9467 13.0967 56.68 12.746C57.3415 12.4295 58.1591 12.9579 58.1788 13.6849C58.2023 14.5411 57.554 15.2949 56.8042 15.6372C56.0661 15.974 55.5089 15.3337 55.5755 14.5929" stroke="black" stroke-width="0.5" stroke-miterlimit="1.5" stroke-linecap="round" stroke-linejoin="round"/>
<path d="M56.7189 14.0871C56.9272 13.814 57.251 14.3908 57.0957 14.4928C57.0788 14.5037 57.0118 14.4146 57.0061 14.4023C56.9644 14.3104 56.9167 13.9994 56.7699 14.1858C56.7453 14.2171 56.7226 14.2501 56.7036 14.2849C56.6741 14.3382 56.6569 14.3972 56.6287 14.451" stroke="black" stroke-width="0.5" stroke-miterlimit="1.5" stroke-linecap="round" stroke-linejoin="round"/>
<path d="M55.7749 13.5302C55.5401 13.0641 55.1645 12.5913 54.614 12.5149" stroke="black" stroke-width="0.5" stroke-miterlimit="1.5" stroke-linecap="round" stroke-linejoin="round"/>
<path d="M55.5109 15.4337C55.2222 15.6628 54.9107 15.8795 54.5682 16.0198" stroke="black" stroke-width="0.5" stroke-miterlimit="1.5" stroke-linecap="round" stroke-linejoin="round"/>
<path d="M57.2239 15.6398C57.242 15.735 57.2603 15.8361 57.2541 15.9337" stroke="black" stroke-width="0.5" stroke-miterlimit="1.5" stroke-linecap="round" stroke-linejoin="round"/>
<path d="M58.2769 13.982C58.4582 13.951 58.6376 13.9825 58.8197 13.9899" stroke="black" stroke-width="0.5" stroke-miterlimit="1.5" stroke-linecap="round" stroke-linejoin="round"/>
<path d="M57.3874 24.9464C57.3475 24.9008 57.3077 24.8554 57.2697 24.8082" stroke="black" stroke-width="0.5" stroke-miterlimit="1.5" stroke-linecap="round" stroke-linejoin="round"/>
<path d="M58.6432 24.5724C58.6602 24.4771 58.6846 24.3856 58.7124 24.2931" stroke="black" stroke-width="0.5" stroke-miterlimit="1.5" stroke-linecap="round" stroke-linejoin="round"/>
<path d="M59.7878 25.6152C59.8279 25.6048 59.8686 25.5933 59.9094 25.5865" stroke="black" stroke-width="0.5" stroke-miterlimit="1.5" stroke-linecap="round" stroke-linejoin="round"/>
<path d="M58.8721 27.0173C58.8721 27.0958 58.8721 27.1742 58.8721 27.2528" stroke="black" stroke-width="0.5" stroke-miterlimit="1.5" stroke-linecap="round" stroke-linejoin="round"/>
<path d="M57.5031 26.3619C57.1759 26.328 56.9695 26.398 56.6744 26.5189" stroke="black" stroke-width="0.5" stroke-miterlimit="1.5" stroke-linecap="round" stroke-linejoin="round"/>
<path d="M58.3685 25.7526C58.4209 25.7106 58.5008 25.7736 58.5526 25.7894C58.5786 25.7973 58.6546 25.8266 58.6293 25.817C58.5987 25.8055 58.4834 25.759 58.4749 25.7125C58.4716 25.6932 58.5119 25.7249 58.5308 25.7293C58.5529 25.7346 58.5863 25.7108 58.603 25.7009" stroke="black" stroke-width="0.5" stroke-miterlimit="1.5" stroke-linecap="round" stroke-linejoin="round"/>
<path d="M71.3147 30.1586C70.9812 29.9965 70.4582 29.8346 70.2972 29.4751C70.147 29.1402 70.2624 28.7404 70.408 28.4241C70.8365 27.4934 71.7178 27.0766 72.6828 27.5088C73.1945 27.7381 73.3604 28.3106 73.1963 28.8197C73.0194 29.3687 72.619 29.7911 72.1029 30.04C71.8504 30.1616 71.5163 30.2848 71.2369 30.1854" stroke="black" stroke-width="0.5" stroke-miterlimit="1.5" stroke-linecap="round" stroke-linejoin="round"/>
<path d="M71.5087 28.7912C71.6012 28.6883 71.7184 28.6165 71.8636 28.6337C72.0193 28.6524 72.1938 28.7711 72.1171 28.9429C72.0332 29.1304 71.6273 29.1949 71.5737 28.9527" stroke="black" stroke-width="0.5" stroke-miterlimit="1.5" stroke-linecap="round" stroke-linejoin="round"/>
<path d="M71.8293 28.795C71.8292 28.7365 71.8292 28.6785 71.8292 28.6197" stroke="black" stroke-width="0.5" stroke-miterlimit="1.5" stroke-linecap="round" stroke-linejoin="round"/>
<path d="M72.5618 30.0848C72.6063 30.1132 72.6486 30.1436 72.6898 30.1764" stroke="black" stroke-width="0.5" stroke-miterlimit="1.5" stroke-linecap="round" stroke-linejoin="round"/>
<path d="M70.7881 30.1077C70.6559 30.1315 70.5366 30.1727 70.4099 30.2158" stroke="black" stroke-width="0.5" stroke-miterlimit="1.5" stroke-linecap="round" stroke-linejoin="round"/>
<path d="M70.4004 28.2434C70.1903 28.1077 70.0125 27.9465 69.8147 27.7956" stroke="black" stroke-width="0.5" stroke-miterlimit="1.5" stroke-linecap="round" stroke-linejoin="round"/>
<path d="M72.1399 27.2957C72.0976 27.0609 72.0233 26.8099 72.0767 26.5709" stroke="black" stroke-width="0.5" stroke-miterlimit="1.5" stroke-linecap="round" stroke-linejoin="round"/>
<path d="M73.2943 28.1703C73.4872 28.0653 73.7069 27.9624 73.9304 27.9558" stroke="black" stroke-width="0.5" stroke-miterlimit="1.5" stroke-linecap="round" stroke-linejoin="round"/>
<path d="M62.2704 17.8056C62.1391 17.3155 62.0643 16.8159 62.0623 16.3073C62.0609 15.9804 62.1019 15.6744 62.2513 15.3783C62.3815 15.1204 62.5669 14.8417 62.8161 14.684C63.3207 14.3652 64.2382 14.3324 64.6618 14.8294C65.0442 15.2777 64.9131 15.7438 64.8341 16.2718C64.8023 16.4852 64.825 16.7295 64.7048 16.9189C64.5948 17.0921 64.4177 17.2241 64.2585 17.349C64.0054 17.5478 63.6388 17.9331 63.3282 18.0453C63.3185 18.0488 63.165 17.8862 63.1329 17.8666C62.9751 17.7708 62.7742 17.7578 62.6024 17.8226C62.2259 17.9646 62.1407 18.407 62.2519 18.7567C62.3911 19.1942 62.8934 19.5905 63.3503 19.6368C63.8333 19.6859 64.08 19.2304 63.9866 18.801C63.9113 18.4547 63.6368 18.182 63.33 18.0254C63.3608 17.9942 63.4291 17.9389 63.4566 17.9104C63.5183 17.8466 63.5816 17.7846 63.645 17.7225C63.8415 17.5302 64.0578 17.363 64.2803 17.2025C64.9621 16.7112 66.4099 16.3517 66.8893 17.3088C67.3785 18.2854 66.3846 19.7039 65.4735 20.0509C65.049 20.2126 64.6779 20.0436 64.2792 19.8971C64.1594 19.8529 64.0395 19.8099 63.9236 19.7561C63.88 19.7357 63.8371 19.7141 63.7941 19.6929C63.7761 19.6841 63.7234 19.6551 63.7401 19.6663C63.9133 19.7822 64.1027 19.8712 64.2739 19.9916C64.4094 20.0868 64.5451 20.1822 64.6777 20.2817C65.1815 20.6591 66.2088 21.6739 65.3781 22.2665C64.5129 22.8835 63.6207 21.7966 63.3121 21.1043C63.1969 20.8459 63.0884 20.562 63.0958 20.2747C63.0981 20.1837 63.1069 20.0895 63.1298 20.0011C63.1423 19.9524 63.1861 19.8079 63.1742 19.8568C63.0786 20.2533 63.1113 20.6452 63.1712 21.0463C63.1969 21.2177 63.2974 21.4962 63.2 21.6596C62.969 22.0462 62.3781 21.4658 62.268 21.2369C62.075 20.8355 62.1187 20.4287 62.2938 20.0317C62.3429 19.9201 62.4768 19.7734 62.4975 19.6599C62.502 19.6355 62.4621 19.6945 62.4442 19.7114C62.4145 19.7392 62.3824 19.7647 62.3495 19.7887C62.2444 19.865 62.1154 19.9465 61.9848 19.9656C61.7794 19.9956 61.6105 19.5821 61.5792 19.4367C61.4468 18.822 61.5334 17.9778 62.2654 17.8833" stroke="black" stroke-width="0.5" stroke-miterlimit="1.5" stroke-linecap="round" stroke-linejoin="round"/>
<path d="M63.1488 18.6043C63.1175 18.6657 63.0836 18.7287 63.0386 18.781" stroke="black" stroke-width="0.5" stroke-miterlimit="1.5" stroke-linecap="round" stroke-linejoin="round"/>
<path d="M64.1373 18.9134C64.2318 18.9125 64.3269 18.92 64.4203 18.9352" stroke="black" stroke-width="0.5" stroke-miterlimit="1.5" stroke-linecap="round" stroke-linejoin="round"/>
<path d="M63.588 19.8176C63.588 19.8447 63.588 19.8719 63.588 19.8989" stroke="black" stroke-width="0.5" stroke-miterlimit="1.5" stroke-linecap="round" stroke-linejoin="round"/>
<path d="M42.7273 14.8419C42.1737 13.9869 41.5491 12.55 42.5645 11.748" stroke="black" stroke-width="0.5" stroke-miterlimit="1.5" stroke-linecap="round" stroke-linejoin="round"/>
<path d="M45.5565 17.7964C44.4697 17.6687 43.0052 17.1109 43.079 15.8" stroke="black" stroke-width="0.5" stroke-miterlimit="1.5" stroke-linecap="round" stroke-linejoin="round"/>
<path d="M50.814 8.85211C51.6729 9.63796 52.3106 11.4999 51.8533 12.5955" stroke="black" stroke-width="0.5" stroke-miterlimit="1.5" stroke-linecap="round" stroke-linejoin="round"/>
<path d="M17.2994 19.0344C17.4097 18.1612 17.7512 16.4104 18.9627 16.5016" stroke="black" stroke-width="0.5" stroke-miterlimit="1.5" stroke-linecap="round" stroke-linejoin="round"/>
<path d="M20.8248 17.4562C22.1976 17.0077 23.2562 16.6918 23.8552 18.297" stroke="black" stroke-width="0.5" stroke-miterlimit="1.5" stroke-linecap="round" stroke-linejoin="round"/>
<path d="M62.947 17.6428C62.9652 17.5428 62.9862 17.443 63.0135 17.3452" stroke="black" stroke-width="0.5" stroke-miterlimit="1.5" stroke-linecap="round" stroke-linejoin="round"/>
<path d="M44.4956 10.0758C44.6359 9.75754 44.7985 9.44895 45.0177 9.17735C45.8798 8.10891 47.1145 8.486 48.0776 9.16307" stroke="black" stroke-width="0.5" stroke-miterlimit="1.5" stroke-linecap="round" stroke-linejoin="round"/>
<path d="M26.4105 16.7971C26.6279 15.1624 27.7073 13.7281 29.5168 14.1444" stroke="black" stroke-width="0.5" stroke-miterlimit="1.5" stroke-linecap="round" stroke-linejoin="round"/>
<path d="M42.1309 26.3419C41.2141 26.7871 40.4728 27.8807 41.5471 28.6125C41.793 28.7802 42.082 28.8859 42.367 28.9654" stroke="black" stroke-width="0.5" stroke-miterlimit="1.5" stroke-linecap="round" stroke-linejoin="round"/>
<path d="M42.113 29.3752C41.8407 29.7609 41.5438 30.3122 41.6248 30.8043C41.7627 31.641 43.008 31.8311 43.6699 31.7507" stroke="black" stroke-width="0.5" stroke-miterlimit="1.5" stroke-linecap="round" stroke-linejoin="round"/>
<path d="M57.8649 21.3134C59.3477 20.2112 60.4552 20.7114 61.1962 22.297" stroke="black" stroke-width="0.5" stroke-miterlimit="1.5" stroke-linecap="round" stroke-linejoin="round"/>
<path d="M52.1443 16.3151C52.0956 17.6309 52.7273 19.0312 54.264 18.7193C54.5576 18.6596 54.8466 18.5417 55.1103 18.3997" stroke="black" stroke-width="0.5" stroke-miterlimit="1.5" stroke-linecap="round" stroke-linejoin="round"/>
<path d="M58.9707 11.1396C59.1754 10.9907 59.4012 10.872 59.6501 10.8187C59.7389 10.7997 59.8283 10.7854 59.9192 10.7814C59.9693 10.7792 60.0702 10.8288 60.0699 10.7786C60.0693 10.699 59.8335 10.4501 59.7924 10.3504C59.6432 9.98727 59.5712 9.584 59.6036 9.19043C59.6234 8.94979 60.066 8.5445 60.1981 8.33041C60.5882 7.69748 60.7367 7.05173 60.5845 6.31148C60.4808 5.80711 60.2624 5.38168 59.9362 4.98518C59.8937 4.93372 59.6884 4.64308 59.6232 4.65535C59.5086 4.67677 59.3225 4.935 59.2545 5.02272C58.9313 5.43937 58.7357 5.90088 58.6645 6.42301C58.5235 7.4561 59.1196 8.34067 59.4924 9.25765C59.7747 9.95211 59.9069 10.6552 60.4329 11.233C60.564 11.3771 61.0266 11.3414 61.214 11.3703C61.7414 11.4517 62.2666 11.6099 62.7177 11.9C63.1387 12.1708 63.5591 12.5056 63.5693 13.036C63.5741 13.2779 63.6319 13.394 63.3739 13.4807C62.9957 13.6076 62.6542 13.4785 62.3097 13.3146C61.5117 12.9349 61.0163 12.2567 60.6376 11.4868C60.5149 11.2374 60.1455 10.851 60.232 10.5607C60.505 9.64297 61.8192 9.42119 62.623 9.48602C62.9151 9.50964 63.2014 9.55451 63.4946 9.54444C63.5162 9.54371 63.7241 9.56916 63.7391 9.54682C63.8017 9.45324 63.7418 9.18476 63.7329 9.07286C63.6922 8.57142 63.6427 8.20825 63.3688 7.77898C62.8056 6.89661 62.3807 5.99611 63.0505 5.05368C63.1952 4.84984 63.4287 4.54235 63.6821 4.45865C63.7435 4.43833 63.9277 4.58997 63.9713 4.6222C64.2508 4.82988 64.4471 5.12895 64.6055 5.43406C65.1916 6.56366 64.6136 7.26325 63.9843 8.16375C63.7938 8.43626 63.7629 8.7617 63.7578 9.08586C63.7568 9.13512 63.7325 9.35526 63.7658 9.38254C63.7982 9.40928 63.9898 9.33786 64.0283 9.32614C64.2889 9.24702 64.526 9.10271 64.787 9.02213C65.0295 8.94722 65.2531 8.98074 65.4961 8.95858C65.6265 8.94667 65.8924 8.68094 65.9928 8.61061C66.5329 8.23206 66.9706 7.8341 67.3268 7.26857C67.4938 7.00375 67.5887 6.70944 67.5892 6.39426C67.5894 6.34719 67.5989 6.13695 67.5627 6.10618C67.4427 6.00472 67.1889 6.01955 67.0458 6.02651C66.534 6.05142 65.9608 6.34188 65.684 6.78434C65.1657 7.61342 65.4035 8.54267 65.4291 9.44463C65.4408 9.86109 65.3282 10.26 65.2806 10.6708C65.2423 11.0011 65.2452 11.596 65.595 11.7859C65.6996 11.8427 66.2457 11.9221 66.3213 11.7901C66.5935 11.3154 66.4111 10.4885 66.256 10.0039C66.1611 9.70798 66.0377 9.44005 65.8375 9.20014C65.7701 9.11956 65.6967 9.04282 65.6166 8.97469C65.5824 8.94576 65.4676 8.88441 65.5121 8.89008C65.9609 8.94777 66.8131 9.39976 67.0515 9.83637C67.329 10.3444 67.2898 10.9295 67.3577 11.4854C67.4156 11.9579 67.5925 12.2668 67.9658 12.5624C68.0077 12.5955 68.2921 12.8206 68.2934 12.8186C68.4568 12.5924 68.4465 12.2415 68.4042 11.9837C68.2993 11.3447 67.9678 10.6852 67.5746 10.1781C67.4944 10.0746 67.0528 9.71952 67.031 9.60341C67.0184 9.53657 67.1281 9.39683 67.1576 9.34427C67.3068 9.07762 67.4649 8.84283 67.6973 8.64083C67.8892 8.47381 68.0947 8.32876 68.3229 8.21558C68.5829 8.08647 68.9369 7.87531 69.2278 7.83996C69.2648 7.83538 69.256 8.08628 69.2545 8.0991C69.2232 8.3674 69.0767 8.61189 68.9117 8.82031C68.6599 9.13824 68.3685 9.408 68.0247 9.62392C67.9128 9.69425 67.7993 9.76201 67.6802 9.8197C67.6183 9.84955 67.4795 9.82556 67.4881 9.89369C67.4944 9.94368 67.6365 10.0362 67.6762 10.0706C67.8747 10.242 68.0795 10.3874 68.3176 10.498C68.4073 10.5396 68.6459 10.7116 68.7225 10.6942C69.0086 10.6292 69.2342 10.3634 69.5274 10.294C69.9766 10.1878 70.4554 10.3404 70.813 10.6193C70.9625 10.7358 71.3844 11.0585 71.3819 11.276C71.3769 11.7051 70.8357 11.6921 70.5471 11.5983C69.8896 11.385 69.3239 10.9337 68.7143 10.6145" stroke="black" stroke-width="0.5" stroke-miterlimit="1.5" stroke-linecap="round" stroke-linejoin="round"/>
<path d="M45.1294 18.1235C44.4861 18.7015 43.937 19.3804 43.2817 19.9452C42.2102 20.8688 40.4504 21.6916 41.1941 23.4168C41.3024 23.6681 41.4397 23.9694 41.5947 24.1937C41.6223 24.2336 41.9119 24.0858 41.9452 24.0681C42.2748 23.8928 42.5508 23.6267 42.7453 23.3086C43.405 22.2288 43.4041 20.893 43.9453 19.7628C44.0735 19.4951 44.2522 19.2519 44.4273 19.0136C44.4432 18.9918 44.5775 18.7957 44.5848 18.799C44.6659 18.8349 44.7437 19.1169 44.7727 19.1956C44.9069 19.5619 44.971 19.935 45.0207 20.3203C45.1944 21.6735 45.1703 23.3412 45.749 24.6017" stroke="black" stroke-width="0.5" stroke-miterlimit="1.5" stroke-linecap="round" stroke-linejoin="round"/>
<path d="M45.5946 17.8145C46.1222 18.2849 46.5413 18.8422 47.0363 19.3426C47.1674 19.4752 47.4168 19.547 47.5747 19.6574C48.0273 19.974 48.4446 20.4136 48.6309 20.9425C48.6618 21.0304 48.8279 21.5498 48.7072 21.6388C48.6164 21.7056 48.3388 21.6424 48.2337 21.6252C47.7064 21.5386 47.2932 21.2194 47.0407 20.7432C46.8264 20.3388 46.8973 19.9431 46.8096 19.5164C46.7401 19.179 46.5383 18.8871 46.338 18.614" stroke="black" stroke-width="0.5" stroke-miterlimit="1.5" stroke-linecap="round" stroke-linejoin="round"/>
<path d="M45.1825 20.7104C46.0354 21.206 46.4857 22.0442 47.0853 22.7815C47.5648 23.371 48.3146 23.9747 48.948 24.3616C49.5125 24.7063 50.4196 24.9486 51.0805 24.745C51.9519 24.4765 51.2594 23.4243 50.7485 23.1119C49.7227 22.4846 48.6407 23.3725 47.6065 23.026" stroke="black" stroke-width="0.5" stroke-miterlimit="1.5" stroke-linecap="round" stroke-linejoin="round"/>
<path d="M74.2101 32.2596C74.606 32.8865 75.0531 33.4728 75.516 34.0508C75.7437 34.3348 76.0887 34.6698 76.1089 35.0406C76.1574 35.9334 75.9655 36.8109 76.1887 37.6943C76.2244 37.8355 76.3915 38.458 76.6079 38.4835C76.7656 38.5021 77.052 38.0011 77.1136 37.887C77.4872 37.1938 77.4366 36.3105 77.0782 35.6201C76.9365 35.347 76.7522 35.073 76.5383 34.8516C76.466 34.7765 76.3871 34.7062 76.3061 34.6405C76.268 34.6097 76.1438 34.532 76.1882 34.5527C76.8398 34.8577 77.2938 35.2789 77.8595 35.7038C78.0635 35.8572 78.1969 36.1561 78.4532 36.1878C78.7811 36.2285 79.1234 36.1704 79.4506 36.1398C79.6365 36.1224 79.9187 35.8292 80.0803 35.7279C80.5236 35.4498 81.0015 35.2928 81.528 35.4031C82.1168 35.5265 82.507 35.9666 82.8471 36.4317C82.8722 36.4664 83.1693 36.8429 83.1457 36.8733C82.9512 37.1218 82.2235 37.1218 81.932 37.1275C81.3135 37.1398 80.6758 37.0042 80.1156 36.7418C79.5133 36.4596 78.9398 36.0387 78.2412 36.0501C78.239 36.0501 78.2904 36.2325 78.2976 36.2512C78.38 36.4687 78.5179 36.6632 78.6485 36.8541C78.9723 37.3279 79.5396 37.8758 79.6761 38.4481C79.7078 38.5809 79.4426 38.8386 79.3671 38.9184C79.043 39.262 78.5382 39.4737 78.2732 39.866C78.0859 40.1433 78.0465 40.4088 78.0923 40.7313C78.0958 40.7553 78.1218 41.0015 78.1426 41.0051C78.9505 41.1476 79.6416 40.0784 79.7083 39.4067C79.7314 39.1741 79.712 38.9464 79.6982 38.714C79.6971 38.6948 79.6764 38.5054 79.6839 38.5029C79.7259 38.4875 79.9163 38.6741 79.9504 38.706C80.1859 38.9246 80.305 39.4525 80.563 39.61C80.7449 39.7211 81.1767 39.6376 81.3936 39.6495C82.0247 39.6838 83.2614 40.1304 83.1074 40.9883C83.055 41.2798 82.6515 41.2351 82.4625 41.1613C81.9739 40.9707 81.5348 40.5489 81.1112 40.2407C81.0688 40.2099 80.6734 39.8806 80.6597 39.8887C80.646 39.8968 80.6713 40.1303 80.672 40.1687C80.6769 40.4597 80.6874 40.7507 80.6912 41.0417C80.7033 41.9512 79.2646 42.7629 79.9303 43.7941C80.24 44.2742 80.7368 43.679 80.8385 43.3193C80.9529 42.914 80.8852 42.4845 80.8454 42.0737C80.8339 41.9541 80.757 41.6846 80.7965 41.5701C80.8304 41.4723 80.9233 41.7336 80.9842 41.8172C81.1049 41.9827 81.2185 42.1558 81.3524 42.3111C81.7194 42.7363 82.1162 43.2674 82.5986 43.5672C82.8539 43.7258 83.1528 43.8104 83.3028 43.4645C83.3665 43.3176 83.1632 43.0634 83.0854 42.9656C82.7059 42.488 82.0126 42.4162 81.5395 42.1697C81.4214 42.1082 81.0791 41.7732 80.9478 41.7664C80.8778 41.7629 80.9881 41.9005 81.0077 41.9677C81.0449 42.0957 81.0793 42.2248 81.1137 42.3536C81.224 42.7669 81.3796 43.1649 81.5619 43.5515C82.08 44.6518 83.3826 44.8408 83.9802 45.8279C84.1888 46.1726 84.3518 46.989 83.8996 47.2429C83.4612 47.4888 83.0215 47.0647 82.7962 46.7233C82.4611 46.2154 82.4503 45.5988 82.2713 45.0353C82.1376 44.6146 81.8571 44.2386 81.6853 43.831" stroke="black" stroke-width="0.5" stroke-miterlimit="1.5" stroke-linecap="round" stroke-linejoin="round"/>
<path d="M69.9994 32.2825C70.4464 32.8843 70.5466 33.6218 70.4343 34.3551C70.4168 34.47 70.353 34.9653 70.2411 35.0305C70.0505 35.1417 69.6637 35.0392 69.4335 35.138C68.7786 35.4195 68.5172 36.3821 68.454 37.0242C68.4247 37.3211 68.4469 37.6242 68.5103 37.9154C68.5172 37.9474 68.5502 38.1741 68.5742 38.1805C68.9643 38.2846 69.3782 37.7591 69.5564 37.498C70.0794 36.7314 70.1437 35.8818 70.3028 35.0067" stroke="black" stroke-width="0.5" stroke-miterlimit="1.5" stroke-linecap="round" stroke-linejoin="round"/>
<path d="M74.3018 32.1337C74.7332 32.3141 75.1678 32.485 75.6022 32.6577C75.8213 32.7449 76.0974 32.889 76.3401 32.8742C77.0895 32.8286 77.6847 32.1857 78.4665 32.5414C78.918 32.7467 79.2284 33.2602 79.4441 33.6882C79.5018 33.8025 79.6276 33.9858 79.6329 34.1162C79.6342 34.1433 79.3797 34.1988 79.3547 34.2045C79.0267 34.2781 78.6861 34.3224 78.3499 34.2865C77.9477 34.2437 77.4915 34.1144 77.1609 33.8723C76.7315 33.5578 76.4366 33.1073 75.9837 32.8139" stroke="black" stroke-width="0.5" stroke-miterlimit="1.5" stroke-linecap="round" stroke-linejoin="round"/>
<path d="M70.2268 32.1452C70.6152 32.8415 70.8933 33.5001 71.0368 34.2894C71.1011 34.6432 71.1486 35 71.2101 35.3544C71.2299 35.4688 71.2302 35.6745 71.2912 35.7723C71.4009 35.9479 71.6434 36.0717 71.7853 36.2267C72.0718 36.5395 72.3113 36.9242 72.4613 37.3216C72.6457 37.8104 72.712 38.2718 72.6179 38.7827C72.6151 38.7978 72.5536 39.173 72.5164 39.1754C72.2582 39.1924 71.9439 38.7397 71.8342 38.5487C71.396 37.785 71.3883 36.6849 71.2051 35.8378" stroke="black" stroke-width="0.5" stroke-miterlimit="1.5" stroke-linecap="round" stroke-linejoin="round"/>
<path d="M74.6222 30.6557C74.9414 30.6986 75.2758 30.6953 75.5833 30.5889C75.6958 30.5499 75.8047 30.3981 75.8879 30.3208C76.073 30.1486 76.2781 29.9935 76.4968 29.8662C76.8549 29.6576 77.2988 29.5717 77.7107 29.582C78.2295 29.5948 78.8553 29.8239 79.2921 30.1039C79.3904 30.1671 79.4868 30.2396 79.5657 30.3263C79.6001 30.364 79.6856 30.3955 79.6653 30.4424C79.6364 30.509 79.5021 30.5755 79.443 30.6111C79.1666 30.7777 78.8395 30.8587 78.5278 30.9304C77.9649 31.0599 77.3482 31.1195 76.7765 31.0207C76.2596 30.9314 75.7756 30.6993 75.2493 30.6521" stroke="black" stroke-width="0.5" stroke-miterlimit="1.5" stroke-linecap="round" stroke-linejoin="round"/>
<path d="M76.4536 26.2334C76.8774 25.9642 77.4365 25.784 77.5307 25.2646C77.5455 25.1829 77.592 24.9989 77.5589 24.923C77.5182 24.8298 77.3081 24.7174 77.2296 24.6392C77.0193 24.43 76.8508 24.2114 76.7399 23.9348C76.525 23.3997 76.5234 22.7569 76.6221 22.1954C76.636 22.1159 76.6983 21.6903 76.7692 21.652C76.9159 21.5729 77.2056 21.8569 77.2799 21.9434C77.6394 22.36 77.7861 22.9277 77.8623 23.4612C77.9264 23.9101 77.92 24.3938 77.7762 24.8278C77.6535 25.1985 77.4061 25.5333 77.4017 25.9325C77.3979 26.29 77.5189 26.6491 77.694 26.9559C77.7592 27.07 77.9797 27.2749 77.9938 27.4114C78.081 28.2602 78.0634 28.8759 78.9016 29.3091C79.2099 29.4682 79.5485 29.5625 79.875 29.6762C79.9884 29.7156 80.1305 29.8099 80.2519 29.8202C80.2922 29.8237 80.3479 29.5345 80.353 29.5017C80.4124 29.1243 80.2565 28.7761 80.0166 28.4899C79.7415 28.1619 79.3529 27.9082 78.9505 27.7634C78.6828 27.6668 78.3735 27.652 78.1378 27.4797C77.9072 27.3112 77.7797 27.0354 77.6719 26.7806C77.4962 26.3665 77.3957 25.9019 77.788 25.5785C78.211 25.2298 78.8548 25.2531 79.3611 25.1512C79.6302 25.097 79.8809 25.0234 80.1208 24.8877C80.2307 24.8254 80.3865 24.6571 80.5134 24.6487C80.7773 24.6311 81.2101 25.236 81.3612 25.4316C81.4978 25.6085 81.4932 26.0125 81.5899 26.2217C81.8744 26.8374 82.5208 27.3821 83.2127 27.4011C83.3219 27.4042 83.5651 27.4421 83.6592 27.3927C83.7724 27.333 83.7612 26.9597 83.7596 26.861C83.7497 26.2799 83.4325 25.7701 82.9316 25.4765C82.2573 25.0813 81.4405 25.5102 80.9176 24.8952C80.5439 24.4557 80.5358 24.2247 80.9737 23.8616C81.1537 23.7121 81.505 23.6912 81.45 23.4138C81.4154 23.2387 81.1695 23.073 81.0781 22.9422C80.7953 22.5376 80.6713 22.014 80.7554 21.5247C80.7673 21.4557 80.8094 21.1793 80.8658 21.1461C81.3343 20.8702 81.8478 21.2643 81.9725 21.6989C82.0888 22.1045 82.0522 22.5415 81.9103 22.9354C81.8645 23.0627 81.7958 23.1841 81.7092 23.288C81.7009 23.2979 81.6002 23.3997 81.6024 23.4059C81.6198 23.4528 81.818 23.5119 81.861 23.5312C82.0925 23.6337 82.3474 23.7262 82.539 23.8958C82.7725 24.1029 82.8062 24.454 83.0012 24.6978C83.4398 25.2466 84.7236 25.486 85.2216 25.1957C85.4747 25.0483 85.1571 24.3879 85.108 24.3029C84.8817 23.9108 84.1676 23.6969 83.8142 23.7658C83.688 23.7903 83.0714 23.7564 82.9379 23.7304C82.7304 23.6898 82.5472 23.5931 82.3353 23.5528C82.3097 23.5478 81.9546 23.5006 81.948 23.4673C81.9148 23.2977 82.33 22.8946 82.4161 22.7783C82.4892 22.6798 82.5591 22.5792 82.6298 22.4789C82.9847 21.9758 83.2173 21.9567 83.8173 22.0186C83.9697 22.0344 84.1204 22.0542 84.2713 22.082C84.6286 22.1476 84.9888 22.2137 85.3525 22.2327C85.4883 22.2399 85.6783 22.2552 85.7582 22.1219C86.0981 21.5542 85.0602 21.1714 84.6641 21.2284C84.3238 21.2773 83.9548 21.4205 83.6603 21.5967C83.6153 21.6234 83.2287 21.91 83.2071 21.893C83.1822 21.8734 83.2671 21.6316 83.2798 21.5928C83.3768 21.2978 83.5404 21.0143 83.7321 20.7702C84.2566 20.1017 85.1049 19.7995 85.313 18.8911C85.3892 18.5584 85.4108 18.1751 85.1542 17.9097C84.9423 17.6903 84.5901 17.6247 84.2973 17.6469C84.1528 17.6579 83.9903 17.6817 83.9812 17.846C83.9336 18.7051 84.463 19.3212 84.1422 20.1881C84.0947 20.3167 83.9072 20.7949 83.7402 20.8169C83.7336 20.8178 83.6847 20.6852 83.6805 20.6749C83.6171 20.5143 83.5572 20.3517 83.4992 20.1891C83.4527 20.0585 83.4188 19.9241 83.3759 19.7924C83.2446 19.3889 82.9419 18.6701 82.1304 18.7419C81.522 18.7955 82.8891 20.755 83.5816 20.7689" stroke="black" stroke-width="0.5" stroke-miterlimit="1.5" stroke-linecap="round" stroke-linejoin="round"/>
<path d="M55.0721 18.1349C55.2996 18.6294 55.7241 18.9644 56.0574 19.3832C56.0616 19.3765 56.0657 19.3697 56.0699 19.3627C56.6633 20.0848 57.3337 20.7872 57.4295 21.682" stroke="black" stroke-width="0.5" stroke-miterlimit="1.5" stroke-linecap="round" stroke-linejoin="round"/>
<path d="M57.5902 18.1808C58.5477 18.7868 59.8205 18.8956 60.269 20.0821" stroke="black" stroke-width="0.5" stroke-miterlimit="1.5" stroke-linecap="round" stroke-linejoin="round"/>
<path d="M55.7329 19.3941C55.6097 20.0668 55.5952 20.7171 55.6573 21.3966" stroke="black" stroke-width="0.5" stroke-miterlimit="1.5" stroke-linecap="round" stroke-linejoin="round"/>
<path d="M57.9106 17.9748C58.5714 18.3431 59.2289 18.7599 60.0136 18.7815C60.5043 18.7951 60.9795 18.6292 61.45 18.5112" stroke="black" stroke-width="0.5" stroke-miterlimit="1.5" stroke-linecap="round" stroke-linejoin="round"/>
<path d="M61.7109 26.5022C63.5563 27.4111 65.562 27.875 67.5231 28.4493" stroke="black" stroke-width="0.5" stroke-miterlimit="1.5" stroke-linecap="round" stroke-linejoin="round"/>
<path d="M60.882 26.7884C61.6629 27.8083 61.933 28.7163 61.7237 29.9966C61.6962 30.1644 61.6862 30.7858 61.5677 30.8982C60.7207 31.7026 60.1344 32.5666 60.2636 33.8127C60.3013 34.1759 60.4289 34.5039 60.61 34.8174C60.6617 34.9068 60.6904 35.1467 60.7708 35.0821C61.1069 34.8119 61.247 34.4134 61.3563 34.0092C61.6333 32.9857 61.7248 31.9006 61.558 30.8479" stroke="black" stroke-width="0.5" stroke-miterlimit="1.5" stroke-linecap="round" stroke-linejoin="round"/>
<path d="M61.7108 25.5511C61.919 25.4588 62.1811 25.38 62.3648 25.2443C62.639 25.0416 62.68 24.2092 62.8128 23.9035C63.2274 22.9479 64.4447 23.016 64.9575 23.8502C65.0326 23.9726 64.6808 24.1614 64.5735 24.2096C64.0486 24.4451 63.4484 24.4308 62.9245 24.6848C62.7646 24.7625 62.7796 25.0667 62.6472 25.185C62.5807 25.2445 62.2053 25.161 62.2943 25.1681C62.9347 25.2198 63.4931 25.0066 64.0612 25.3767C64.4066 25.6018 66.5604 26.3164 66.8074 25.8139C67.3578 24.6945 65.1112 24.6489 64.0612 25.3767" stroke="black" stroke-width="0.5" stroke-miterlimit="1.5" stroke-linecap="round" stroke-linejoin="round"/>
<path d="M61.9856 28.9402C62.1686 29.3499 62.3735 29.742 62.5151 30.1697C62.5867 30.3865 62.6097 30.724 62.7524 30.9039C62.8392 31.013 63.2178 31.0996 63.3502 31.1855C63.7584 31.4504 63.9809 31.8727 64.0952 32.3368C64.2452 32.9448 64.1622 33.5841 63.6192 33.9647C63.5595 34.0066 63.3124 34.2214 63.2361 34.2044C63.0077 34.1531 62.7636 33.725 62.6674 33.5378C62.1596 32.5505 62.779 31.8099 62.7422 30.8128" stroke="black" stroke-width="0.5" stroke-miterlimit="1.5" stroke-linecap="round" stroke-linejoin="round"/>
<path d="M18.5889 30.1123C18.2461 28.5726 18.7832 27.3859 19.329 25.9707C19.496 25.5376 20.0013 24.625 19.5762 24.2055C19.0072 23.6438 18.1644 24.6756 17.7322 24.9596C17.0683 25.3957 16.2795 25.1164 15.6138 25.4706C14.9391 25.8295 14.717 26.6747 14.1838 27.178C13.895 27.4505 12.9198 27.9543 12.5909 27.4606C12.3176 27.0503 12.9167 26.3876 13.1879 26.1531C13.9657 25.4808 15.2127 25.5528 16.1687 25.2964C16.4209 25.2288 17.2924 25.4385 17.1007 25.0679C16.4059 23.7251 14.3772 24.5122 13.3071 24.6933C12.9766 24.7494 11.8744 24.8503 11.7768 24.3727C11.6115 23.5647 12.6702 23.2372 13.2844 23.3216C14.0648 23.4288 14.3745 23.954 15.0208 24.2893C15.4665 24.5206 16.0786 24.4622 16.5562 24.625C16.7705 24.6981 17.0806 24.9973 17.2941 24.9953C17.6267 24.9924 17.9539 24.8776 18.24 24.7162C18.7338 24.4377 19.316 23.8485 19.7472 24.5657C20.4937 24.7149 21.3995 25.5543 21.2722 26.3881C21.2089 26.8038 20.8428 27.1566 20.6741 27.5322C20.4747 27.9757 20.417 28.887 20.9644 29.1553C21.433 29.385 21.9206 28.6645 22.0387 28.3243C22.4035 27.2743 21.749 26.6271 21.2492 25.7885C21.1596 25.6382 20.9649 25.453 20.9199 25.2843C20.9193 25.2819 21.0783 25.2559 21.095 25.2543C21.3028 25.2343 21.5061 25.2596 21.7112 25.2922C22.3429 25.3924 22.8881 25.6988 23.2309 26.2458C23.4331 26.5685 23.8113 27.3611 23.0632 27.1344C22.9661 27.1049 22.8733 27.0568 22.7855 27.0068C22.4927 26.8394 22.2832 26.5665 22.0295 26.3497C21.7059 26.0731 21.2776 25.8325 21.029 25.4788" stroke="black" stroke-width="0.5" stroke-miterlimit="1.5" stroke-linecap="round" stroke-linejoin="round"/>
<path d="M48.8453 31.4012C49.2345 31.9854 49.5583 32.6112 49.9112 33.2174C50.0486 33.4533 50.2423 33.8488 50.511 33.953C51.1285 34.1922 51.7518 33.7683 52.364 33.7294C52.7134 33.7073 53.0165 33.8611 53.2944 34.062C53.8103 34.4349 54.8351 35.8467 53.8216 36.2839C52.8867 36.6871 51.8706 35.8744 51.2981 35.2026C51.0989 34.9689 50.9141 34.7206 50.7579 34.4559C50.7086 34.3726 50.6626 34.2875 50.6181 34.2016C50.5951 34.1571 50.574 34.0192 50.5539 34.0653C50.3011 34.642 50.4887 35.4896 50.7106 36.0421C50.7839 36.224 50.8753 36.4906 51.0432 36.6084C51.6734 37.0509 52.52 36.7728 52.823 37.6829C52.873 37.8327 52.8949 37.9891 52.8993 38.1464C52.9046 38.3381 52.8949 38.5303 52.8424 38.7156C52.6446 39.4134 52.0056 39.2289 51.61 38.789C51.0741 38.1931 51.0068 37.4184 50.9403 36.6628C50.9368 36.6227 50.9245 36.7415 50.9167 36.7809C50.9013 36.8576 50.8844 36.9338 50.8646 37.0095C50.8062 37.2329 50.6908 37.4331 50.5863 37.6371C50.2846 38.2257 49.8949 38.8029 49.931 39.4916C49.939 39.6467 49.9797 40.0697 50.1533 40.1408C50.494 40.2803 50.8959 39.8956 50.9414 39.5807C51.0545 38.7986 50.5921 38.0735 50.7128 37.2877" stroke="black" stroke-width="0.5" stroke-miterlimit="1.5" stroke-linecap="round" stroke-linejoin="round"/>
<path d="M34.3389 20.0902C34.4726 20.2904 34.5832 20.6303 34.7802 20.7706C35.0606 20.97 35.4793 20.9048 35.7881 20.8158C36.6299 20.5731 37.1753 19.8274 37.9815 19.5303C38.6672 19.2778 39.8016 19.5472 39.9153 20.4209C39.934 20.5643 39.6378 20.7206 39.5371 20.7718C39.0946 20.9975 38.513 21.0574 38.0251 20.9848C37.1378 20.853 35.8009 20.3706 34.9473 20.9471C34.7227 21.0987 34.9571 21.2637 34.9132 21.4115C34.8401 21.6564 34.2358 21.8742 34.0274 21.9566C33.3296 22.2326 32.7388 22.4844 32.3335 23.1613C32.2185 23.3532 32.0428 23.6283 32.0987 23.8669C32.1388 24.0387 32.4485 24.0852 32.595 24.0825C33.0774 24.0733 33.5171 23.7702 33.8209 23.4142C34.2394 22.9235 34.4641 22.2723 34.7321 21.6901C34.7713 21.6051 34.8896 21.1081 34.9535 21.0758C34.9557 21.0747 35.0401 21.2066 35.05 21.2213C35.1586 21.3819 35.2672 21.5429 35.3646 21.7106C35.687 22.2661 35.9122 22.905 36.1309 23.5081C36.1607 23.5905 36.247 24.0867 36.3507 24.1389C36.586 24.2573 36.994 24.1033 37.2235 24.0216C37.4347 23.9466 37.6379 23.8497 37.8436 23.7614C38.0097 23.69 38.1722 23.61 38.3368 23.5354C38.8903 23.2843 40.1928 22.84 40.4671 23.7435C40.7751 24.7575 39.54 25.1893 38.7555 25.0798C38.1288 24.9925 37.5526 24.7718 36.9953 24.4777C36.9479 24.4528 36.4367 24.0887 36.3972 24.1044C36.3831 24.1101 36.4953 24.437 36.5072 24.4718C36.643 24.8703 36.7574 25.2315 36.9477 25.6032C36.9673 25.6413 36.8622 25.6086 36.8193 25.61C36.757 25.612 36.695 25.6137 36.6327 25.6153C36.4375 25.6205 36.243 25.6336 36.0487 25.654C35.5209 25.7087 35.0491 25.8261 34.6693 26.229C34.5678 26.3367 34.3757 26.5206 34.3858 26.6841C34.4248 27.3246 35.5884 27.164 35.9401 26.9805C36.2662 26.8103 36.5624 26.5173 36.7402 26.1953C36.7979 26.0911 36.8451 25.9814 36.8843 25.8688C36.8852 25.866 36.9395 25.6772 36.9464 25.6776C36.9785 25.6794 37.0975 25.8382 37.1303 25.8651C37.2484 25.9629 37.3814 26.0016 37.5325 26.0179C38.2822 26.0994 39.4924 25.6426 39.7063 26.6861C39.8446 27.3608 39.1662 28.1425 38.4765 27.7542C38.0341 27.505 37.7315 27.0619 37.4572 26.646C37.3724 26.5177 37.2946 26.3838 37.2241 26.2473C37.188 26.1776 37.1935 26.0012 37.1226 26.0347C37.0069 26.0898 36.8847 26.47 36.8367 26.577C36.6201 27.061 36.4684 27.5766 36.3787 28.0989C36.3523 28.2525 36.269 28.5393 36.3624 28.6842C36.4245 28.7805 36.6331 28.7516 36.7239 28.7474C36.9611 28.736 37.2296 28.7432 37.4462 28.8525C37.6768 28.9688 37.8753 29.1897 37.941 29.4433C37.9575 29.507 37.9458 29.7063 37.8735 29.7356C37.735 29.7915 37.5788 29.7979 37.4319 29.7808C36.931 29.7228 36.5664 29.3799 36.3507 28.9443C36.2129 28.6661 36.1291 28.3139 35.8492 28.1394C35.2888 27.7897 34.144 28.0416 33.9034 28.7089C33.7067 29.2545 34.7971 29.2122 35.0429 29.134C35.3049 29.0507 35.5546 28.9118 35.7932 28.7765C35.8168 28.7631 35.999 28.6499 36.0043 28.6558C36.0838 28.7455 36.0113 29.0287 35.9901 29.1303C35.8476 29.8112 35.1949 29.9737 34.7385 30.4079C34.5053 30.6297 34.2101 31.0456 34.7112 31.146C36.0417 31.4126 36.0695 29.7684 36.151 28.9248" stroke="black" stroke-width="0.5" stroke-miterlimit="1.5" stroke-linecap="round" stroke-linejoin="round"/>
<path d="M27.3723 17.8499C26.4348 17.8966 25.1332 17.5664 24.3086 18.1023C24.1853 18.1823 24.078 18.2915 23.9862 18.405C23.4031 19.1273 24.3305 19.4665 24.9234 19.116C25.4777 18.7881 25.7733 18.1265 26.3879 17.8831" stroke="black" stroke-width="0.5" stroke-miterlimit="1.5" stroke-linecap="round" stroke-linejoin="round"/>
<path d="M24.5334 20.1316C25.0499 19.7335 25.5689 19.3081 26.033 18.8491C26.4511 18.4352 26.7634 17.972 27.3998 17.9519" stroke="black" stroke-width="0.5" stroke-miterlimit="1.5" stroke-linecap="round" stroke-linejoin="round"/>
<path d="M27.2265 19.9778C26.7387 20.7494 26.494 21.7911 26.7791 22.6845C26.8474 22.8987 26.9458 23.1024 27.0417 23.3053C27.048 23.3183 27.1322 23.5015 27.1383 23.4993C27.2903 23.445 27.4637 23.1864 27.604 23.0855C27.938 22.8453 28.3314 22.6781 28.731 22.5834C29.2841 22.4526 29.9255 22.4883 30.3133 22.9601C30.3881 23.0509 30.5663 23.3097 30.5388 23.4341C30.5243 23.4992 30.2273 23.5817 30.1683 23.6003C29.7824 23.7229 29.3823 23.7547 28.9799 23.7483C28.84 23.7459 28.7001 23.7393 28.56 23.7384C28.4898 23.7379 28.2794 23.7372 28.3495 23.7395C29.5716 23.7809 30.6392 23.6903 31.2774 24.9362C31.4402 25.2537 31.6763 25.7314 31.4069 26.055C30.6545 26.9589 29.4943 26.415 28.7715 25.829C28.5484 25.6478 28.0408 25.2177 28.1149 24.8671C28.1219 24.8347 28.1591 24.9164 28.1814 24.9407C28.2444 25.0103 28.3085 25.0788 28.3732 25.1468C28.5484 25.3306 28.7178 25.52 28.881 25.7149C29.4423 26.3844 30.258 27.3393 29.201 27.9935C28.2365 28.5902 26.5473 28.2552 26.3656 26.997C26.2744 26.365 26.448 25.7306 27.0432 25.4431C27.248 25.3442 27.4425 25.238 27.6258 25.1026C27.6846 25.0592 27.7412 25.0131 27.7981 24.9673C27.8254 24.9455 27.9142 24.8944 27.88 24.9017C27.6516 24.9508 27.408 25.2008 27.2269 25.3418C26.5762 25.8478 26.1931 26.4592 25.6896 27.1014C25.47 27.3816 25.0549 27.9122 24.6752 27.6095C23.4731 26.6513 24.6547 24.63 25.6396 23.9846C25.925 23.7976 26.2874 23.6397 26.6293 23.6051C26.6572 23.6024 26.9374 23.5764 26.9447 23.6018C27.0282 23.891 26.9837 24.2523 27.1502 24.5162C27.3917 24.8994 28.0184 24.7353 28.1314 24.3395C28.4472 23.2346 26.2672 23.5901 27.0379 24.4684" stroke="black" stroke-width="0.5" stroke-miterlimit="1.5" stroke-linecap="round" stroke-linejoin="round"/>
<path d="M44.6874 11.7528C44.059 11.3292 43.3371 11.1543 42.6805 10.7893C42.0952 10.4639 41.6157 9.98023 41.1821 9.47751C41.1456 9.4352 41.165 9.58922 41.1442 9.64105C41.103 9.74379 41.0244 9.83536 40.9484 9.9143C40.6729 10.2 40.4244 10.3679 40.2462 10.739C39.788 11.6924 39.4563 12.4308 38.4428 12.9183C38.2438 13.0141 37.5414 13.2974 37.4063 13.0246C36.8222 11.8453 38.041 10.5284 39.1499 10.3068C39.8155 10.1738 40.416 10.4637 40.9139 9.86833C41.3145 9.38978 40.514 8.83505 40.173 8.62646C40.0508 8.55174 39.9287 8.47537 39.8094 8.3957C39.7475 8.3545 39.5726 8.21696 39.627 8.26769C39.925 8.54624 40.2805 8.7781 40.6087 9.02002C40.7158 9.09896 40.8235 9.17698 40.9301 9.25664C40.9839 9.29693 41.1434 9.42092 41.0898 9.38026C40.9901 9.30463 40.8912 9.22862 40.79 9.15536C40.5638 8.99145 40.0037 8.42555 39.692 8.46328C39.4999 8.48654 38.973 8.6303 38.8428 8.80429C38.6141 9.10976 38.5015 9.48703 38.1932 9.72804C37.3642 10.376 35.689 10.0956 35.1114 9.19382C35.0954 9.1691 35.2119 9.01563 35.228 8.99329C35.3738 8.79 35.5904 8.63726 35.8108 8.52427C36.6397 8.09938 37.4993 8.43086 38.3494 8.52976C38.6916 8.5695 39.1688 8.58708 39.4802 8.41438C39.6582 8.31549 39.7838 8.13491 39.9578 8.03675C40.2334 7.88145 40.5449 7.80966 40.8094 7.62981C41.4145 7.21848 41.9595 6.33447 41.9353 5.56784C41.93 5.40485 41.3674 5.43781 41.265 5.46144C40.6832 5.59641 40.1189 6.12459 39.8005 6.60496C39.6018 6.90458 39.469 7.25731 39.4567 7.61974C39.4527 7.74006 39.4578 7.86148 39.4761 7.98052C39.4851 8.03913 39.5635 8.17483 39.5074 8.1556C39.4311 8.1296 39.3287 7.93529 39.2855 7.87156C39.0547 7.53128 38.9441 7.11592 38.8632 6.71759C38.8386 6.5969 38.8141 6.47676 38.7954 6.35516C38.7839 6.28026 38.8381 6.12257 38.7628 6.13045C38.0888 6.20096 37.435 6.48922 36.7624 6.23026C36.6748 6.19656 36.2778 6.04071 36.2613 5.94749C36.2338 5.79146 36.5803 5.56326 36.6864 5.50356C37.1497 5.24277 37.8033 5.11677 38.3344 5.19003C38.5557 5.22061 38.7633 5.35265 38.8663 5.55466C38.9172 5.65465 38.8295 5.85757 38.9388 5.88339C38.9827 5.89365 39.1201 5.7931 39.1589 5.77168C39.3939 5.64146 39.6094 5.49752 39.8109 5.32005C40.2286 4.95213 40.5975 4.43256 40.6585 3.86538C40.6691 3.76703 40.7273 3.44452 40.6629 3.38189C40.5759 3.29746 40.2405 3.42364 40.1493 3.45807C39.6708 3.6392 39.3259 4.002 39.1554 4.48256C39.0652 4.73657 39.0366 5.00249 39.0384 5.27061C39.039 5.36254 39.0435 5.45448 39.0465 5.54623C39.0478 5.59037 39.0946 5.67699 39.0507 5.67828C39.0159 5.67919 38.9034 5.36749 38.8871 5.32958C38.7337 4.97026 38.5784 4.61954 38.4081 4.26792C38.3026 4.05016 38.0789 3.939 37.9145 3.76282C37.6517 3.48152 37.4109 3.13941 37.2779 2.77551C37.0598 2.17884 37.1904 1.66752 37.6447 1.25948C37.6962 1.21315 37.8398 1.01389 37.9017 1.00492C38.4046 0.93221 38.6243 1.68455 38.6765 2.03123C38.7214 2.32938 38.7089 2.63926 38.6699 2.93741C38.5958 3.50239 38.4064 4.02068 38.428 4.5994" stroke="black" stroke-width="0.5" stroke-miterlimit="1.5" stroke-linecap="round" stroke-linejoin="round"/>
<path d="M48.7079 24.2358C49.367 24.6202 50.305 25.2693 51.1006 25.1699C51.8529 25.0759 52.6328 24.2996 53.4098 24.4677C54.3121 24.6627 55.0176 25.9099 56.0448 25.4345" stroke="black" stroke-width="0.5" stroke-miterlimit="1.5" stroke-linecap="round" stroke-linejoin="round"/>
<path d="M62.164 65.008C60.652 65.536 59.356 66.34 58.276 67.42C57.196 68.5 56.224 69.736 55.36 71.128C54.496 72.52 53.692 74.032 52.948 75.664C52.204 77.272 51.412 78.892 50.572 80.524C49.732 82.132 48.796 83.692 47.764 85.204C46.732 86.716 45.508 88.072 44.092 89.272L44.164 89.344C45.868 88.24 47.416 86.956 48.808 85.492C50.224 84.004 51.58 82.468 52.876 80.884C54.172 79.276 55.432 77.668 56.656 76.06C57.904 74.452 59.212 72.964 60.58 71.596C61.636 70.516 62.74 69.568 63.892 68.752C65.044 67.936 66.184 67.252 67.312 66.7C68.464 66.148 69.58 65.728 70.66 65.44C71.74 65.152 72.748 65.008 73.684 65.008C74.596 65.008 75.232 65.056 75.592 65.152C75.976 65.248 76.168 65.428 76.168 65.692C76.168 65.956 76.012 66.112 75.7 66.16C75.388 66.184 75.136 66.196 74.944 66.196C74.632 66.196 74.332 66.172 74.044 66.124C73.78 66.052 73.516 65.992 73.252 65.944C72.988 65.896 72.76 65.848 72.568 65.8C72.4 65.752 72.256 65.728 72.136 65.728C70.744 66.352 69.544 67.3 68.536 68.572C67.528 69.82 66.592 71.248 65.728 72.856C64.864 74.44 64.012 76.12 63.172 77.896C62.332 79.672 61.384 81.376 60.328 83.008C59.296 84.616 58.096 86.092 56.728 87.436C55.36 88.756 53.704 89.776 51.76 90.496V90.568H52.084C54.604 90.568 56.716 90.28 58.42 89.704C60.124 89.128 61.564 88.396 62.74 87.508C63.94 86.62 64.936 85.648 65.728 84.592C66.52 83.512 67.24 82.468 67.888 81.46L68.176 81.64C67.504 82.792 66.736 83.932 65.872 85.06C65.008 86.164 63.964 87.16 62.74 88.048C61.516 88.912 60.04 89.62 58.312 90.172C56.608 90.724 54.568 91 52.192 91C51.808 91 51.412 90.988 51.004 90.964C50.62 90.94 50.344 90.928 50.176 90.928C50.032 90.928 49.768 90.94 49.384 90.964C49 90.988 48.604 91 48.196 91C47.548 91 47.224 90.856 47.224 90.568C47.224 90.232 47.476 90.064 47.98 90.064C48.364 90.064 48.772 90.112 49.204 90.208C49.66 90.304 50.164 90.4 50.716 90.496C51.316 90.376 51.952 90.004 52.624 89.38C53.296 88.732 53.968 87.94 54.64 87.004C55.336 86.044 55.996 84.988 56.62 83.836C57.268 82.66 57.856 81.496 58.384 80.344C58.984 79.024 59.668 77.68 60.436 76.312C61.228 74.944 62.128 73.624 63.136 72.352C64.168 71.056 65.32 69.856 66.592 68.752C67.864 67.648 69.28 66.7 70.84 65.908L70.768 65.836C68.968 66.292 67.336 66.976 65.872 67.888C64.408 68.8 63.04 69.856 61.768 71.056C60.496 72.232 59.296 73.504 58.168 74.872C57.064 76.24 55.96 77.632 54.856 79.048C53.776 80.44 52.66 81.82 51.508 83.188C50.38 84.532 49.168 85.768 47.872 86.896C46.912 87.736 45.892 88.552 44.812 89.344C43.732 90.112 42.604 90.76 41.428 91.288L41.104 91C42.208 89.92 43.132 88.72 43.876 87.4C44.644 86.056 45.352 84.652 46 83.188C46.648 81.724 47.308 80.236 47.98 78.724C48.652 77.188 49.456 75.676 50.392 74.188C51.352 72.7 52.516 71.272 53.884 69.904C55.252 68.536 56.944 67.276 58.96 66.124L58.888 66.052C57.136 66.7 55.54 67.564 54.1 68.644C52.66 69.7 51.328 70.852 50.104 72.1C48.88 73.324 47.74 74.596 46.684 75.916C45.652 77.212 44.68 78.436 43.768 79.588C42.784 80.812 41.752 82.108 40.672 83.476C39.592 84.844 38.416 86.116 37.144 87.292C35.896 88.468 34.552 89.44 33.112 90.208C31.672 90.976 30.1 91.36 28.396 91.36C27.772 91.36 27.148 91.264 26.524 91.072C25.9 90.904 25.336 90.652 24.832 90.316C24.304 89.956 23.884 89.524 23.572 89.02C23.236 88.492 23.068 87.892 23.068 87.22C23.068 86.476 23.26 85.84 23.644 85.312C24.004 84.784 24.58 84.52 25.372 84.52C25.828 84.52 26.212 84.664 26.524 84.952C26.836 85.24 26.992 85.612 26.992 86.068C26.992 87.172 26.452 87.76 25.372 87.832C25.396 88.888 25.744 89.632 26.416 90.064C27.088 90.496 27.916 90.712 28.9 90.712C30.196 90.712 31.6 90.352 33.112 89.632C34.648 88.888 36.232 87.664 37.864 85.96C39.088 84.688 40.252 83.344 41.356 81.928C42.484 80.512 43.612 79.096 44.74 77.68C45.868 76.24 47.02 74.848 48.196 73.504C49.396 72.136 50.68 70.876 52.048 69.724C53.44 68.572 54.94 67.564 56.548 66.7C58.18 65.812 59.98 65.152 61.948 64.72L62.164 65.008Z" fill="black"/>
<path d="M59.98 55.46C60.604 55.316 61.132 55.028 61.564 54.596C62.02 54.164 62.248 53.552 62.248 52.76C62.248 52.136 62.008 51.596 61.528 51.14C61.048 50.684 60.352 50.456 59.44 50.456C57.976 50.456 56.5 51.116 55.012 52.436C53.524 53.756 52.06 55.532 50.62 57.764C49.18 59.996 47.776 62.588 46.408 65.54C45.04 68.468 43.732 71.552 42.484 74.792L41.98 74.72C42.028 74.312 42.064 73.892 42.088 73.46C42.136 73.028 42.16 72.608 42.16 72.2C42.16 70.64 42.04 69.092 41.8 67.556C41.56 66.02 41.284 64.496 40.972 62.984C40.66 61.472 40.372 59.96 40.108 58.448C39.868 56.912 39.724 55.376 39.676 53.84H39.604C39.052 54.968 38.428 56.264 37.732 57.728C37.06 59.192 36.316 60.692 35.5 62.228C34.684 63.74 33.784 65.228 32.8 66.692C31.816 68.132 30.748 69.428 29.596 70.58C28.444 71.708 27.196 72.62 25.852 73.316C24.532 74.012 23.104 74.36 21.568 74.36C20.92 74.36 20.296 74.252 19.696 74.036C19.096 73.844 18.58 73.556 18.148 73.172C17.692 72.764 17.332 72.284 17.068 71.732C16.78 71.18 16.636 70.556 16.636 69.86C16.636 69.14 16.84 68.54 17.248 68.06C17.632 67.58 18.16 67.34 18.832 67.34C19.36 67.34 19.792 67.496 20.128 67.808C20.464 68.096 20.632 68.456 20.632 68.888C20.632 69.824 20.164 70.388 19.228 70.58C19.132 71.612 19.36 72.392 19.912 72.92C20.44 73.448 21.208 73.712 22.216 73.712C23.512 73.712 24.736 73.412 25.888 72.812C27.064 72.188 28.168 71.372 29.2 70.364C30.232 69.356 31.192 68.216 32.08 66.944C32.992 65.648 33.82 64.34 34.564 63.02C35.332 61.676 36.028 60.368 36.652 59.096C37.276 57.824 37.828 56.696 38.308 55.712L39.604 52.976C39.748 51.992 39.952 51.188 40.216 50.564C40.504 49.916 40.804 49.4 41.116 49.016C41.428 48.632 41.728 48.368 42.016 48.224C42.328 48.08 42.568 48.008 42.736 48.008C42.976 48.008 43.096 48.104 43.096 48.296C43.096 48.392 43.06 48.488 42.988 48.584C42.94 48.68 42.88 48.824 42.808 49.016C42.76 49.208 42.7 49.484 42.628 49.844C42.58 50.204 42.556 50.684 42.556 51.284C42.556 52.508 42.664 53.756 42.88 55.028C43.096 56.276 43.336 57.56 43.6 58.88C43.864 60.2 44.092 61.544 44.284 62.912C44.5 64.28 44.608 65.696 44.608 67.16C44.608 67.688 44.572 68.204 44.5 68.708H44.572C44.956 67.748 45.448 66.596 46.048 65.252C46.672 63.884 47.38 62.456 48.172 60.968C48.988 59.456 49.876 57.968 50.836 56.504C51.796 55.016 52.816 53.696 53.896 52.544C54.976 51.368 56.104 50.42 57.28 49.7C58.456 48.956 59.668 48.584 60.916 48.584C61.948 48.584 62.788 48.848 63.436 49.376C64.084 49.904 64.408 50.648 64.408 51.608C64.408 52.208 64.276 52.76 64.012 53.264C63.748 53.744 63.4 54.164 62.968 54.524C62.536 54.884 62.056 55.16 61.528 55.352C61 55.544 60.484 55.652 59.98 55.676V55.46Z" fill="black"/>
</svg>
