<svg width="484" height="505" viewBox="0 0 484 505" fill="none" xmlns="http://www.w3.org/2000/svg">
<path d="M191.54 224.6L220.638 224.674C224.645 224.686 227.919 221.432 227.931 217.416L227.985 194.256L249.782 171.799C250.864 170.678 250.837 168.897 249.72 167.819C248.61 166.737 246.825 166.76 245.739 167.874L227.88 186.28C227.548 182.576 224.536 179.631 220.751 179.619L191.653 179.545C187.646 179.533 184.372 182.787 184.36 186.803L184.282 217.299C184.278 221.318 187.532 224.588 191.54 224.6L191.54 224.6ZM189.997 186.823C189.997 185.917 190.735 185.182 191.641 185.182L220.739 185.257C221.645 185.257 222.38 185.995 222.376 186.901L222.364 191.964L208.376 206.386L201.958 198.866C200.95 197.686 199.181 197.55 197.993 198.546C196.806 199.554 196.665 201.335 197.681 202.515L208.107 214.745L222.349 200.073L222.306 217.405C222.306 218.311 221.568 219.045 220.661 219.045L191.563 218.971C190.657 218.971 189.923 218.233 189.927 217.326L189.997 186.823Z" fill="black"/>
<path d="M298.54 224.87L327.638 224.944C331.646 224.956 334.919 221.702 334.931 217.686L335.009 187.19C335.021 183.175 331.763 179.905 327.755 179.897L298.657 179.823C294.649 179.811 291.376 183.065 291.364 187.081L291.286 217.577C291.274 221.589 294.528 224.858 298.54 224.87V224.87ZM296.993 187.093C296.993 186.187 297.731 185.452 298.638 185.452L327.736 185.527C328.642 185.527 329.376 186.265 329.372 187.171L329.294 217.667C329.294 218.573 328.556 219.308 327.65 219.308L298.552 219.233C297.645 219.233 296.911 218.495 296.915 217.589L296.993 187.093Z" fill="black"/>
<path d="M237.83 202.19C237.826 203.749 239.083 205.006 240.642 205.014L271.615 205.092C273.174 205.096 274.432 203.838 274.439 202.28C274.443 200.721 273.185 199.463 271.627 199.456L240.654 199.378C239.095 199.378 237.83 200.631 237.83 202.19Z" fill="black"/>
<path d="M353.26 205.3L384.233 205.378C385.791 205.382 387.049 204.124 387.057 202.566C387.061 201.007 385.803 199.749 384.244 199.741L353.271 199.663C351.713 199.659 350.455 200.917 350.447 202.476C350.447 204.034 351.701 205.292 353.26 205.3V205.3Z" fill="black"/>
<path d="M384.1 256.06L191.23 255.58L191.246 249.947L384.116 250.427L384.1 256.06Z" fill="black"/>
<path d="M184.28 51.68H75.8696C72.7602 51.68 70.2368 49.1605 70.2368 46.0472C70.2368 42.9339 72.7563 40.4144 75.8696 40.4144H184.28C187.389 40.4144 189.912 42.9339 189.912 46.0472C189.912 49.1605 187.389 51.68 184.28 51.68Z" fill="black"/>
<path d="M206.8 144.59H53.3496C51.791 144.59 50.5332 143.328 50.5332 141.774C50.5332 140.215 51.7949 138.957 53.3496 138.957H206.8C208.358 138.957 209.616 140.219 209.616 141.774C209.616 143.336 208.354 144.59 206.8 144.59Z" fill="black"/>
<path d="M184.28 107.99H75.8696C72.7602 107.99 70.2368 105.47 70.2368 102.357C70.2368 99.2439 72.7563 96.7244 75.8696 96.7244H184.28C187.389 96.7244 189.912 99.2439 189.912 102.357C189.912 105.47 187.389 107.99 184.28 107.99Z" fill="black"/>
<path d="M161.75 77.02H98.4018C96.8432 77.02 95.5854 75.7583 95.5854 74.2036C95.5854 72.645 96.8471 71.3872 98.4018 71.3872H161.75C163.308 71.3872 164.566 72.6489 164.566 74.2036C164.566 75.7661 163.305 77.02 161.75 77.02Z" fill="black"/>
<path d="M206.8 291.01H53.3496C51.791 291.01 50.5332 289.748 50.5332 288.194C50.5332 286.635 51.7949 285.377 53.3496 285.377H206.8C208.358 285.377 209.616 286.639 209.616 288.194C209.616 289.752 208.354 291.01 206.8 291.01Z" fill="black"/>
<path d="M206.8 313.54H53.3496C51.791 313.54 50.5332 312.278 50.5332 310.724C50.5332 309.165 51.7949 307.907 53.3496 307.907H206.8C208.358 307.907 209.616 309.169 209.616 310.724C209.616 312.282 208.354 313.54 206.8 313.54Z" fill="black"/>
<path d="M416.65 197.53L416.763 154.792L259.593 154.401L259.589 20.0314H256.781C247.827 20.0314 240.621 12.7111 240.621 3.81237L240.617 0.995972H19.5267V3.81237C19.5267 12.7108 12.3197 20.0314 3.36668 20.0314H0.546387V339.551H3.36279C12.3159 339.551 19.5228 346.872 19.5228 355.77V358.587H73.1868L132.042 504.997L483.432 363.707L416.65 197.53ZM416.595 212.624L475.271 358.474L320.471 329.869L353.362 284.146L416.436 284.314L416.595 212.624ZM301.495 346.594C290.347 362.133 270.296 370.188 251.542 366.699L207.616 358.59H240.616V355.773C240.616 346.875 247.823 339.554 256.776 339.554H259.593V283.917L346.425 284.14L301.495 346.594ZM411.085 160.364L410.804 278.614L163.024 277.993L163.305 159.743L411.085 160.364ZM25.0051 352.954C23.7668 343.153 15.9934 335.388 6.19613 334.145V25.435C15.9969 24.1967 23.7621 16.4233 25.0051 6.62599H235.165C236.403 16.4268 244.177 24.192 253.974 25.435V154.335L157.732 154.112L157.677 161.487H53.3374C51.814 161.487 50.521 162.726 50.521 164.304C50.521 165.882 51.814 167.12 53.3374 167.12H157.687L157.633 184.015H53.3327C51.8093 184.015 50.5164 185.253 50.5164 186.832C50.5164 188.41 51.8093 189.648 53.3327 189.648H157.623L157.568 206.543H53.3381C51.8147 206.543 50.5217 207.781 50.5217 209.359C50.5217 210.937 51.8147 212.176 53.3381 212.176H157.568L157.513 231.887L88.5874 231.891C85.4351 231.891 82.9546 234.426 82.9546 237.523C82.9546 240.621 85.4312 243.156 88.5874 243.156H157.513L157.459 262.867H53.3387C51.8153 262.867 50.5223 264.106 50.5223 265.684C50.5223 267.262 51.8153 268.5 53.3387 268.5H157.409V283.648L253.987 283.871V334.16C244.186 335.398 236.421 343.171 235.178 352.969L25.0177 352.973L25.0051 352.954ZM79.2901 358.591H176.653L226.262 367.77L134.36 495.54L79.2901 358.591ZM141.567 495.091L232.344 368.891L250.532 372.211C260.946 374.184 271.704 373.113 281.505 369.113C291.361 365.172 299.86 358.523 306.056 349.91L316.868 334.93L469.708 363.2L141.567 495.091Z" fill="black"/>
</svg>
