<svg width="72" height="94" viewBox="0 0 72 94" fill="none" xmlns="http://www.w3.org/2000/svg">
<path d="M71.6913 93.1841C71.0061 90.1954 70.3177 87.2073 69.6263 84.2198C69.3932 83.2085 69.1869 82.1912 68.9267 81.1861C68.0731 77.8888 67.0453 74.622 66.3717 71.2951C65.3811 66.402 64.6159 61.47 63.7961 56.5491C63.0848 52.2792 62.4249 48.0025 61.7558 43.7272C61.5669 42.5195 61.4731 41.2989 61.2511 40.0969C60.929 38.3521 60.5183 36.6208 60.1668 34.8802C59.6763 32.4518 59.1879 30.0226 58.7475 27.5867C58.702 27.2205 58.8012 26.8511 59.024 26.557C61.0114 24.4244 62.6777 22.0139 63.9707 19.4013C65.3067 16.308 62.655 12.8477 60.3939 11.6766C58.8642 10.8844 57.3378 11.3991 55.8152 11.4941C55.6817 11.5272 55.5427 11.5326 55.407 11.5098C55.2713 11.4871 55.1416 11.4368 55.0261 11.3619C54.9106 11.2871 54.8117 11.1894 54.7355 11.0748C54.6593 10.9602 54.6074 10.8312 54.583 10.6958C54.3346 9.88135 53.8261 9.17079 53.1353 8.67298C52.4445 8.17517 51.6095 7.91757 50.7583 7.93964C48.4096 7.67886 46.033 7.84766 43.7446 8.43779C42.0747 9.01049 40.6545 10.1435 39.7251 11.6444C38.3488 13.5469 38.3823 15.9517 38.3886 18.1918C38.528 20.5124 38.8123 22.822 39.2398 25.1072C37.8841 24.9983 36.556 24.968 35.253 24.7493C34.7012 24.5675 34.2032 24.2516 33.8037 23.8299C33.3473 23.392 32.9173 22.9273 32.5159 22.4384C32.4263 22.5602 32.4843 22.4132 32.5934 22.3439C33.1145 22.0158 33.5481 21.566 33.8571 21.0334C34.1661 20.5007 34.3412 19.901 34.3674 19.2857C34.4591 18.3059 34.8254 17.3719 35.4242 16.5909C36.0134 15.9503 36.3341 15.1078 36.3199 14.2375C36.3174 13.3315 36.1739 12.3905 37.0988 11.7585C37.2858 11.6308 37.2845 11.0703 37.1987 10.7494C37.0387 10.3201 37.0023 9.85455 37.0935 9.40559C37.1848 8.95663 37.4001 8.54225 37.715 8.20949C37.9719 7.96577 38.1715 7.66802 38.2992 7.33776C38.427 7.0075 38.4798 6.65297 38.4538 6.29981C38.4279 5.94664 38.3237 5.60366 38.149 5.29565C37.9743 4.98764 37.7333 4.72229 37.4435 4.51878C36.1904 3.4596 34.78 2.60211 33.2629 1.97716C31.7665 1.39438 30.0104 1.52673 28.5212 0.932104C27.4879 0.495345 26.3644 0.315 25.2463 0.406454C24.1283 0.497908 23.049 0.858447 22.1004 1.45731C20.0927 2.60263 19.622 3.43481 19.8162 6.00561C19.9322 7.54128 20.4205 9.10394 19.7565 10.6534C19.4373 11.2493 19.3463 11.9411 19.5005 12.5992C19.6548 13.2573 20.0437 13.8366 20.5944 14.2285C21.0426 14.6263 21.3802 15.1334 21.5741 15.7004C22.3701 17.8746 21.1735 19.6879 20.4777 21.5367C20.256 22.1257 19.2767 22.422 18.6205 22.8143C18.2825 23.0166 17.8822 23.116 17.5282 23.2959C15.6561 24.2476 13.7474 25.1397 11.9344 26.1901C10.3617 27.1013 8.41115 27.5811 7.56497 29.4337C6.67233 31.4807 6.14911 33.6696 6.01951 35.8991C5.83509 38.2792 5.64403 40.6585 5.44632 43.0372C5.35447 44.1665 5.30932 45.3044 5.14601 46.421C4.98699 47.0891 4.98449 47.7849 5.13869 48.4541C5.2929 49.1233 5.59965 49.7478 6.03501 50.2789C6.21234 50.5207 6.372 50.775 6.51275 51.0397C5.89189 50.9593 5.46057 50.8777 5.02796 50.8521C3.17361 50.7421 1.89301 51.7514 0.593609 52.8662C-0.243611 53.5845 -0.145011 54.0885 0.575359 54.7426C1.50498 55.5867 2.44103 56.4237 3.50143 57.3782C1.75932 57.8996 1.38643 59.2857 0.972769 60.7831C0.685259 61.8238 0.779038 62.205 1.86287 62.347C2.0781 62.3451 2.29092 62.3924 2.48516 62.4851C2.67941 62.5778 2.84997 62.7136 2.98391 62.882C3.11784 63.0505 3.21163 63.2473 3.25814 63.4575C3.30465 63.6676 3.30266 63.8856 3.25233 64.0949C3.0297 66.0611 2.91497 68.0455 2.62833 69.9995C2.25249 72.5619 1.72986 75.0975 1.31482 77.6534C1.08095 78.7687 1.23869 79.9306 1.76146 80.9432C2.28423 81.9558 3.14006 82.7572 4.18476 83.2125C5.11696 83.5748 6.09497 83.8059 7.09076 83.8992C8.87035 84.0568 9.33963 81.9077 8.86576 80.1174C8.23938 78.4097 8.07935 76.566 8.40216 74.7759C8.75621 73.4462 9.06538 72.103 9.39441 70.7658C9.53783 70.1828 9.48641 69.3465 9.86102 69.065C10.9623 68.3225 12.1108 67.6526 13.2993 67.0596C13.9845 68.2233 13.9845 68.2233 12.7183 69.0591L12.0946 68.1532C11.8545 68.4132 11.6506 68.7043 11.4884 69.0189C11.4104 69.3422 11.3946 69.6775 11.4419 70.0068C11.5537 70.6497 11.5912 71.3033 11.5536 71.9548C11.1034 74.2433 10.6074 76.5246 10.0266 78.7792C8.69891 83.608 8.34639 88.6528 8.98958 93.6193H10.1018C10.122 91.4512 10.1563 89.2835 10.1596 87.1147C10.1813 83.057 10.8397 79.0278 12.1107 75.1742C12.3429 74.4559 12.5576 73.7312 12.8116 72.9084C13.3584 73.1379 13.8898 73.4022 14.4027 73.6998C15.286 74.2946 15.7965 74.1546 16.0949 73.1302C16.3074 72.3599 16.6033 71.615 16.9772 70.9088C17.4778 69.9992 18.0032 70.1986 18.718 70.9498C19.4234 71.5703 20.2555 72.0298 21.1563 72.2963C21.94 72.4823 22.7411 72.5853 23.5463 72.6037C23.0066 73.6554 22.6293 74.5698 22.1032 75.3854C19.3388 79.628 17.5915 84.4516 16.9974 89.4804C16.8326 90.8574 16.7 92.2395 16.5525 93.6193H18.1095C18.2136 91.3172 18.4747 89.0248 18.8909 86.7583C19.8291 82.9829 20.8041 79.1808 23.0948 75.9384C23.9468 74.7325 24.6261 73.4029 25.4257 72.1571C25.5991 71.8869 25.9434 71.5608 26.2218 71.5584C27.3337 71.5493 28.4523 71.6293 29.5653 71.7309C30.6651 71.8313 31.7613 71.9942 32.8585 72.1361C33.8071 72.2587 34.7535 72.4514 35.7032 72.5054C37.8196 72.6257 39.9375 72.6896 42.0547 72.7542C43.0076 72.7832 43.9603 72.7591 45.0035 72.7591C46.6613 77.1748 48.4976 81.4586 49.8386 85.8769C50.587 88.3424 50.5121 91.0311 50.8081 93.6192H53.0325C52.1894 90.4063 51.7076 87.1093 51.5961 83.7895C51.6506 76.4406 51.5394 69.0831 51.3817 61.7275C51.301 57.9601 50.9686 54.1896 50.761 50.4203C50.6684 48.7369 50.6374 47.0517 50.5167 45.3697C50.3529 43.0855 50.0455 40.8041 49.9513 38.5205C49.7931 34.6864 49.7405 30.8513 49.6749 27.0172C49.6575 25.9918 50.3533 25.5962 51.3283 25.9075C51.7766 26.0505 52.2823 25.981 52.7446 26.0919C53.5894 26.2945 54.5518 26.0198 55.2611 26.8783C55.4083 27.0564 56.0055 26.8684 56.6068 26.8386C56.9807 27.58 57.2929 28.3509 57.5403 29.1435C58.2376 32.0917 58.8839 35.05 59.4793 38.0185C59.9694 40.4808 60.3773 42.9577 60.7712 45.4344C61.1357 47.7267 61.4032 50.0312 61.7682 52.3234C62.2047 55.0645 62.6958 57.7987 63.1698 60.535C63.6941 63.5623 64.1541 66.601 64.774 69.612C65.4288 72.7925 66.2478 75.9446 66.9786 79.1124C67.5011 81.3773 67.9549 83.6564 68.5164 85.9125C69.0068 87.8831 69.6097 89.8294 70.1527 91.7889C70.3206 92.3948 70.4552 93.0089 70.6051 93.6192H71.7173C71.7211 93.4737 71.7124 93.3281 71.6913 93.1841V93.1841ZM40.2365 20.3979C40.2158 20.4288 40.1933 20.4407 40.1731 20.4762C40.0421 20.707 39.8919 20.9265 39.5669 21.4425C39.3841 20.3377 39.257 19.5691 39.1095 18.6773C39.5703 19.1903 39.9504 19.7705 40.2365 20.3979V20.3979ZM37.0209 44.8671C37.5561 45.7542 37.9992 46.6938 38.3431 47.6712C39.2104 49.8611 39.9514 52.099 40.5624 54.3738C41.0126 56.6851 41.3447 59.0179 41.5573 61.363C41.5869 61.5935 41.5119 62.0083 41.3809 62.0523C40.0279 62.507 38.7922 63.4257 37.2578 63.2095C35.2676 62.929 33.2909 62.5226 31.301 62.2386C30.8819 62.2668 30.4722 62.3748 30.0937 62.5568C30.4338 62.8105 30.8024 63.0236 31.1921 63.1917C31.9691 63.4274 32.7749 63.5551 33.5655 63.7437C34.2771 63.9134 34.9843 64.1046 35.8667 64.3306C35.843 64.5444 35.8046 64.8929 35.78 65.1155C35.0269 65.0547 34.4117 65.005 33.6311 64.9418C33.175 64.2042 33.175 64.2042 32.1064 65.5187C31.9118 64.9715 31.7451 64.5025 31.4935 63.7947L30.519 65.1819C29.9768 64.2495 29.4842 63.4024 28.903 62.4029C30.7851 62.0209 31.2877 60.3457 32.2133 59.0907C32.2812 58.8895 32.2973 58.6745 32.2603 58.4655C32.2233 58.2565 32.1343 58.0601 32.0014 57.8945C31.1104 57.0755 30.111 56.3746 29.3593 55.7899C29.9462 54.5071 30.5972 53.2209 31.1231 51.8819C31.4255 51.1121 31.1254 50.5601 30.1846 50.3739C29.9559 50.3453 29.7366 50.2655 29.543 50.1405C29.3494 50.0155 29.1864 49.8484 29.0663 49.6517C28.9461 49.4551 28.8718 49.2339 28.8489 49.0045C28.826 48.7752 28.8551 48.5436 28.934 48.3271C29.3748 46.2061 30.569 44.3166 32.2955 43.0083C34.4869 41.4804 36.7251 40.015 38.9862 38.5889C39.8305 38.0199 40.76 37.5891 41.7398 37.3127C42.5854 37.1839 43.4476 37.215 44.2818 37.4043C45.7108 37.6213 47.1281 37.9377 48.8544 38.2711L49.1398 46.4451L48.8331 46.5077C48.4795 45.3965 48.1256 44.2854 47.7716 43.1744C47.6133 42.6807 47.4372 42.1919 47.2875 41.696C47.1924 41.3811 43.9874 38.3175 43.1236 38.4398C41.7866 38.6099 40.5116 39.1052 39.4103 39.8822C38.3091 40.6593 37.415 41.6944 36.8065 42.8971C36.6535 43.2124 36.5925 43.5645 36.6304 43.9129C36.6683 44.2613 36.8037 44.592 37.0209 44.8671V44.8671ZM36.6965 65.2742C36.8657 64.884 36.9366 64.3982 37.1144 64.3619C38.4444 64.0902 39.7954 63.9074 41.2729 63.6758C41.2053 64.021 41.1288 64.4101 41.1101 64.5056C39.5925 64.7699 38.2902 64.9967 36.6965 65.2742V65.2742ZM38.7938 66.2089C36.3612 67.4747 33.6874 67.436 30.9841 67.6109L30.9351 66.2089H38.7938ZM26.6744 64.8479L24.7803 63.1137L25.0012 62.7793C25.9654 62.8431 26.9295 62.907 27.9188 62.9725C27.4952 63.6108 27.1591 64.1174 26.6744 64.8478V64.8479ZM27.4424 67.3776C26.0865 67.2367 25.5544 66.5537 25.8239 65.3006C27.4954 65.9633 27.6243 66.1287 27.4424 67.3776V67.3776ZM22.5131 54.3649C23.231 54.3551 23.9262 54.6169 24.4594 55.0979C24.9926 55.5788 25.3244 56.2435 25.3884 56.9587C25.3772 57.0999 25.3344 57.2368 25.2631 57.3592C25.1919 57.4817 25.094 57.5865 24.9767 57.6659C24.3286 57.9049 23.6663 58.1035 22.9937 58.2607C23.9222 56.7611 24.2725 55.4533 22.5131 54.3649ZM20.0561 56.9683C19.6481 56.9071 19.3289 56.8592 18.6312 56.7545C19.211 56.064 19.5551 55.2631 20.1212 55.076C20.5826 54.8671 21.0985 54.8105 21.5943 54.9141C22.09 55.0178 22.5399 55.2765 22.8789 55.6527C21.5882 55.7504 19.8708 54.7677 20.0561 56.9683V56.9683ZM22.5067 56.9374C22.1878 57.0901 21.8446 57.1854 21.4927 57.219C21.339 57.2088 21.1989 56.7694 20.8899 56.2521C21.6178 56.3707 22.0303 56.4378 22.4427 56.5048L22.5067 56.9374ZM17.406 62.5976C17.0638 62.9321 16.6553 63.1913 16.2068 63.3582C15.7583 63.5252 15.2797 63.5963 14.8021 63.567C14.3244 63.5376 13.8582 63.4085 13.4335 63.1879C13.0088 62.9673 12.635 62.6601 12.3364 62.2862C12.2392 62.1143 12.1693 61.9284 12.1293 61.7351C15.0366 63.3385 16.9945 62.6461 17.0114 60.0741C18.2013 60.852 18.3395 61.7361 17.406 62.5976ZM16.4045 64.3319C15.8489 64.3572 15.2985 64.4505 14.7656 64.6097L14.6793 64.3548C15.5828 64.084 16.4862 63.8132 17.4153 63.5347C17.6166 64.5563 17.0422 64.3746 16.4045 64.3319H16.4045ZM9.37271 56.6469C9.16755 56.5489 8.94155 56.5023 8.71433 56.5114C8.4871 56.5204 8.26552 56.5847 8.0688 56.6988C7.44411 57.168 7.07845 56.7913 6.79559 56.3866C6.70866 56.2622 7.04 55.6106 7.26878 55.5619C7.87052 55.3857 8.50927 55.3794 9.11441 55.5435C9.63991 55.8193 10.0864 56.2246 10.4116 56.721C10.7368 57.2174 10.93 57.7886 10.9729 58.3805C10.8368 59.5618 9.97411 60.3392 8.48916 60.6014C8.23327 60.6344 7.97588 60.6546 7.71797 60.6617L7.49582 60.8584C7.24473 60.5847 6.87049 60.3468 6.76837 60.0298C6.56196 59.389 6.99301 59.2336 7.56192 59.2079C8.51608 59.1647 9.45911 58.9753 9.69963 57.8891C9.74379 57.6708 9.73728 57.4453 9.68061 57.23C9.62394 57.0146 9.51861 56.8151 9.37273 56.6469L9.37271 56.6469ZM9.87385 54.9382C10.4141 54.7653 10.7717 54.6508 11.3121 54.4779C11.2441 55.124 11.1943 55.5972 11.099 56.5022C10.6109 55.8791 10.298 55.4797 9.87387 54.9382L9.87385 54.9382ZM8.7802 54.3921C7.83337 54.3494 7.55338 54.0855 7.21003 52.9378C7.7349 53.1385 8.11133 53.278 8.48475 53.4258C9.14634 53.707 9.88219 53.7621 10.5783 53.5825C11.2743 53.403 11.8917 52.9988 12.3347 52.4327C12.4747 52.2412 12.6256 51.9137 12.5512 51.7333C12.3282 51.1927 12.1162 50.4921 11.68 50.2232C11.3245 49.9534 10.8898 49.8084 10.4434 49.8107C9.99709 49.8131 9.56398 49.9626 9.21127 50.2362C8.84234 50.5788 8.80787 51.314 8.70534 51.8895C8.66644 52.1076 8.86047 52.3751 8.94834 52.6201C8.04001 52.5639 7.82255 52.1599 8.09316 51.3781C8.36803 50.5838 8.50499 49.776 9.32374 49.2928C10.0622 48.8569 11.691 49.2664 12.6104 50.2265C12.8829 50.5689 13.0399 50.9888 13.0588 51.426C13.0777 51.8632 12.9576 52.2951 12.7157 52.6597C12.2454 53.2414 11.6428 53.7022 10.9582 54.0035C10.2736 54.3049 9.52681 54.4381 8.78022 54.3921L8.7802 54.3921ZM14.0504 46.5528C14.7639 47.2215 15.2247 47.6532 15.7719 48.1661C15.5329 48.082 15.2227 48.0624 15.0626 47.8976C14.698 47.4704 14.36 47.0213 14.0504 46.5528L14.0504 46.5528ZM16.7445 52.6363C16.6846 52.7342 16.6247 52.8321 16.5647 52.9299C15.9786 52.5595 15.3925 52.1892 14.8064 51.8188L15.0051 51.4955C15.5849 51.8758 16.1647 52.256 16.7445 52.6363L16.7445 52.6363ZM14.1952 49.6154C15.4739 50.3454 14.1823 50.678 14.1293 51.3824C13.4372 50.2846 12.8689 49.4073 12.3401 48.5077C12.286 48.4156 12.469 48.1899 12.4583 48.214C12.997 48.7289 13.5781 49.1977 14.1952 49.6154V49.6154ZM13.0805 54.0332C13.9044 53.7106 14.7797 53.5393 15.6644 53.5273C15.8704 53.5144 16.136 54.1127 16.3742 54.4297L16.1259 54.6062C14.2543 53.3434 12.9219 53.9138 12.6121 56.1105C12.3613 55.3636 12.4568 54.3207 13.0805 54.0332ZM16.2 59.1774L16.188 59.4537C15.6649 59.6218 14.9931 59.6477 14.6598 59.9971C14.3129 60.3607 14.293 61.0367 14.0354 61.8897C13.6674 61.5728 13.031 61.2672 13.0226 60.966C13.0058 60.3685 13.1936 59.3742 13.5506 59.2586C14.4249 59.1007 15.3177 59.0733 16.2 59.1774ZM15.704 58.1827C16.1253 58.0336 16.5466 57.8845 17.0822 57.695C17.1772 58.1905 17.2318 58.475 17.3238 58.9549C16.7197 58.7697 16.2345 58.621 15.7493 58.4722L15.704 58.1827ZM17.062 56.7929C16.4819 57.4459 14.2798 57.5043 13.4142 56.8468C15.2305 56.6603 16.9187 56.3267 17.4142 54.1368C18.1111 54.8147 17.9515 55.7918 17.0621 56.7929L17.062 56.7929ZM16.9437 52.7221C17.4199 52.5086 17.6289 52.4025 17.8477 52.3206C18.0498 52.2451 18.2715 52.2154 18.4689 52.1313C18.6483 52.086 18.8148 51.9998 18.9554 51.8794C19.096 51.7591 19.2068 51.6078 19.2792 51.4375C19.3516 51.2672 19.3836 51.0825 19.3727 50.8977C19.3619 50.713 19.3084 50.5333 19.2165 50.3727C19.1075 50.2091 18.9604 50.0744 18.7878 49.9803C18.6153 49.8861 18.4224 49.8353 18.2259 49.8322C17.4693 49.979 16.8914 50.4077 17.2116 51.3672C17.2302 51.4229 17.1746 51.5011 17.0364 51.9447C16.5398 51.516 15.9021 51.2179 15.8552 50.8625C15.7941 50.3977 16.1822 49.8783 16.4142 49.4015C16.5029 49.2193 16.7064 49.0992 16.8375 48.9347C17.5789 48.0036 18.314 48.0713 18.8943 49.1633C19.0667 49.0348 19.2661 48.9474 19.4774 48.9076C19.6887 48.8679 19.9063 48.8769 20.1135 48.934C20.3208 48.9911 20.5123 49.0948 20.6735 49.2371C20.8347 49.3794 20.9612 49.5566 21.0435 49.7552C21.7251 50.8812 21.6904 51.6743 20.6833 52.3021C19.9141 52.7399 19.0837 53.0602 18.2197 53.2524C17.938 53.3254 17.5344 52.9819 16.9438 52.7221H16.9437ZM17.2434 46.3613L17.1648 44.1113C17.685 44.6616 18.071 45.07 18.5351 45.5609C18.0838 45.8406 17.7102 46.0721 17.2435 46.3613H17.2434ZM24.2475 51.5664C24.7807 51.7637 25.583 51.8343 25.9308 52.2655C26.0344 52.5313 26.0653 52.8198 26.0203 53.1015C25.9753 53.3831 25.856 53.6477 25.6748 53.8679C25.274 54.134 24.5031 53.8588 23.9585 53.8224C24.0703 52.9508 24.141 52.3991 24.2476 51.5664H24.2475ZM23.741 44.7066C23.9137 41.6009 24.1326 38.4992 24.3453 35.3971C24.4856 33.351 24.6785 31.3094 24.7762 29.2598C24.821 28.3207 25.2329 28.1328 26.1149 28.4048C26.1716 33.659 24.758 45.9239 23.9563 46.5821C23.8317 45.9641 23.7597 45.3367 23.7411 44.7066H23.741ZM29.289 56.7216C29.7911 57.0634 30.2467 57.3735 30.7022 57.6836C29.2624 58.0053 29.1277 57.8952 29.2891 56.7216H29.289ZM30.4958 59.9377C30.3772 60.1019 30.2586 60.2662 30.14 60.4304C29.54 59.99 28.9399 59.5495 28.3399 59.1091L28.7141 58.6188C29.308 59.0585 29.902 59.4981 30.4959 59.9377H30.4958ZM27.7784 53.3431L30.1187 52.85C29.3206 54.3984 29.2906 54.4044 27.7785 53.3431H27.7784ZM27.9989 54.9354C27.2909 55.1557 26.7311 55.3605 26.1517 55.4884C26.0499 55.4831 25.9511 55.4528 25.8638 55.4001C25.7766 55.3474 25.7037 55.274 25.6517 55.1864C25.5986 55.0655 25.7415 54.8066 25.8683 54.6795C26.5283 54.0181 27.2002 53.9266 27.999 54.9354H27.9989ZM22.497 50.8891C22.4651 50.7057 22.4517 50.5196 22.4571 50.3335C22.9269 50.2784 23.4023 50.2606 23.8767 50.2369L23.9331 50.9149C23.4542 50.9149 22.975 50.9227 22.4972 50.8891H22.497ZM21.9736 49.5254C21.5776 49.1722 21.3386 48.959 21.0996 48.7458L21.339 48.3914C21.6768 48.3114 22.0146 48.2313 22.5842 48.0962C22.3744 48.5876 22.2357 48.912 21.9737 49.5254H21.9736ZM22.472 53.3825C21.3028 53.6949 20.2287 53.9818 19.1546 54.2688L19.0327 54.0642L22.1945 52.1577C22.3106 52.6695 22.3916 53.0271 22.4721 53.3825H22.472ZM18.4886 58.2752C19.1863 58.6876 19.884 59.1001 20.5816 59.5125L20.4419 59.7648C19.7181 59.384 18.9943 59.0031 18.2705 58.6221L18.4886 58.2752ZM24.2703 60.0422C24.3425 60.4978 24.4169 60.9677 24.5208 61.6238C24.3443 61.5549 24.1842 61.4497 24.051 61.315C23.9561 61.2282 23.8846 61.1189 23.8431 60.9972C23.8015 60.8755 23.7912 60.7453 23.813 60.6186C23.8349 60.4919 23.8882 60.3727 23.9681 60.272C24.0481 60.1713 24.152 60.0922 24.2705 60.0422H24.2703ZM24.3643 59.9416C24.9068 59.355 25.2134 58.3522 26.3358 58.7481C27.6964 59.2281 27.9096 60.3136 27.0411 61.2354C26.7949 60.708 26.4636 60.2247 26.0605 59.8048C25.8111 59.6135 25.4995 59.5215 25.1862 59.5468C24.8728 59.5721 24.58 59.7128 24.3644 59.9416H24.3643ZM25.6085 60.4318L26.0266 60.7425C25.7513 61.0854 25.5394 61.5921 25.1809 61.7202C25.012 61.7578 24.8357 61.7439 24.6748 61.6803C25.103 61.1079 25.3603 60.7639 25.6086 60.4318H25.6085ZM26.2463 57.9735C26.28 57.0913 26.1189 56.2645 27.2343 56.2766C27.7646 56.2825 28.3794 56.2069 28.236 57.1431C28.0148 58.5872 26.9577 57.6173 26.2463 57.9735H26.2463ZM28.2681 64.6525C28.2758 64.5341 28.4941 64.4364 28.6163 64.3293C28.7504 64.5729 28.8859 64.8157 29.0183 65.0601C29.2527 65.4931 29.4861 65.9265 29.7186 66.3605L29.4386 66.5497C29.0458 66.2924 28.687 65.9867 28.3708 65.6396C28.237 65.3287 28.2012 64.9843 28.2682 64.6525H28.2681ZM48.635 36.4555L44.4618 36.2441C44.5553 35.2779 44.7039 34.3179 44.907 33.3688C45.2226 32.2378 45.2121 31.0406 44.8767 29.9154C44.5413 28.7901 43.8946 27.7826 43.0112 27.009C42.275 26.2799 41.5012 25.5899 40.6929 24.9416C39.7471 24.1542 39.8428 22.5353 41.0541 21.3208C41.4253 21.7309 41.8191 22.128 42.1675 22.561C42.3297 22.8374 42.5533 23.0727 42.8211 23.2486C43.0889 23.4245 43.3936 23.5364 43.7116 23.5755C44.3995 23.6581 45.0317 24.5558 45.66 25.1243C45.9856 25.4717 46.42 25.6975 46.8913 25.7645C47.3627 25.8314 47.8428 25.7354 48.2522 25.4923L48.635 36.4555ZM40.4985 26.1529C40.5342 26.358 40.6746 26.6374 40.6008 26.8274C40.156 27.9725 40.6261 29.0098 40.9049 30.1207C41.0817 31.1983 41.1511 32.2908 41.1122 33.3822C41.124 33.6446 41.1012 33.9073 41.0884 34.3939C42.2259 32.5966 42.5159 30.9821 41.5597 29.1627C41.3491 28.5359 41.3438 27.8583 41.5444 27.2282C42.2848 27.6078 42.913 28.1743 43.3669 28.8715C43.8207 29.5688 44.0844 30.3726 44.1317 31.2032C44.1752 32.1202 44.0862 33.0388 43.8673 33.9304C43.5232 35.4304 42.1105 35.9675 40.9279 36.3187C38.4054 37.0677 36.4505 38.6716 34.2777 39.9597C32.986 40.5274 31.8285 41.3609 30.8806 42.406C29.3848 44.4708 27.5161 46.3321 27.587 49.2107C27.595 49.537 27.2304 49.8595 27.0386 50.1838L26.7393 50.0866C26.6157 49.4106 26.4878 48.7352 26.3706 48.0583C26.0891 45.7278 25.9641 43.3811 25.9964 41.0339C26.2048 38.3246 26.4761 35.6222 26.7347 32.9187C26.9013 31.1782 27.0937 29.4411 27.3069 27.3928C28.2755 27.6307 29.157 27.8511 30.0401 28.063C31.1283 28.3242 31.603 27.9707 31.6259 26.8539C31.6371 26.3071 31.5929 25.7572 31.5672 25.0214C34.537 26.243 37.4193 26.9159 40.4985 26.1529ZM21.1673 7.12836C21.1349 6.20301 21.2507 5.27844 21.5101 4.38961C22.4953 2.04221 24.6522 1.82702 26.8561 2.06028C28.618 2.20623 30.3597 2.53715 32.0523 3.04757C33.4325 3.59811 34.7434 4.30848 35.9582 5.16416C36.5605 5.5383 36.5546 6.0833 36.1352 7.14233C35.9076 7.05942 35.694 6.9423 35.5017 6.79499C34.9559 6.17204 34.4315 6.32814 33.6723 6.3957C31.7868 6.5556 29.8888 6.48561 28.0202 6.18726C27.3775 6.08263 26.7187 6.21489 26.1662 6.55945C25.6137 6.90401 25.2051 7.43744 25.0164 8.0606C24.6979 9.05008 24.3673 10.0353 24.0248 11.0749C22.0462 10.294 21.0434 9.07939 21.1673 7.12836ZM21.4295 12.7234C21.3638 12.3717 21.3437 12.0131 21.3695 11.6564C21.8156 11.6825 22.2532 11.7898 22.6608 11.9729C23.0905 12.3571 23.4723 12.7917 23.7981 13.2673C25.0678 12.6793 25.0054 11.3348 25.4995 10.3525C25.6729 9.8363 25.8108 9.30887 25.9122 8.77388C26.3129 7.57543 32.6201 7.56588 34.0471 7.61268C34.6765 7.63326 35.0349 7.86568 35.3397 8.65629C35.615 9.20985 35.7442 9.82463 35.7149 10.4422C35.6855 11.0597 35.4987 11.6595 35.1722 12.1845C34.8932 12.6462 35.0877 13.3991 35.0479 14.0175C35.0247 14.3787 35.1027 14.9062 34.8994 15.0685C33.4096 16.2584 33.5448 18.1108 33.0873 19.7026C32.6141 21.3491 31.4763 21.8978 29.9195 21.1212C28.4006 20.3634 26.8562 19.6583 25.3078 18.9662C25.1472 18.8943 24.8839 19.0673 24.6682 19.1268C24.7794 19.4469 24.7983 19.9331 25.0171 20.0599C26.2717 20.7862 27.5677 21.4395 28.864 22.0877C29.2077 22.2157 29.5631 22.3101 29.9252 22.3695L29.976 23.8253C29.0491 24.4061 28.1062 24.9972 27.216 25.5551C26.0857 24.9706 25.0696 24.4515 24.0596 23.9201C23.5841 23.7031 23.1313 23.4395 22.7077 23.1332C22.5955 23.0285 22.5081 22.9001 22.4517 22.7574C22.3954 22.6146 22.3716 22.4611 22.3821 22.308C22.5915 21.3186 22.9687 20.3677 23.1458 19.3734C23.5107 17.3245 23.4999 15.3075 21.9866 13.5504C21.7488 13.3137 21.5595 13.0327 21.4295 12.7233V12.7234ZM10.5968 28.712C11.9836 27.9995 13.3473 27.2424 14.7508 26.5628C16.4546 25.7379 18.1898 24.9743 20.2237 24.0408C20.2683 25.3164 20.3122 26.4501 20.3462 27.5837C20.3765 28.595 20.6954 28.8237 21.6473 28.5197C21.9585 28.4202 22.2829 28.3589 22.5989 28.2721C22.9123 28.1859 23.2226 28.0897 23.8316 27.9103C23.7193 30.0031 23.6331 31.9529 23.505 33.8984C23.3799 35.7993 23.1718 37.6925 23.0735 39.5954C22.9558 41.872 22.9288 44.1563 22.8259 46.4343C22.8221 46.5853 22.7843 46.7336 22.7152 46.868C22.6461 47.0023 22.5475 47.1193 22.4268 47.2102C21.6851 47.4779 20.93 47.7066 20.1643 47.8952C20.4709 46.2997 19.5255 45.2272 18.5967 44.1572C18.1427 43.6342 17.6477 43.1462 17.1714 42.6423C16.7576 43.1048 16.368 43.5923 15.9243 44.0241C15.1996 44.7294 14.4395 45.3984 13.4916 46.2689C13.2437 44.6885 13.0663 43.3263 12.8082 41.9767C12.5441 40.5953 12.2364 39.2209 11.8852 37.8534C11.2084 35.2027 10.4986 32.5592 9.78478 29.9168C9.57975 29.1581 10.1014 28.9665 10.5968 28.712ZM8.89479 31.1653C10.658 36.3517 11.8434 41.7168 12.4296 47.1632C11.5544 46.2837 10.5929 45.4292 9.76975 44.4591C8.91655 43.4535 8.57969 43.4391 7.95627 44.5114C7.52673 45.2261 6.99011 45.8707 6.36512 46.4226C7.1295 41.3138 6.797 36.036 8.89481 31.1653H8.89479ZM6.85792 57.3409C7.05885 57.6487 7.26973 57.9517 7.43859 58.2754C7.3061 58.3902 7.1598 58.488 7.00309 58.5665C6.76776 58.2855 6.56491 57.9778 6.35532 57.6756L6.85792 57.3409ZM4.22061 61.0567L4.40148 60.6329C5.12877 60.9036 5.85607 61.1744 6.58336 61.4452L6.72703 61.7655L5.28977 62.6033L5.09659 62.2598C5.32117 62.1799 5.54582 62.1 5.9991 61.9389C5.29338 61.5888 4.757 61.3227 4.22061 61.0567ZM5.74112 54.7561L6.47741 54.8181C5.86349 55.6318 5.35626 56.3041 4.8491 56.9765L4.61615 56.7541C4.96931 56.1269 5.32241 55.4998 5.74112 54.7561V54.7561ZM3.19828 52.2369C4.07596 51.9556 4.58843 52.3449 5.0472 53.707C4.01659 53.5962 3.31044 53.2846 3.19828 52.2369ZM4.55115 59.2946C3.72479 59.9674 3.23732 59.9455 2.582 59.206C3.313 58.478 3.313 58.478 4.55115 59.2946V59.2946ZM2.21758 61.3149C2.30246 61.157 2.38732 60.9991 2.47215 60.8412C3.03161 61.191 3.59109 61.5408 4.1506 61.8907L3.98386 62.2057C3.39508 61.9087 2.80632 61.6118 2.21758 61.3149ZM7.26941 80.0412C5.9382 79.4211 5.76952 80.5503 5.36499 81.2262C5.04073 81.7679 4.69075 81.9555 4.12889 81.6242C2.82849 80.8574 2.113 77.7149 2.95366 76.5116C3.02362 76.3539 3.12659 76.2129 3.25564 76.0983C3.38468 75.9837 3.53679 75.8981 3.70172 75.8472C3.86666 75.7964 4.04057 75.7815 4.21175 75.8035C4.38293 75.8256 4.54739 75.8841 4.69405 75.975C5.31773 76.2857 6.37775 76.2329 6.62163 76.6716C7.06289 77.6939 7.38216 78.7645 7.57282 79.8615L7.26941 80.0412ZM7.07164 74.3703C6.56375 75.3647 5.44736 74.9441 4.56288 74.754C3.73388 74.5759 3.59657 73.9035 3.67064 73.1898C3.82948 71.6593 4.01312 70.1324 4.17595 68.6025C4.36124 66.8614 4.53495 65.1186 4.72018 63.3125H6.99777C6.83132 63.5317 6.75985 63.7135 6.6259 63.7888C4.94828 64.732 5.07943 66.2364 5.4609 67.8355C5.55067 68.2332 5.60711 68.6377 5.62965 69.0447C5.7152 70.3272 6.11987 70.5781 7.33524 70.0827C7.53038 70.0032 7.73207 69.9386 8.11777 69.7997C8.09803 71.3803 7.74139 72.9385 7.07164 74.3703V74.3703ZM7.1818 67.5669C7.0618 67.6804 6.6928 67.5322 6.43739 67.5034C6.49151 67.2682 6.46695 66.9361 6.61559 66.8174C6.98451 66.5637 7.37485 66.3426 7.78217 66.1567L8.04428 66.4256C7.79256 66.8318 7.50384 67.2139 7.1818 67.5669V67.5669ZM7.579 62.1027L7.43251 61.8133C7.60953 61.6233 7.8155 61.4625 8.04279 61.3369C8.47938 61.179 8.9567 61.1284 9.40309 60.9916C11.4455 60.3659 12.1465 59.0955 11.5975 56.9285C12.1307 57.2829 12.6146 57.6046 13.2415 58.0215C12.5546 58.8048 11.8313 59.5322 11.2388 60.3558C11.0198 60.6601 11.1085 61.1907 11.0494 61.6804C9.88861 61.8217 8.73181 61.9625 7.579 62.1027V62.1027ZM11.2512 62.879C10.8543 63.4415 10.5034 63.9387 10.1216 64.4797C9.54787 64.1427 9.18112 63.6267 9.55864 62.9927C9.98664 62.274 10.6219 62.4725 11.2512 62.8791V62.879ZM9.02122 68.5499L8.71792 68.3956C8.774 67.9931 8.70618 67.3375 8.91261 67.2421C9.38591 67.1302 9.87652 67.1118 10.3569 67.1881L10.4615 67.5975C9.98142 67.915 9.5013 68.2325 9.02119 68.55L9.02122 68.5499ZM12.6519 66.5996C12.1124 66.8544 11.5119 66.9518 10.9196 66.8806C10.3272 66.8094 9.76691 66.5724 9.3032 66.197C8.05241 65.3767 7.82904 64.523 8.21948 63.0191C8.38603 63.6895 8.74449 64.2968 9.25098 64.7665C9.75746 65.2363 10.39 65.5482 11.071 65.6639C12.1067 65.7037 12.6825 65.1148 12.9791 63.9614C13.2685 64.2184 13.6877 64.4909 13.6547 64.577C13.3809 65.2918 13.2068 66.266 12.6519 66.5996L12.6519 66.5996ZM13.0612 71.7088C12.6987 70.5332 12.9697 69.9572 14.1878 69.4606C14.5288 71.2288 14.4149 71.4446 13.0611 71.7088L13.0612 71.7088ZM18.2413 69.7713C17.8662 69.1574 17.7129 68.9066 17.5421 68.6271C16.8854 68.8205 16.6936 69.8919 15.6669 69.2561C14.5603 68.5708 14.5984 67.5929 14.4013 66.6254C14.9517 67.0681 15.5613 67.4318 16.2124 67.706C16.7473 67.7711 17.2873 67.6344 17.7269 67.3227C17.8614 67.2374 17.7209 66.3979 17.4668 66.1252C16.9535 65.5742 16.4759 65.985 16.0759 66.3953C15.9388 66.5007 15.7942 66.5958 15.643 66.6799C15.588 66.1848 15.3828 65.6662 15.5452 65.4927C15.7993 65.221 16.4546 64.9431 16.6728 65.0866C17.6623 65.6138 18.528 66.3461 19.2119 67.2346C19.4725 67.6688 18.6784 68.7115 18.2412 69.7713L18.2413 69.7713ZM18.9021 65.2831L18.3423 63.5783L18.7475 63.453C18.8999 64.0326 19.0522 64.6121 19.2046 65.1917L18.9021 65.2831ZM19.7848 69.291C20.0034 69.94 20.1772 70.4562 20.4446 71.2505C19.38 70.7086 19.2306 70.1843 19.7848 69.291L19.7848 69.291ZM21.5326 71.6914C21.1121 70.6423 20.7498 69.7381 20.3182 68.6612C21.9209 69.755 22.1986 70.4118 21.5326 71.6914L21.5326 71.6914ZM22.0604 68.6408L21.7408 68.6526C21.4952 68.3226 21.2496 67.9927 21.004 67.6627L21.166 67.4312C21.5319 67.5606 21.8828 67.7292 22.2125 67.9341C22.2908 67.9923 22.1178 68.3959 22.0603 68.6408L22.0604 68.6408ZM22.5826 66.7762C22.1244 67.0256 21.587 67.086 21.0849 66.9445C20.5829 66.803 20.1561 66.4709 19.8955 66.019C21.2233 66.2553 22.5543 66.4411 23.2392 65.1399C23.4197 64.7969 23.0565 64.0382 22.7674 63.5765C22.6442 63.3303 22.4675 63.1147 22.2503 62.9456C22.033 62.7765 21.7807 62.6581 21.5118 62.5991C21.2429 62.5401 20.9642 62.542 20.6961 62.6046C20.428 62.6672 20.1773 62.789 19.9624 62.9611C20.2332 62.0063 20.7689 61.4216 21.7636 61.5658C22.4395 61.7769 23.0517 62.1539 23.5445 62.6624C24.0372 63.1709 24.3948 63.7948 24.5845 64.477C24.6972 65.3873 23.9587 66.2355 22.5825 66.7762L22.5826 66.7762ZM50.6127 77.4517C50.628 78.7405 50.5701 80.028 50.5198 81.3142C50.4822 81.6249 50.4175 81.9316 50.3264 82.231L50.0184 82.2278C49.2781 80.2121 48.5372 78.1967 47.7957 76.1816C47.5492 75.5157 47.2795 74.8578 47.0222 74.1958C46.5811 73.0611 46.7724 72.7874 47.9635 72.8463C48.5019 72.8079 49.0202 72.6262 49.4647 72.3198C49.9091 72.0135 50.2634 71.5938 50.4908 71.1043C50.5487 73.2202 50.5893 75.3361 50.6127 77.4518L50.6127 77.4517ZM50.4374 69.1456C50.4494 69.4767 50.454 69.8078 50.4644 70.1389C50.0362 70.5288 49.5009 71.0924 49.417 71.1494C47.7171 72.3054 45.7284 71.9973 43.8501 71.9494C40.7302 71.8699 37.6076 71.5668 34.4871 71.3345C31.5975 71.1193 28.7093 70.8682 25.8201 70.6442C24.9366 70.5757 24.3406 70.2807 24.4252 69.2418C24.4375 68.7189 24.4222 68.1958 24.3795 67.6745C26.6002 69.1624 28.8661 68.1872 31.108 68.2197C32.2705 68.2366 33.437 68.267 34.5931 68.1993C36.7888 68.2133 38.9475 67.6338 40.841 66.5223C41.4891 65.9601 41.9177 65.187 42.0513 64.3396C42.6408 61.59 42.5593 58.7388 41.8138 56.0274C41.2471 53.9948 40.864 51.9125 40.2144 49.9063C39.6704 48.2265 38.8745 46.6184 38.1606 44.9906C37.7075 43.9574 37.5566 42.967 38.4308 42.1449C39.8284 40.8306 41.1851 39.4035 43.3363 39.3881C43.7695 39.3847 44.1956 39.4978 44.5701 39.7154C44.9446 39.9331 45.2538 40.2473 45.4652 40.6254C46.8882 42.546 47.291 44.775 47.8982 46.8867C48.8288 50.0792 49.4778 53.347 49.8378 56.6528C50.2705 60.8011 50.2858 64.9799 50.4373 69.1457L50.4374 69.1456ZM52.083 25.2443C51.0335 25.144 49.9913 24.9288 48.9451 24.7685C48.6264 24.7196 46.7267 23.9755 46.6205 23.9593C44.3107 23.6054 42.7361 22.1307 41.3055 20.4198C40.6445 18.7318 40.1854 16.9716 39.9379 15.1758C39.8668 13.2975 40.9726 12.0507 42.2035 10.8882C43.9887 9.20217 46.216 9.07193 48.5472 9.32551C48.7653 9.36895 48.9881 9.38441 49.2102 9.37151C51.3742 9.03165 53.9001 12.8553 53.7161 13.0645C51.3033 15.8072 51.1056 19.0546 51.8901 22.4837C52.2207 23.342 52.6598 24.1544 53.1968 24.9011C52.85 25.0834 52.4723 25.1998 52.0829 25.2444L52.083 25.2443ZM55.8412 25.9321C55.5738 25.9927 55.0419 25.5798 54.8441 25.258C54.3311 24.4231 51.7016 18.3572 53.0309 15.9819C53.2683 15.6252 53.5302 15.2853 53.8147 14.9648C53.9817 14.7455 54.8648 13.1138 55.5887 12.9771C56.4672 12.7501 57.3659 12.6103 58.2719 12.5599C59.0054 12.5544 59.7231 12.7722 60.3299 13.1843C61.1103 13.8562 61.8007 14.6259 62.384 15.4746C63.673 17.1812 62.7274 18.7245 62.0421 20.2231C61.2779 22.0855 60.0459 23.7192 58.4653 24.966C57.6627 25.4576 56.7709 25.7859 55.8411 25.9321L55.8412 25.9321Z" fill="#565656"/>
</svg>
